<?xml version="1.0" standalone="no"?>
<!DOCTYPE svg PUBLIC "-//W3C//DTD SVG 1.1//EN" "http://www.w3.org/Graphics/SVG/1.1/DTD/svg11.dtd" >
<svg xmlns="http://www.w3.org/2000/svg">
<metadata>
This is a custom SVG webfont generated by Font Squirrel.
Copyright   : Copyright 2000 vFive  Designed by Roberto Christen  All Rights Reserved   vFive Digital    San Francisco    wwwvfivecom
</metadata>
<defs>
<font id="V5ProphitFading" horiz-adv-x="971" >
<font-face units-per-em="1000" ascent="853" descent="-147" />
<missing-glyph horiz-adv-x="384" />
<glyph unicode=" "  horiz-adv-x="384" />
<glyph unicode="&#x09;" horiz-adv-x="384" />
<glyph unicode="&#xa0;" horiz-adv-x="384" />
<glyph unicode="!" horiz-adv-x="603" d="M506 534q-3 -21 -20.5 -36.5t-38.5 -15.5t-34 15.5t-10 36.5t20.5 36.5t38.5 15.5t34 -15.5t10 -36.5zM378 534q-3 -21 -20.5 -36.5t-38.5 -15.5t-34 15.5t-10 36.5t20.5 36.5t38.5 15.5t34 -15.5t10 -36.5zM480 406q-3 -18 -17.5 -31t-32.5 -13t-29 13t-8 31t17.5 31 t32.5 13t29 -13t8 -31zM251 534q-3 -21 -20.5 -36.5t-38.5 -15.5t-34.5 15.5t-10.5 36.5t20.5 36.5t38.5 15.5t34.5 -15.5t10.5 -36.5zM353 406q-3 -18 -17.5 -31t-32.5 -13t-29.5 13t-8.5 31t17.5 31t32.5 13t29.5 -13t8.5 -31zM458 291q-2 -15 -15 -26t-28 -11t-24.5 11 t-7.5 26t15 26.5t28 11.5t24.5 -11.5t7.5 -26.5zM123 534q-3 -21 -20.5 -36.5t-38.5 -15.5t-34 15.5t-10 36.5t20.5 36.5t38.5 15.5t34 -15.5t10 -36.5zM225 406q-3 -18 -17.5 -31t-32.5 -13t-29.5 13t-8.5 31t17.5 31t32.5 13t29.5 -13t8.5 -31zM330 291q-2 -15 -15 -26 t-28 -11t-24.5 11t-7.5 26t15 26.5t28 11.5t24.5 -11.5t7.5 -26.5zM305 189q-4 -27 -30 -27q-28 0 -24 27t31 27t23 -27zM97 406q-3 -18 -17.5 -31t-32.5 -13t-29 13t-8 31t17.5 31t32.5 13t29 -13t8 -31zM202 291q-2 -15 -14.5 -26t-27.5 -11t-24.5 11t-7.5 26 q2 16 14.5 27t27.5 11t24.5 -11.5t7.5 -26.5zM178 189q-4 -27 -31 -27t-23 27t30 27q28 0 24 -27zM75 291q-2 -15 -15 -26t-28 -11t-24.5 11t-7.5 26t15 26.5t28 11.5t24.5 -11.5t7.5 -26.5zM275 20q-3 -20 -23 -20q-21 0 -18 20q3 21 24 21q20 0 17 -21zM148 20 q-3 -20 -24 -20t-18 20q3 21 24 21t18 -21z" />
<glyph unicode="&#x22;" horiz-adv-x="745" d="M648 661q-3 -24 -22 -40.5t-43 -16.5t-38.5 16.5t-11.5 40.5t22.5 41t43.5 17t38 -17t11 -41zM521 661q-3 -24 -22.5 -40.5t-43.5 -16.5t-38 16.5t-11 40.5t22 41t43 17t38.5 -17t11.5 -41zM625 534q-3 -21 -20.5 -36.5t-38.5 -15.5t-34.5 15.5t-10.5 36.5t20.5 36.5 t38.5 15.5t34.5 -15.5t10.5 -36.5zM497 534q-3 -21 -20.5 -36.5t-38.5 -15.5t-34 15.5t-10 36.5t20.5 36.5t38.5 15.5t34 -15.5t10 -36.5zM599 406q-3 -18 -17.5 -31t-32.5 -13t-29.5 13t-8.5 31t17.5 31t32.5 13t29.5 -13t8.5 -31zM265 661q-3 -24 -22 -40.5t-43 -16.5 t-38.5 16.5t-11.5 40.5t22.5 41t43.5 17t38 -17t11 -41zM471 406q-3 -18 -17.5 -31t-32.5 -13t-29.5 13t-8.5 31t18 31t33 13t29 -13t8 -31zM138 661q-3 -24 -22.5 -40.5t-43.5 -16.5t-38 16.5t-11 40.5t22 41t43 17t38.5 -17t11.5 -41zM242 534q-3 -21 -20.5 -36.5 t-38.5 -15.5t-34.5 15.5t-10.5 36.5t20.5 36.5t38.5 15.5t34.5 -15.5t10.5 -36.5zM114 534q-3 -21 -20.5 -36.5t-38.5 -15.5t-34 15.5t-10 36.5t20.5 36.5t38.5 15.5t34 -15.5t10 -36.5zM216 406q-3 -18 -17.5 -31t-32.5 -13t-29.5 13t-8.5 31t17.5 31t32.5 13t29.5 -13 t8.5 -31zM88 406q-3 -18 -17.5 -31t-32.5 -13t-29.5 13t-8.5 31t18 31t33 13t29 -13t8 -31z" />
<glyph unicode="#" horiz-adv-x="1099" d="M901 534q-3 -21 -20.5 -36.5t-38.5 -15.5t-34 15.5t-10 36.5t20.5 36.5t38.5 15.5t34 -15.5t10 -36.5zM1003 406q-3 -18 -17.5 -31t-32.5 -13t-29.5 13t-8.5 31t17.5 31t32.5 13t29.5 -13t8.5 -31zM773 534q-3 -21 -20.5 -36.5t-38.5 -15.5t-34 15.5t-10 36.5t20.5 36.5 t38.5 15.5t34 -15.5t10 -36.5zM875 406q-3 -18 -17.5 -31t-32.5 -13t-29 13t-8 31t17.5 31t32.5 13t29 -13t8 -31zM748 406q-3 -18 -17.5 -31t-32.5 -13t-29.5 13t-8.5 31t17.5 31t32.5 13t29.5 -13t8.5 -31zM853 291q-2 -15 -15 -26t-28 -11t-24.5 11t-7.5 26t15 26.5 t28 11.5t24.5 -11.5t7.5 -26.5zM940 103q-3 -23 -27 -23q-22 0 -19 23t26 23t20 -23zM828 189q-4 -27 -31 -27t-23 27t31 27t23 -27zM620 406q-3 -18 -17.5 -31t-32.5 -13t-29.5 13t-8.5 31t17.5 31t32.5 13t29.5 -13t8.5 -31zM725 291q-2 -15 -15 -26t-28 -11t-24.5 11 t-7.5 26t15 26.5t28 11.5t24.5 -11.5t7.5 -26.5zM812 103q-3 -23 -26 -23t-20 23t26 23t20 -23zM390 534q-3 -21 -20.5 -36.5t-38.5 -15.5t-34 15.5t-10 36.5t20.5 36.5t38.5 15.5t34 -15.5t10 -36.5zM700 189q-4 -27 -30 -27q-28 0 -24 27t31 27t23 -27zM492 406 q-3 -18 -17.5 -31t-32.5 -13t-29 13t-8 31t17.5 31t32.5 13t29 -13t8 -31zM798 20q-3 -20 -24 -20q-20 0 -17 20q3 21 23 21q21 0 18 -21zM684 103q-3 -23 -26 -23t-20 23t26 23t20 -23zM263 534q-3 -21 -20.5 -36.5t-38.5 -15.5t-34.5 15.5t-10.5 36.5t20.5 36.5t38.5 15.5 t34.5 -15.5t10.5 -36.5zM365 406q-3 -18 -17.5 -31t-32.5 -13t-29.5 13t-8.5 31t17.5 31t32.5 13t29.5 -13t8.5 -31zM670 20q-3 -20 -23 -20q-21 0 -18 20q3 21 24 21q20 0 17 -21zM557 103q-3 -23 -27 -23q-22 0 -19 23t26 23t20 -23zM237 406q-3 -18 -17.5 -31t-32.5 -13 t-29.5 13t-8.5 31t17.5 31t32.5 13t29.5 -13t8.5 -31zM342 291q-2 -15 -15 -26t-28 -11t-24.5 11t-7.5 26t15 26.5t28 11.5t24.5 -11.5t7.5 -26.5zM429 103q-3 -23 -26 -23t-20 23t26 23t20 -23zM317 189q-4 -27 -30 -27q-28 0 -24 27t31 27t23 -27zM109 406 q-3 -18 -17.5 -31t-32.5 -13t-29 13t-8 31t17.5 31t32.5 13t29 -13t8 -31zM214 291q-2 -15 -14.5 -26t-27.5 -11t-24.5 11t-7.5 26q2 16 14.5 27t27.5 11t24.5 -11.5t7.5 -26.5zM301 103q-3 -23 -26 -23t-20 23t26 23t20 -23zM190 189q-4 -27 -31 -27t-23 27t30 27 q28 0 24 -27zM287 20q-3 -20 -23 -20q-21 0 -18 20q3 21 24 21q20 0 17 -21zM174 103q-3 -23 -27 -23q-22 0 -19 23t26 23t20 -23zM160 20q-3 -20 -24 -20t-18 20q3 21 24 21t18 -21zM46 103q-3 -23 -26 -23t-20 23t26 23t20 -23z" />
<glyph unicode="$" horiz-adv-x="986" d="M889 534q-3 -21 -20.5 -36.5t-38.5 -15.5t-34 15.5t-10 36.5t20.5 36.5t38.5 15.5t34 -15.5t10 -36.5zM761 534q-3 -21 -20.5 -36.5t-38.5 -15.5t-34 15.5t-10 36.5t20.5 36.5t38.5 15.5t34 -15.5t10 -36.5zM634 534q-3 -21 -20.5 -36.5t-38.5 -15.5t-34.5 15.5 t-10.5 36.5t20.5 36.5t38.5 15.5t34.5 -15.5t10.5 -36.5zM841 291q-2 -15 -15 -26t-28 -11t-24.5 11t-7.5 26t15 26.5t28 11.5t24.5 -11.5t7.5 -26.5zM506 534q-3 -21 -20.5 -36.5t-38.5 -15.5t-34 15.5t-10 36.5t20.5 36.5t38.5 15.5t34 -15.5t10 -36.5zM816 189 q-4 -27 -31 -27t-23 27t31 27t23 -27zM713 291q-2 -15 -15 -26t-28 -11t-24.5 11t-7.5 26t15 26.5t28 11.5t24.5 -11.5t7.5 -26.5zM800 103q-3 -23 -26 -23t-20 23t26 23t20 -23zM378 534q-3 -21 -20.5 -36.5t-38.5 -15.5t-34 15.5t-10 36.5t20.5 36.5t38.5 15.5t34 -15.5 t10 -36.5zM688 189q-4 -27 -30 -27q-28 0 -24 27t31 27t23 -27zM480 406q-3 -18 -17.5 -31t-32.5 -13t-29 13t-8 31t17.5 31t32.5 13t29 -13t8 -31zM585 291q-2 -15 -14.5 -26t-27.5 -11t-24.5 11t-7.5 26q2 16 14.5 27t27.5 11t24.5 -11.5t7.5 -26.5zM672 103 q-3 -23 -26 -23t-20 23t26 23t20 -23zM251 534q-3 -21 -20.5 -36.5t-38.5 -15.5t-34.5 15.5t-10.5 36.5t20.5 36.5t38.5 15.5t34.5 -15.5t10.5 -36.5zM458 291q-2 -15 -15 -26t-28 -11t-24.5 11t-7.5 26t15 26.5t28 11.5t24.5 -11.5t7.5 -26.5zM658 20q-3 -20 -23 -20 q-21 0 -18 20q3 21 24 21q20 0 17 -21zM433 189q-4 -27 -31 -27t-23 27t31 27t23 -27zM225 406q-3 -18 -17.5 -31t-32.5 -13t-29.5 13t-8.5 31t17.5 31t32.5 13t29.5 -13t8.5 -31zM330 291q-2 -15 -15 -26t-28 -11t-24.5 11t-7.5 26t15 26.5t28 11.5t24.5 -11.5t7.5 -26.5z M531 20q-3 -20 -24 -20t-18 20q3 21 24 21t18 -21zM417 103q-3 -23 -26 -23t-20 23t26 23t20 -23zM97 406q-3 -18 -17.5 -31t-32.5 -13t-29 13t-8 31t17.5 31t32.5 13t29 -13t8 -31zM202 291q-2 -15 -14.5 -26t-27.5 -11t-24.5 11t-7.5 26q2 16 14.5 27t27.5 11t24.5 -11.5 t7.5 -26.5zM403 20q-3 -20 -24 -20q-20 0 -17 20q3 21 23 21q21 0 18 -21zM75 291q-2 -15 -15 -26t-28 -11t-24.5 11t-7.5 26t15 26.5t28 11.5t24.5 -11.5t7.5 -26.5zM275 20q-3 -20 -23 -20q-21 0 -18 20q3 21 24 21q20 0 17 -21zM148 20q-3 -20 -24 -20t-18 20q3 21 24 21 t18 -21z" />
<glyph unicode="%" horiz-adv-x="1007" d="M910 534q-3 -21 -20.5 -36.5t-38.5 -15.5t-34 15.5t-10 36.5t20.5 36.5t38.5 15.5t34 -15.5t10 -36.5zM783 534q-3 -21 -20.5 -36.5t-38.5 -15.5t-34.5 15.5t-10.5 36.5t20.5 36.5t38.5 15.5t34.5 -15.5t10.5 -36.5zM757 406q-3 -18 -17.5 -31t-32.5 -13t-29.5 13 t-8.5 31t17.5 31t32.5 13t29.5 -13t8.5 -31zM629 406q-3 -18 -17.5 -31t-32.5 -13t-29 13t-8 31t17.5 31t32.5 13t29 -13t8 -31zM821 103q-3 -23 -26 -23t-20 23t27 23q22 0 19 -23zM607 291q-2 -15 -15 -26t-28 -11t-24.5 11t-7.5 26t15 26.5t28 11.5t24.5 -11.5t7.5 -26.5 zM807 20q-3 -20 -23 -20q-21 0 -18 20q3 21 24 21q20 0 17 -21zM694 103q-3 -23 -27 -23q-22 0 -19 23t26 23t20 -23zM272 534q-3 -21 -20.5 -36.5t-38.5 -15.5t-34 15.5t-10 36.5t20.5 36.5t38.5 15.5t34 -15.5t10 -36.5zM479 291q-2 -15 -15 -26t-28 -11t-24.5 11t-7.5 26 t15 26.5t28 11.5t24.5 -11.5t7.5 -26.5zM680 20q-3 -20 -24 -20t-18 20q3 21 24 21t18 -21zM144 534q-3 -21 -20.5 -36.5t-38.5 -15.5t-34 15.5t-10 36.5t20.5 36.5t38.5 15.5t34 -15.5t10 -36.5zM454 189q-4 -27 -30 -27q-28 0 -24 27t31 27t23 -27zM246 406 q-3 -18 -17.5 -31t-32.5 -13t-29 13t-8 31t17.5 31t32.5 13t29 -13t8 -31zM327 189q-4 -27 -31 -27t-23 27t30 27q28 0 24 -27zM119 406q-3 -18 -17.5 -31t-32.5 -13t-29.5 13t-8.5 31t17.5 31t32.5 13t29.5 -13t8.5 -31zM311 103q-3 -23 -27 -23q-22 0 -19 23t26 23t20 -23 zM183 103q-3 -23 -26 -23t-20 23t26 23t20 -23zM169 20q-3 -20 -24 -20q-20 0 -17 20q3 21 23 21q21 0 18 -21zM41 20q-3 -20 -23 -20q-21 0 -18 20q3 21 24 21q20 0 17 -21z" />
<glyph unicode="&#x26;" horiz-adv-x="924" d="M646 534q-3 -21 -20.5 -36.5t-38.5 -15.5t-34.5 15.5t-10.5 36.5t20.5 36.5t38.5 15.5t34.5 -15.5t10.5 -36.5zM748 406q-3 -18 -17.5 -31t-32.5 -13t-29.5 13t-8.5 31t17.5 31t32.5 13t29.5 -13t8.5 -31zM518 534q-3 -21 -20.5 -36.5t-38.5 -15.5t-34 15.5t-10 36.5 t20.5 36.5t38.5 15.5t34 -15.5t10 -36.5zM828 189q-4 -27 -31 -27t-23 27t31 27t23 -27zM620 406q-3 -18 -17.5 -31t-32.5 -13t-29.5 13t-8.5 31t17.5 31t32.5 13t29.5 -13t8.5 -31zM390 534q-3 -21 -20.5 -36.5t-38.5 -15.5t-34 15.5t-10 36.5t20.5 36.5t38.5 15.5 t34 -15.5t10 -36.5zM700 189q-4 -27 -30 -27q-28 0 -24 27t31 27t23 -27zM597 291q-2 -15 -14.5 -26t-27.5 -11t-24.5 11t-7.5 26q2 16 14.5 27t27.5 11t24.5 -11.5t7.5 -26.5zM798 20q-3 -20 -24 -20q-20 0 -17 20q3 21 23 21q21 0 18 -21zM684 103q-3 -23 -26 -23t-20 23 t26 23t20 -23zM263 534q-3 -21 -20.5 -36.5t-38.5 -15.5t-34.5 15.5t-10.5 36.5t20.5 36.5t38.5 15.5t34.5 -15.5t10.5 -36.5zM557 103q-3 -23 -27 -23q-22 0 -19 23t26 23t20 -23zM445 189q-4 -27 -31 -27t-23 27t31 27t23 -27zM237 406q-3 -18 -17.5 -31t-32.5 -13 t-29.5 13t-8.5 31t17.5 31t32.5 13t29.5 -13t8.5 -31zM543 20q-3 -20 -24 -20t-18 20q3 21 24 21t18 -21zM317 189q-4 -27 -30 -27q-28 0 -24 27t31 27t23 -27zM109 406q-3 -18 -17.5 -31t-32.5 -13t-29 13t-8 31t17.5 31t32.5 13t29 -13t8 -31zM214 291q-2 -15 -14.5 -26 t-27.5 -11t-24.5 11t-7.5 26q2 16 14.5 27t27.5 11t24.5 -11.5t7.5 -26.5zM415 20q-3 -20 -24 -20q-20 0 -17 20q3 21 23 21q21 0 18 -21zM190 189q-4 -27 -31 -27t-23 27t30 27q28 0 24 -27zM87 291q-2 -15 -15 -26t-28 -11t-24.5 11t-7.5 26t15 26.5t28 11.5t24.5 -11.5 t7.5 -26.5zM287 20q-3 -20 -23 -20q-21 0 -18 20q3 21 24 21q20 0 17 -21zM174 103q-3 -23 -27 -23q-22 0 -19 23t26 23t20 -23zM160 20q-3 -20 -24 -20t-18 20q3 21 24 21t18 -21zM46 103q-3 -23 -26 -23t-20 23t26 23t20 -23z" />
<glyph unicode="'" horiz-adv-x="362" d="M265 661q-3 -24 -22 -40.5t-43 -16.5t-38.5 16.5t-11.5 40.5t22.5 41t43.5 17t38 -17t11 -41zM138 661q-3 -24 -22.5 -40.5t-43.5 -16.5t-38 16.5t-11 40.5t22 41t43 17t38.5 -17t11.5 -41zM242 534q-3 -21 -20.5 -36.5t-38.5 -15.5t-34.5 15.5t-10.5 36.5t20.5 36.5 t38.5 15.5t34.5 -15.5t10.5 -36.5zM88 406q-3 -18 -17.5 -31t-32.5 -13t-29.5 13t-8.5 31t18 31t33 13t29 -13t8 -31z" />
<glyph unicode="(" horiz-adv-x="487" d="M390 534q-3 -21 -20.5 -36.5t-38.5 -15.5t-34 15.5t-10 36.5t20.5 36.5t38.5 15.5t34 -15.5t10 -36.5zM263 534q-3 -21 -20.5 -36.5t-38.5 -15.5t-34.5 15.5t-10.5 36.5t20.5 36.5t38.5 15.5t34.5 -15.5t10.5 -36.5zM237 406q-3 -18 -17.5 -31t-32.5 -13t-29.5 13 t-8.5 31t17.5 31t32.5 13t29.5 -13t8.5 -31zM109 406q-3 -18 -17.5 -31t-32.5 -13t-29 13t-8 31t17.5 31t32.5 13t29 -13t8 -31zM214 291q-2 -15 -14.5 -26t-27.5 -11t-24.5 11t-7.5 26q2 16 14.5 27t27.5 11t24.5 -11.5t7.5 -26.5zM190 189q-4 -27 -31 -27t-23 27t30 27 q28 0 24 -27zM87 291q-2 -15 -15 -26t-28 -11t-24.5 11t-7.5 26t15 26.5t28 11.5t24.5 -11.5t7.5 -26.5zM287 20q-3 -20 -23 -20q-21 0 -18 20q3 21 24 21q20 0 17 -21zM174 103q-3 -23 -27 -23q-22 0 -19 23t26 23t20 -23zM62 189q-4 -27 -31 -27t-23 27t31 27t23 -27z M160 20q-3 -20 -24 -20t-18 20q3 21 24 21t18 -21zM46 103q-3 -23 -26 -23t-20 23t26 23t20 -23z" />
<glyph unicode=")" horiz-adv-x="470" d="M272 534q-3 -21 -20.5 -36.5t-38.5 -15.5t-34 15.5t-10 36.5t20.5 36.5t38.5 15.5t34 -15.5t10 -36.5zM374 406q-3 -18 -17.5 -31t-32.5 -13t-29.5 13t-8.5 31t17.5 31t32.5 13t29.5 -13t8.5 -31zM144 534q-3 -21 -20.5 -36.5t-38.5 -15.5t-34 15.5t-10 36.5t20.5 36.5 t38.5 15.5t34 -15.5t10 -36.5zM246 406q-3 -18 -17.5 -31t-32.5 -13t-29 13t-8 31t17.5 31t32.5 13t29 -13t8 -31zM351 291q-2 -15 -14.5 -26t-27.5 -11t-24.5 11t-7.5 26q2 16 14.5 27t27.5 11t24.5 -11.5t7.5 -26.5zM327 189q-4 -27 -31 -27t-23 27t30 27q28 0 24 -27z M224 291q-2 -15 -15 -26t-28 -11t-24.5 11t-7.5 26t15 26.5t28 11.5t24.5 -11.5t7.5 -26.5zM311 103q-3 -23 -27 -23q-22 0 -19 23t26 23t20 -23zM199 189q-4 -27 -31 -27t-23 27t31 27t23 -27zM183 103q-3 -23 -26 -23t-20 23t26 23t20 -23zM169 20q-3 -20 -24 -20 q-20 0 -17 20q3 21 23 21q21 0 18 -21zM41 20q-3 -20 -23 -20q-21 0 -18 20q3 21 24 21q20 0 17 -21z" />
<glyph unicode="*" horiz-adv-x="693" d="M597 291q-2 -15 -14.5 -26t-27.5 -11t-24.5 11t-7.5 26q2 16 14.5 27t27.5 11t24.5 -11.5t7.5 -26.5zM365 406q-3 -18 -17.5 -31t-32.5 -13t-29.5 13t-8.5 31t17.5 31t32.5 13t29.5 -13t8.5 -31zM470 291q-2 -15 -15 -26t-28 -11t-24.5 11t-7.5 26t15 26.5t28 11.5 t24.5 -11.5t7.5 -26.5zM557 103q-3 -23 -27 -23q-22 0 -19 23t26 23t20 -23zM445 189q-4 -27 -31 -27t-23 27t31 27t23 -27zM342 291q-2 -15 -15 -26t-28 -11t-24.5 11t-7.5 26t15 26.5t28 11.5t24.5 -11.5t7.5 -26.5zM317 189q-4 -27 -30 -27q-28 0 -24 27t31 27t23 -27z M214 291q-2 -15 -14.5 -26t-27.5 -11t-24.5 11t-7.5 26q2 16 14.5 27t27.5 11t24.5 -11.5t7.5 -26.5zM190 189q-4 -27 -31 -27t-23 27t30 27q28 0 24 -27zM87 291q-2 -15 -15 -26t-28 -11t-24.5 11t-7.5 26t15 26.5t28 11.5t24.5 -11.5t7.5 -26.5zM46 103q-3 -23 -26 -23 t-20 23t26 23t20 -23z" />
<glyph unicode="+" horiz-adv-x="788" d="M692 189q-4 -27 -30 -27q-28 0 -24 27t31 27t23 -27zM484 406q-3 -18 -17.5 -31t-32.5 -13t-29 13t-8 31t17.5 31t32.5 13t29 -13t8 -31zM565 189q-4 -27 -31 -27t-23 27t30 27q28 0 24 -27zM357 406q-3 -18 -17.5 -31t-32.5 -13t-29.5 13t-8.5 31t17.5 31t32.5 13 t29.5 -13t8.5 -31zM462 291q-2 -15 -15 -26t-28 -11t-24.5 11t-7.5 26t15 26.5t28 11.5t24.5 -11.5t7.5 -26.5zM437 189q-4 -27 -31 -27t-23 27t31 27t23 -27zM334 291q-2 -15 -15 -26t-28 -11t-24.5 11t-7.5 26t15 26.5t28 11.5t24.5 -11.5t7.5 -26.5zM421 103 q-3 -23 -26 -23t-20 23t26 23t20 -23zM309 189q-4 -27 -30 -27q-28 0 -24 27t31 27t23 -27zM407 20q-3 -20 -24 -20q-20 0 -17 20q3 21 23 21q21 0 18 -21zM293 103q-3 -23 -26 -23t-20 23t26 23t20 -23zM182 189q-4 -27 -31 -27t-23 27t30 27q28 0 24 -27zM279 20 q-3 -20 -23 -20q-21 0 -18 20q3 21 24 21q20 0 17 -21zM54 189q-4 -27 -31 -27t-23 27t31 27t23 -27z" />
<glyph unicode="," horiz-adv-x="282" d="M186 20q-3 -20 -23 -20q-21 0 -18 20q3 21 23 21q21 0 18 -21zM173 -56q-3 -19 -21 -19q-19 0 -16 19q3 18 21 18q19 0 16 -18zM59 20q-3 -20 -24 -20t-18 20q3 21 24 21t18 -21zM33 -130q-2 -17 -19 -17q-16 0 -14 17q2 16 19 16q16 0 14 -16z" />
<glyph unicode="-" horiz-adv-x="533" d="M437 189q-4 -27 -31 -27t-23 27t31 27t23 -27zM309 189q-4 -27 -30 -27q-28 0 -24 27t31 27t23 -27zM182 189q-4 -27 -31 -27t-23 27t30 27q28 0 24 -27zM54 189q-4 -27 -31 -27t-23 27t31 27t23 -27z" />
<glyph unicode="." horiz-adv-x="265" d="M169 20q-3 -20 -24 -20q-20 0 -17 20q3 21 23 21q21 0 18 -21zM41 20q-3 -20 -23 -20q-21 0 -18 20q3 21 24 21q20 0 17 -21z" />
<glyph unicode="/" horiz-adv-x="879" d="M783 534q-3 -21 -20.5 -36.5t-38.5 -15.5t-34.5 15.5t-10.5 36.5t20.5 36.5t38.5 15.5t34.5 -15.5t10.5 -36.5zM655 534q-3 -21 -20.5 -36.5t-38.5 -15.5t-34 15.5t-10 36.5t20.5 36.5t38.5 15.5t34 -15.5t10 -36.5zM757 406q-3 -18 -17.5 -31t-32.5 -13t-29.5 13 t-8.5 31t17.5 31t32.5 13t29.5 -13t8.5 -31zM629 406q-3 -18 -17.5 -31t-32.5 -13t-29 13t-8 31t17.5 31t32.5 13t29 -13t8 -31zM502 406q-3 -18 -17.5 -31t-32.5 -13t-29.5 13t-8.5 31t17.5 31t32.5 13t29.5 -13t8.5 -31zM607 291q-2 -15 -15 -26t-28 -11t-24.5 11t-7.5 26 t15 26.5t28 11.5t24.5 -11.5t7.5 -26.5zM479 291q-2 -15 -15 -26t-28 -11t-24.5 11t-7.5 26t15 26.5t28 11.5t24.5 -11.5t7.5 -26.5zM454 189q-4 -27 -30 -27q-28 0 -24 27t31 27t23 -27zM351 291q-2 -15 -14.5 -26t-27.5 -11t-24.5 11t-7.5 26q2 16 14.5 27t27.5 11 t24.5 -11.5t7.5 -26.5zM327 189q-4 -27 -31 -27t-23 27t30 27q28 0 24 -27zM311 103q-3 -23 -27 -23q-22 0 -19 23t26 23t20 -23zM199 189q-4 -27 -31 -27t-23 27t31 27t23 -27zM183 103q-3 -23 -26 -23t-20 23t26 23t20 -23zM169 20q-3 -20 -24 -20q-20 0 -17 20 q3 21 23 21q21 0 18 -21zM55 103q-3 -23 -26 -23t-20 23t27 23q22 0 19 -23zM41 20q-3 -20 -23 -20q-21 0 -18 20q3 21 24 21q20 0 17 -21z" />
<glyph unicode="0" horiz-adv-x="1099" d="M901 534q-3 -21 -20.5 -36.5t-38.5 -15.5t-34 15.5t-10 36.5t20.5 36.5t38.5 15.5t34 -15.5t10 -36.5zM1003 406q-3 -18 -17.5 -31t-32.5 -13t-29.5 13t-8.5 31t17.5 31t32.5 13t29.5 -13t8.5 -31zM773 534q-3 -21 -20.5 -36.5t-38.5 -15.5t-34 15.5t-10 36.5t20.5 36.5 t38.5 15.5t34 -15.5t10 -36.5zM875 406q-3 -18 -17.5 -31t-32.5 -13t-29 13t-8 31t17.5 31t32.5 13t29 -13t8 -31zM980 291q-2 -15 -14.5 -26t-27.5 -11t-24.5 11t-7.5 26q2 16 14.5 27t27.5 11t24.5 -11.5t7.5 -26.5zM646 534q-3 -21 -20.5 -36.5t-38.5 -15.5t-34.5 15.5 t-10.5 36.5t20.5 36.5t38.5 15.5t34.5 -15.5t10.5 -36.5zM956 189q-4 -27 -31 -27t-23 27t30 27q28 0 24 -27zM853 291q-2 -15 -15 -26t-28 -11t-24.5 11t-7.5 26t15 26.5t28 11.5t24.5 -11.5t7.5 -26.5zM940 103q-3 -23 -27 -23q-22 0 -19 23t26 23t20 -23zM518 534 q-3 -21 -20.5 -36.5t-38.5 -15.5t-34 15.5t-10 36.5t20.5 36.5t38.5 15.5t34 -15.5t10 -36.5zM828 189q-4 -27 -31 -27t-23 27t31 27t23 -27zM812 103q-3 -23 -26 -23t-20 23t26 23t20 -23zM390 534q-3 -21 -20.5 -36.5t-38.5 -15.5t-34 15.5t-10 36.5t20.5 36.5t38.5 15.5 t34 -15.5t10 -36.5zM597 291q-2 -15 -14.5 -26t-27.5 -11t-24.5 11t-7.5 26q2 16 14.5 27t27.5 11t24.5 -11.5t7.5 -26.5zM798 20q-3 -20 -24 -20q-20 0 -17 20q3 21 23 21q21 0 18 -21zM263 534q-3 -21 -20.5 -36.5t-38.5 -15.5t-34.5 15.5t-10.5 36.5t20.5 36.5t38.5 15.5 t34.5 -15.5t10.5 -36.5zM573 189q-4 -27 -31 -27t-23 27t30 27q28 0 24 -27zM470 291q-2 -15 -15 -26t-28 -11t-24.5 11t-7.5 26t15 26.5t28 11.5t24.5 -11.5t7.5 -26.5zM670 20q-3 -20 -23 -20q-21 0 -18 20q3 21 24 21q20 0 17 -21zM445 189q-4 -27 -31 -27t-23 27t31 27 t23 -27zM237 406q-3 -18 -17.5 -31t-32.5 -13t-29.5 13t-8.5 31t17.5 31t32.5 13t29.5 -13t8.5 -31zM543 20q-3 -20 -24 -20t-18 20q3 21 24 21t18 -21zM109 406q-3 -18 -17.5 -31t-32.5 -13t-29 13t-8 31t17.5 31t32.5 13t29 -13t8 -31zM214 291q-2 -15 -14.5 -26 t-27.5 -11t-24.5 11t-7.5 26q2 16 14.5 27t27.5 11t24.5 -11.5t7.5 -26.5zM415 20q-3 -20 -24 -20q-20 0 -17 20q3 21 23 21q21 0 18 -21zM190 189q-4 -27 -31 -27t-23 27t30 27q28 0 24 -27zM87 291q-2 -15 -15 -26t-28 -11t-24.5 11t-7.5 26t15 26.5t28 11.5t24.5 -11.5 t7.5 -26.5zM287 20q-3 -20 -23 -20q-21 0 -18 20q3 21 24 21q20 0 17 -21zM174 103q-3 -23 -27 -23q-22 0 -19 23t26 23t20 -23zM62 189q-4 -27 -31 -27t-23 27t31 27t23 -27zM160 20q-3 -20 -24 -20t-18 20q3 21 24 21t18 -21zM46 103q-3 -23 -26 -23t-20 23t26 23t20 -23z " />
<glyph unicode="1" horiz-adv-x="594" d="M497 534q-3 -21 -20.5 -36.5t-38.5 -15.5t-34 15.5t-10 36.5t20.5 36.5t38.5 15.5t34 -15.5t10 -36.5zM369 534q-3 -21 -20.5 -36.5t-38.5 -15.5t-34 15.5t-10 36.5t20.5 36.5t38.5 15.5t34 -15.5t10 -36.5zM471 406q-3 -18 -17.5 -31t-32.5 -13t-29.5 13t-8.5 31t18 31 t33 13t29 -13t8 -31zM242 534q-3 -21 -20.5 -36.5t-38.5 -15.5t-34.5 15.5t-10.5 36.5t20.5 36.5t38.5 15.5t34.5 -15.5t10.5 -36.5zM344 406q-3 -18 -17.5 -31t-32.5 -13t-29.5 13t-8.5 31t17.5 31t32.5 13t29.5 -13t8.5 -31zM449 291q-2 -15 -15 -26t-28 -11t-24.5 11 t-7.5 26q2 16 14.5 27t27.5 11t25 -11.5t8 -26.5zM424 189q-4 -27 -31 -27t-23 27t31 27t23 -27zM216 406q-3 -18 -17.5 -31t-32.5 -13t-29.5 13t-8.5 31t17.5 31t32.5 13t29.5 -13t8.5 -31zM321 291q-2 -15 -15 -26t-28 -11t-24.5 11t-7.5 26t15 26.5t28 11.5t24.5 -11.5 t7.5 -26.5zM408 103q-3 -23 -26 -23t-20 23t26 23t20 -23zM296 189q-4 -27 -31 -27t-23 27t31 27t23 -27zM88 406q-3 -18 -17.5 -31t-32.5 -13t-29.5 13t-8.5 31t18 31t33 13t29 -13t8 -31zM394 20q-3 -20 -24 -20q-20 0 -17 20q3 21 23 21q21 0 18 -21zM280 103 q-3 -23 -26 -23t-20 23t26 23t20 -23zM266 20q-3 -20 -23 -20q-21 0 -18 20q3 21 23 21q21 0 18 -21z" />
<glyph unicode="2" horiz-adv-x="981" d="M783 534q-3 -21 -20.5 -36.5t-38.5 -15.5t-34.5 15.5t-10.5 36.5t20.5 36.5t38.5 15.5t34.5 -15.5t10.5 -36.5zM885 406q-3 -18 -17.5 -31t-32.5 -13t-29.5 13t-8.5 31t17.5 31t32.5 13t29.5 -13t8.5 -31zM655 534q-3 -21 -20.5 -36.5t-38.5 -15.5t-34 15.5t-10 36.5 t20.5 36.5t38.5 15.5t34 -15.5t10 -36.5zM757 406q-3 -18 -17.5 -31t-32.5 -13t-29.5 13t-8.5 31t17.5 31t32.5 13t29.5 -13t8.5 -31zM862 291q-2 -15 -15 -26t-28 -11t-24.5 11t-7.5 26t15 26.5t28 11.5t24.5 -11.5t7.5 -26.5zM527 534q-3 -21 -20.5 -36.5t-38.5 -15.5 t-34 15.5t-10 36.5t20.5 36.5t38.5 15.5t34 -15.5t10 -36.5zM734 291q-2 -15 -14.5 -26t-27.5 -11t-24.5 11t-7.5 26q2 16 14.5 27t27.5 11t24.5 -11.5t7.5 -26.5zM821 103q-3 -23 -26 -23t-20 23t26 23t20 -23zM400 534q-3 -21 -20.5 -36.5t-38.5 -15.5t-34.5 15.5 t-10.5 36.5t20.5 36.5t38.5 15.5t34.5 -15.5t10.5 -36.5zM607 291q-2 -15 -15 -26t-28 -11t-24.5 11t-7.5 26t15 26.5t28 11.5t24.5 -11.5t7.5 -26.5zM807 20q-3 -20 -23 -20q-21 0 -18 20q3 21 24 21q20 0 17 -21zM694 103q-3 -23 -27 -23q-22 0 -19 23t26 23t20 -23z M272 534q-3 -21 -20.5 -36.5t-38.5 -15.5t-34 15.5t-10 36.5t20.5 36.5t38.5 15.5t34 -15.5t10 -36.5zM479 291q-2 -15 -15 -26t-28 -11t-24.5 11t-7.5 26t15 26.5t28 11.5t24.5 -11.5t7.5 -26.5zM680 20q-3 -20 -24 -20t-18 20q3 21 24 21t18 -21zM351 291 q-2 -15 -14.5 -26t-27.5 -11t-24.5 11t-7.5 26q2 16 14.5 27t27.5 11t24.5 -11.5t7.5 -26.5zM552 20q-3 -20 -24 -20q-20 0 -17 20q3 21 23 21q21 0 18 -21zM224 291q-2 -15 -15 -26t-28 -11t-24.5 11t-7.5 26t15 26.5t28 11.5t24.5 -11.5t7.5 -26.5zM424 20q-3 -20 -23 -20 q-21 0 -18 20q3 21 24 21q20 0 17 -21zM199 189q-4 -27 -31 -27t-23 27t31 27t23 -27zM297 20q-3 -20 -24 -20t-18 20q3 21 24 21t18 -21zM183 103q-3 -23 -26 -23t-20 23t26 23t20 -23zM71 189q-4 -27 -30 -27q-28 0 -24 27t31 27t23 -27zM169 20q-3 -20 -24 -20 q-20 0 -17 20q3 21 23 21q21 0 18 -21zM55 103q-3 -23 -26 -23t-20 23t27 23q22 0 19 -23zM41 20q-3 -20 -23 -20q-21 0 -18 20q3 21 24 21q20 0 17 -21z" />
<glyph unicode="3" horiz-adv-x="981" d="M783 534q-3 -21 -20.5 -36.5t-38.5 -15.5t-34.5 15.5t-10.5 36.5t20.5 36.5t38.5 15.5t34.5 -15.5t10.5 -36.5zM885 406q-3 -18 -17.5 -31t-32.5 -13t-29.5 13t-8.5 31t17.5 31t32.5 13t29.5 -13t8.5 -31zM655 534q-3 -21 -20.5 -36.5t-38.5 -15.5t-34 15.5t-10 36.5 t20.5 36.5t38.5 15.5t34 -15.5t10 -36.5zM757 406q-3 -18 -17.5 -31t-32.5 -13t-29.5 13t-8.5 31t17.5 31t32.5 13t29.5 -13t8.5 -31zM862 291q-2 -15 -15 -26t-28 -11t-24.5 11t-7.5 26t15 26.5t28 11.5t24.5 -11.5t7.5 -26.5zM527 534q-3 -21 -20.5 -36.5t-38.5 -15.5 t-34 15.5t-10 36.5t20.5 36.5t38.5 15.5t34 -15.5t10 -36.5zM837 189q-4 -27 -30 -27q-28 0 -24 27t31 27t23 -27zM734 291q-2 -15 -14.5 -26t-27.5 -11t-24.5 11t-7.5 26q2 16 14.5 27t27.5 11t24.5 -11.5t7.5 -26.5zM821 103q-3 -23 -26 -23t-20 23t26 23t20 -23zM400 534 q-3 -21 -20.5 -36.5t-38.5 -15.5t-34.5 15.5t-10.5 36.5t20.5 36.5t38.5 15.5t34.5 -15.5t10.5 -36.5zM710 189q-4 -27 -31 -27t-23 27t30 27q28 0 24 -27zM607 291q-2 -15 -15 -26t-28 -11t-24.5 11t-7.5 26t15 26.5t28 11.5t24.5 -11.5t7.5 -26.5zM694 103q-3 -23 -27 -23 q-22 0 -19 23t26 23t20 -23zM272 534q-3 -21 -20.5 -36.5t-38.5 -15.5t-34 15.5t-10 36.5t20.5 36.5t38.5 15.5t34 -15.5t10 -36.5zM479 291q-2 -15 -15 -26t-28 -11t-24.5 11t-7.5 26t15 26.5t28 11.5t24.5 -11.5t7.5 -26.5zM680 20q-3 -20 -24 -20t-18 20q3 21 24 21 t18 -21zM144 534q-3 -21 -20.5 -36.5t-38.5 -15.5t-34 15.5t-10 36.5t20.5 36.5t38.5 15.5t34 -15.5t10 -36.5zM351 291q-2 -15 -14.5 -26t-27.5 -11t-24.5 11t-7.5 26q2 16 14.5 27t27.5 11t24.5 -11.5t7.5 -26.5zM552 20q-3 -20 -24 -20q-20 0 -17 20q3 21 23 21 q21 0 18 -21zM224 291q-2 -15 -15 -26t-28 -11t-24.5 11t-7.5 26t15 26.5t28 11.5t24.5 -11.5t7.5 -26.5zM424 20q-3 -20 -23 -20q-21 0 -18 20q3 21 24 21q20 0 17 -21zM297 20q-3 -20 -24 -20t-18 20q3 21 24 21t18 -21zM169 20q-3 -20 -24 -20q-20 0 -17 20q3 21 23 21 q21 0 18 -21zM41 20q-3 -20 -23 -20q-21 0 -18 20q3 21 24 21q20 0 17 -21z" />
<glyph unicode="4" horiz-adv-x="916" d="M765 534q-3 -21 -20.5 -36.5t-38.5 -15.5t-34 15.5t-10 36.5t20.5 36.5t38.5 15.5t34 -15.5t10 -36.5zM638 534q-3 -21 -20.5 -36.5t-38.5 -15.5t-34.5 15.5t-10.5 36.5t20.5 36.5t38.5 15.5t34.5 -15.5t10.5 -36.5zM740 406q-3 -18 -17.5 -31t-32.5 -13t-29.5 13 t-8.5 31t17.5 31t32.5 13t29.5 -13t8.5 -31zM510 534q-3 -21 -20.5 -36.5t-38.5 -15.5t-34 15.5t-10 36.5t20.5 36.5t38.5 15.5t34 -15.5t10 -36.5zM820 189q-4 -27 -31 -27t-23 27t31 27t23 -27zM612 406q-3 -18 -17.5 -31t-32.5 -13t-29.5 13t-8.5 31t17.5 31t32.5 13 t29.5 -13t8.5 -31zM717 291q-2 -15 -15 -26t-28 -11t-24.5 11t-7.5 26t15 26.5t28 11.5t24.5 -11.5t7.5 -26.5zM382 534q-3 -21 -20.5 -36.5t-38.5 -15.5t-34 15.5t-10 36.5t20.5 36.5t38.5 15.5t34 -15.5t10 -36.5zM692 189q-4 -27 -30 -27q-28 0 -24 27t31 27t23 -27z M589 291q-2 -15 -14.5 -26t-27.5 -11t-24.5 11t-7.5 26q2 16 14.5 27t27.5 11t24.5 -11.5t7.5 -26.5zM676 103q-3 -23 -26 -23t-20 23t26 23t20 -23zM565 189q-4 -27 -31 -27t-23 27t30 27q28 0 24 -27zM357 406q-3 -18 -17.5 -31t-32.5 -13t-29.5 13t-8.5 31t17.5 31 t32.5 13t29.5 -13t8.5 -31zM662 20q-3 -20 -23 -20q-21 0 -18 20q3 21 24 21q20 0 17 -21zM549 103q-3 -23 -27 -23q-22 0 -19 23t26 23t20 -23zM437 189q-4 -27 -31 -27t-23 27t31 27t23 -27zM229 406q-3 -18 -17.5 -31t-32.5 -13t-29.5 13t-8.5 31t17.5 31t32.5 13 t29.5 -13t8.5 -31zM535 20q-3 -20 -24 -20t-18 20q3 21 24 21t18 -21zM309 189q-4 -27 -30 -27q-28 0 -24 27t31 27t23 -27zM206 291q-2 -15 -14.5 -26t-27.5 -11t-24.5 11t-7.5 26q2 16 14.5 27t27.5 11t24.5 -11.5t7.5 -26.5zM182 189q-4 -27 -31 -27t-23 27t30 27 q28 0 24 -27zM79 291q-2 -15 -15 -26t-28 -11t-24.5 11t-7.5 26t15 26.5t28 11.5t24.5 -11.5t7.5 -26.5zM54 189q-4 -27 -31 -27t-23 27t31 27t23 -27z" />
<glyph unicode="5" horiz-adv-x="998" d="M901 534q-3 -21 -20.5 -36.5t-38.5 -15.5t-34 15.5t-10 36.5t20.5 36.5t38.5 15.5t34 -15.5t10 -36.5zM773 534q-3 -21 -20.5 -36.5t-38.5 -15.5t-34 15.5t-10 36.5t20.5 36.5t38.5 15.5t34 -15.5t10 -36.5zM646 534q-3 -21 -20.5 -36.5t-38.5 -15.5t-34.5 15.5 t-10.5 36.5t20.5 36.5t38.5 15.5t34.5 -15.5t10.5 -36.5zM853 291q-2 -15 -15 -26t-28 -11t-24.5 11t-7.5 26t15 26.5t28 11.5t24.5 -11.5t7.5 -26.5zM518 534q-3 -21 -20.5 -36.5t-38.5 -15.5t-34 15.5t-10 36.5t20.5 36.5t38.5 15.5t34 -15.5t10 -36.5zM828 189 q-4 -27 -31 -27t-23 27t31 27t23 -27zM725 291q-2 -15 -15 -26t-28 -11t-24.5 11t-7.5 26t15 26.5t28 11.5t24.5 -11.5t7.5 -26.5zM812 103q-3 -23 -26 -23t-20 23t26 23t20 -23zM390 534q-3 -21 -20.5 -36.5t-38.5 -15.5t-34 15.5t-10 36.5t20.5 36.5t38.5 15.5t34 -15.5 t10 -36.5zM700 189q-4 -27 -30 -27q-28 0 -24 27t31 27t23 -27zM597 291q-2 -15 -14.5 -26t-27.5 -11t-24.5 11t-7.5 26q2 16 14.5 27t27.5 11t24.5 -11.5t7.5 -26.5zM684 103q-3 -23 -26 -23t-20 23t26 23t20 -23zM263 534q-3 -21 -20.5 -36.5t-38.5 -15.5t-34.5 15.5 t-10.5 36.5t20.5 36.5t38.5 15.5t34.5 -15.5t10.5 -36.5zM470 291q-2 -15 -15 -26t-28 -11t-24.5 11t-7.5 26t15 26.5t28 11.5t24.5 -11.5t7.5 -26.5zM670 20q-3 -20 -23 -20q-21 0 -18 20q3 21 24 21q20 0 17 -21zM135 534q-3 -21 -20.5 -36.5t-38.5 -15.5t-34 15.5 t-10 36.5t20.5 36.5t38.5 15.5t34 -15.5t10 -36.5zM237 406q-3 -18 -17.5 -31t-32.5 -13t-29.5 13t-8.5 31t17.5 31t32.5 13t29.5 -13t8.5 -31zM342 291q-2 -15 -15 -26t-28 -11t-24.5 11t-7.5 26t15 26.5t28 11.5t24.5 -11.5t7.5 -26.5zM543 20q-3 -20 -24 -20t-18 20 q3 21 24 21t18 -21zM109 406q-3 -18 -17.5 -31t-32.5 -13t-29 13t-8 31t17.5 31t32.5 13t29 -13t8 -31zM214 291q-2 -15 -14.5 -26t-27.5 -11t-24.5 11t-7.5 26q2 16 14.5 27t27.5 11t24.5 -11.5t7.5 -26.5zM415 20q-3 -20 -24 -20q-20 0 -17 20q3 21 23 21q21 0 18 -21z M87 291q-2 -15 -15 -26t-28 -11t-24.5 11t-7.5 26t15 26.5t28 11.5t24.5 -11.5t7.5 -26.5zM287 20q-3 -20 -23 -20q-21 0 -18 20q3 21 24 21q20 0 17 -21zM174 103q-3 -23 -27 -23q-22 0 -19 23t26 23t20 -23zM160 20q-3 -20 -24 -20t-18 20q3 21 24 21t18 -21zM46 103 q-3 -23 -26 -23t-20 23t26 23t20 -23z" />
<glyph unicode="6" horiz-adv-x="924" d="M773 534q-3 -21 -20.5 -36.5t-38.5 -15.5t-34 15.5t-10 36.5t20.5 36.5t38.5 15.5t34 -15.5t10 -36.5zM646 534q-3 -21 -20.5 -36.5t-38.5 -15.5t-34.5 15.5t-10.5 36.5t20.5 36.5t38.5 15.5t34.5 -15.5t10.5 -36.5zM518 534q-3 -21 -20.5 -36.5t-38.5 -15.5t-34 15.5 t-10 36.5t20.5 36.5t38.5 15.5t34 -15.5t10 -36.5zM828 189q-4 -27 -31 -27t-23 27t31 27t23 -27zM725 291q-2 -15 -15 -26t-28 -11t-24.5 11t-7.5 26t15 26.5t28 11.5t24.5 -11.5t7.5 -26.5zM812 103q-3 -23 -26 -23t-20 23t26 23t20 -23zM390 534q-3 -21 -20.5 -36.5 t-38.5 -15.5t-34 15.5t-10 36.5t20.5 36.5t38.5 15.5t34 -15.5t10 -36.5zM700 189q-4 -27 -30 -27q-28 0 -24 27t31 27t23 -27zM597 291q-2 -15 -14.5 -26t-27.5 -11t-24.5 11t-7.5 26q2 16 14.5 27t27.5 11t24.5 -11.5t7.5 -26.5zM684 103q-3 -23 -26 -23t-20 23t26 23 t20 -23zM263 534q-3 -21 -20.5 -36.5t-38.5 -15.5t-34.5 15.5t-10.5 36.5t20.5 36.5t38.5 15.5t34.5 -15.5t10.5 -36.5zM470 291q-2 -15 -15 -26t-28 -11t-24.5 11t-7.5 26t15 26.5t28 11.5t24.5 -11.5t7.5 -26.5zM670 20q-3 -20 -23 -20q-21 0 -18 20q3 21 24 21 q20 0 17 -21zM237 406q-3 -18 -17.5 -31t-32.5 -13t-29.5 13t-8.5 31t17.5 31t32.5 13t29.5 -13t8.5 -31zM342 291q-2 -15 -15 -26t-28 -11t-24.5 11t-7.5 26t15 26.5t28 11.5t24.5 -11.5t7.5 -26.5zM543 20q-3 -20 -24 -20t-18 20q3 21 24 21t18 -21zM109 406 q-3 -18 -17.5 -31t-32.5 -13t-29 13t-8 31t17.5 31t32.5 13t29 -13t8 -31zM214 291q-2 -15 -14.5 -26t-27.5 -11t-24.5 11t-7.5 26q2 16 14.5 27t27.5 11t24.5 -11.5t7.5 -26.5zM415 20q-3 -20 -24 -20q-20 0 -17 20q3 21 23 21q21 0 18 -21zM190 189q-4 -27 -31 -27t-23 27 t30 27q28 0 24 -27zM87 291q-2 -15 -15 -26t-28 -11t-24.5 11t-7.5 26t15 26.5t28 11.5t24.5 -11.5t7.5 -26.5zM287 20q-3 -20 -23 -20q-21 0 -18 20q3 21 24 21q20 0 17 -21zM174 103q-3 -23 -27 -23q-22 0 -19 23t26 23t20 -23zM62 189q-4 -27 -31 -27t-23 27t31 27 t23 -27zM160 20q-3 -20 -24 -20t-18 20q3 21 24 21t18 -21zM46 103q-3 -23 -26 -23t-20 23t26 23t20 -23z" />
<glyph unicode="7" horiz-adv-x="839" d="M742 534q-3 -21 -20.5 -36.5t-38.5 -15.5t-34 15.5t-10 36.5t20.5 36.5t38.5 15.5t34 -15.5t10 -36.5zM615 534q-3 -21 -20.5 -36.5t-38.5 -15.5t-34.5 15.5t-10.5 36.5t20.5 36.5t38.5 15.5t34.5 -15.5t10.5 -36.5zM717 406q-3 -18 -18 -31t-33 -13t-29 13t-8 31 t17.5 31t32.5 13t29.5 -13t8.5 -31zM487 534q-3 -21 -20.5 -36.5t-38.5 -15.5t-34 15.5t-10 36.5t20 36.5t38 15.5t34.5 -15.5t10.5 -36.5zM589 406q-3 -18 -17.5 -31t-32.5 -13t-29.5 13t-8.5 31t17.5 31t32.5 13t29.5 -13t8.5 -31zM359 534q-3 -21 -20.5 -36.5 t-38.5 -15.5t-34 15.5t-10 36.5t20.5 36.5t38.5 15.5t34 -15.5t10 -36.5zM566 291q-2 -15 -14.5 -26t-27.5 -11q-16 0 -25.5 11t-7.5 26t15 26.5t28 11.5t24.5 -11.5t7.5 -26.5zM232 534q-3 -21 -20.5 -36.5t-38.5 -15.5t-34.5 15.5t-10.5 36.5t20.5 36.5t38.5 15.5 t34.5 -15.5t10.5 -36.5zM439 291q-2 -15 -15 -26t-28 -11t-24.5 11t-7.5 26q2 16 14.5 27t27.5 11t25 -11.5t8 -26.5zM104 534q-3 -21 -20.5 -36.5t-38.5 -15.5t-34 15.5t-10 36.5t20 36.5t38 15.5t34.5 -15.5t10.5 -36.5zM414 189q-4 -27 -31 -27t-23 27t31 27t23 -27z M398 103q-3 -23 -26 -23t-20 23t26 23t20 -23zM286 189q-4 -27 -31 -27t-23 27t31 27t23 -27zM384 20q-3 -20 -24 -20t-18 20q3 21 24 21t18 -21zM270 103q-3 -23 -26 -23t-20 23t26 23t20 -23zM256 20q-3 -20 -23 -20q-21 0 -18 20q3 21 23 21q21 0 18 -21z" />
<glyph unicode="8" d="M773 534q-3 -21 -20.5 -36.5t-38.5 -15.5t-34 15.5t-10 36.5t20.5 36.5t38.5 15.5t34 -15.5t10 -36.5zM875 406q-3 -18 -17.5 -31t-32.5 -13t-29 13t-8 31t17.5 31t32.5 13t29 -13t8 -31zM646 534q-3 -21 -20.5 -36.5t-38.5 -15.5t-34.5 15.5t-10.5 36.5t20.5 36.5 t38.5 15.5t34.5 -15.5t10.5 -36.5zM748 406q-3 -18 -17.5 -31t-32.5 -13t-29.5 13t-8.5 31t17.5 31t32.5 13t29.5 -13t8.5 -31zM518 534q-3 -21 -20.5 -36.5t-38.5 -15.5t-34 15.5t-10 36.5t20.5 36.5t38.5 15.5t34 -15.5t10 -36.5zM828 189q-4 -27 -31 -27t-23 27t31 27 t23 -27zM725 291q-2 -15 -15 -26t-28 -11t-24.5 11t-7.5 26t15 26.5t28 11.5t24.5 -11.5t7.5 -26.5zM812 103q-3 -23 -26 -23t-20 23t26 23t20 -23zM390 534q-3 -21 -20.5 -36.5t-38.5 -15.5t-34 15.5t-10 36.5t20.5 36.5t38.5 15.5t34 -15.5t10 -36.5zM700 189 q-4 -27 -30 -27q-28 0 -24 27t31 27t23 -27zM597 291q-2 -15 -14.5 -26t-27.5 -11t-24.5 11t-7.5 26q2 16 14.5 27t27.5 11t24.5 -11.5t7.5 -26.5zM684 103q-3 -23 -26 -23t-20 23t26 23t20 -23zM263 534q-3 -21 -20.5 -36.5t-38.5 -15.5t-34.5 15.5t-10.5 36.5t20.5 36.5 t38.5 15.5t34.5 -15.5t10.5 -36.5zM470 291q-2 -15 -15 -26t-28 -11t-24.5 11t-7.5 26t15 26.5t28 11.5t24.5 -11.5t7.5 -26.5zM670 20q-3 -20 -23 -20q-21 0 -18 20q3 21 24 21q20 0 17 -21zM237 406q-3 -18 -17.5 -31t-32.5 -13t-29.5 13t-8.5 31t17.5 31t32.5 13 t29.5 -13t8.5 -31zM342 291q-2 -15 -15 -26t-28 -11t-24.5 11t-7.5 26t15 26.5t28 11.5t24.5 -11.5t7.5 -26.5zM543 20q-3 -20 -24 -20t-18 20q3 21 24 21t18 -21zM109 406q-3 -18 -17.5 -31t-32.5 -13t-29 13t-8 31t17.5 31t32.5 13t29 -13t8 -31zM214 291 q-2 -15 -14.5 -26t-27.5 -11t-24.5 11t-7.5 26q2 16 14.5 27t27.5 11t24.5 -11.5t7.5 -26.5zM415 20q-3 -20 -24 -20q-20 0 -17 20q3 21 23 21q21 0 18 -21zM190 189q-4 -27 -31 -27t-23 27t30 27q28 0 24 -27zM287 20q-3 -20 -23 -20q-21 0 -18 20q3 21 24 21q20 0 17 -21z M174 103q-3 -23 -27 -23q-22 0 -19 23t26 23t20 -23zM62 189q-4 -27 -31 -27t-23 27t31 27t23 -27zM160 20q-3 -20 -24 -20t-18 20q3 21 24 21t18 -21zM46 103q-3 -23 -26 -23t-20 23t26 23t20 -23z" />
<glyph unicode="9" horiz-adv-x="959" d="M761 534q-3 -21 -20.5 -36.5t-38.5 -15.5t-34 15.5t-10 36.5t20.5 36.5t38.5 15.5t34 -15.5t10 -36.5zM863 406q-3 -18 -17.5 -31t-32.5 -13t-29 13t-8 31t17.5 31t32.5 13t29 -13t8 -31zM634 534q-3 -21 -20.5 -36.5t-38.5 -15.5t-34.5 15.5t-10.5 36.5t20.5 36.5 t38.5 15.5t34.5 -15.5t10.5 -36.5zM736 406q-3 -18 -17.5 -31t-32.5 -13t-29.5 13t-8.5 31t17.5 31t32.5 13t29.5 -13t8.5 -31zM841 291q-2 -15 -15 -26t-28 -11t-24.5 11t-7.5 26t15 26.5t28 11.5t24.5 -11.5t7.5 -26.5zM506 534q-3 -21 -20.5 -36.5t-38.5 -15.5t-34 15.5 t-10 36.5t20.5 36.5t38.5 15.5t34 -15.5t10 -36.5zM816 189q-4 -27 -31 -27t-23 27t31 27t23 -27zM713 291q-2 -15 -15 -26t-28 -11t-24.5 11t-7.5 26t15 26.5t28 11.5t24.5 -11.5t7.5 -26.5zM800 103q-3 -23 -26 -23t-20 23t26 23t20 -23zM378 534q-3 -21 -20.5 -36.5 t-38.5 -15.5t-34 15.5t-10 36.5t20.5 36.5t38.5 15.5t34 -15.5t10 -36.5zM688 189q-4 -27 -30 -27q-28 0 -24 27t31 27t23 -27zM672 103q-3 -23 -26 -23t-20 23t26 23t20 -23zM251 534q-3 -21 -20.5 -36.5t-38.5 -15.5t-34.5 15.5t-10.5 36.5t20.5 36.5t38.5 15.5 t34.5 -15.5t10.5 -36.5zM561 189q-4 -27 -31 -27t-23 27t30 27q28 0 24 -27zM658 20q-3 -20 -23 -20q-21 0 -18 20q3 21 24 21q20 0 17 -21zM433 189q-4 -27 -31 -27t-23 27t31 27t23 -27zM225 406q-3 -18 -17.5 -31t-32.5 -13t-29.5 13t-8.5 31t17.5 31t32.5 13t29.5 -13 t8.5 -31zM531 20q-3 -20 -24 -20t-18 20q3 21 24 21t18 -21zM305 189q-4 -27 -30 -27q-28 0 -24 27t31 27t23 -27zM97 406q-3 -18 -17.5 -31t-32.5 -13t-29 13t-8 31t17.5 31t32.5 13t29 -13t8 -31zM202 291q-2 -15 -14.5 -26t-27.5 -11t-24.5 11t-7.5 26q2 16 14.5 27 t27.5 11t24.5 -11.5t7.5 -26.5zM403 20q-3 -20 -24 -20q-20 0 -17 20q3 21 23 21q21 0 18 -21zM178 189q-4 -27 -31 -27t-23 27t30 27q28 0 24 -27zM75 291q-2 -15 -15 -26t-28 -11t-24.5 11t-7.5 26t15 26.5t28 11.5t24.5 -11.5t7.5 -26.5zM275 20q-3 -20 -23 -20 q-21 0 -18 20q3 21 24 21q20 0 17 -21zM148 20q-3 -20 -24 -20t-18 20q3 21 24 21t18 -21z" />
<glyph unicode=":" horiz-adv-x="320" d="M224 291q-2 -15 -15 -26t-28 -11t-24.5 11t-7.5 26t15 26.5t28 11.5t24.5 -11.5t7.5 -26.5zM96 291q-2 -15 -15 -26t-28 -11t-24.5 11t-7.5 26t15 26.5t28 11.5t24.5 -11.5t7.5 -26.5zM169 20q-3 -20 -24 -20q-20 0 -17 20q3 21 23 21q21 0 18 -21zM41 20q-3 -20 -23 -20 q-21 0 -18 20q3 21 24 21q20 0 17 -21z" />
<glyph unicode=";" horiz-adv-x="337" d="M241 291q-2 -15 -15 -26t-28 -11t-24.5 11t-7.5 26t15 26.5t28 11.5t24.5 -11.5t7.5 -26.5zM113 291q-2 -15 -14.5 -26t-27.5 -11t-24.5 11t-7.5 26q2 16 14.5 27t27.5 11t24.5 -11.5t7.5 -26.5zM186 20q-3 -20 -23 -20q-21 0 -18 20q3 21 23 21q21 0 18 -21zM173 -56 q-3 -19 -21 -19q-19 0 -16 19q3 18 21 18q19 0 16 -18zM59 20q-3 -20 -24 -20t-18 20q3 21 24 21t18 -21zM33 -130q-2 -17 -19 -17q-16 0 -14 17q2 16 19 16q16 0 14 -16z" />
<glyph unicode="&#x3c;" horiz-adv-x="479" d="M382 534q-3 -21 -20.5 -36.5t-38.5 -15.5t-34 15.5t-10 36.5t20.5 36.5t38.5 15.5t34 -15.5t10 -36.5zM357 406q-3 -18 -17.5 -31t-32.5 -13t-29.5 13t-8.5 31t17.5 31t32.5 13t29.5 -13t8.5 -31zM229 406q-3 -18 -17.5 -31t-32.5 -13t-29.5 13t-8.5 31t17.5 31t32.5 13 t29.5 -13t8.5 -31zM206 291q-2 -15 -14.5 -26t-27.5 -11t-24.5 11t-7.5 26q2 16 14.5 27t27.5 11t24.5 -11.5t7.5 -26.5zM293 103q-3 -23 -26 -23t-20 23t26 23t20 -23zM182 189q-4 -27 -31 -27t-23 27t30 27q28 0 24 -27zM79 291q-2 -15 -15 -26t-28 -11t-24.5 11t-7.5 26 t15 26.5t28 11.5t24.5 -11.5t7.5 -26.5zM279 20q-3 -20 -23 -20q-21 0 -18 20q3 21 24 21q20 0 17 -21zM166 103q-3 -23 -27 -23q-22 0 -19 23t26 23t20 -23zM54 189q-4 -27 -31 -27t-23 27t31 27t23 -27z" />
<glyph unicode="=" horiz-adv-x="580" d="M484 406q-3 -18 -17.5 -31t-32.5 -13t-29 13t-8 31t17.5 31t32.5 13t29 -13t8 -31zM357 406q-3 -18 -17.5 -31t-32.5 -13t-29.5 13t-8.5 31t17.5 31t32.5 13t29.5 -13t8.5 -31zM437 189q-4 -27 -31 -27t-23 27t31 27t23 -27zM229 406q-3 -18 -17.5 -31t-32.5 -13 t-29.5 13t-8.5 31t17.5 31t32.5 13t29.5 -13t8.5 -31zM309 189q-4 -27 -30 -27q-28 0 -24 27t31 27t23 -27zM101 406q-3 -18 -17.5 -31t-32.5 -13t-29 13t-8 31t17.5 31t32.5 13t29 -13t8 -31zM182 189q-4 -27 -31 -27t-23 27t30 27q28 0 24 -27zM54 189q-4 -27 -31 -27 t-23 27t31 27t23 -27z" />
<glyph unicode="&#x3e;" horiz-adv-x="447" d="M144 534q-3 -21 -20.5 -36.5t-38.5 -15.5t-34 15.5t-10 36.5t20.5 36.5t38.5 15.5t34 -15.5t10 -36.5zM246 406q-3 -18 -17.5 -31t-32.5 -13t-29 13t-8 31t17.5 31t32.5 13t29 -13t8 -31zM351 291q-2 -15 -14.5 -26t-27.5 -11t-24.5 11t-7.5 26q2 16 14.5 27t27.5 11 t24.5 -11.5t7.5 -26.5zM327 189q-4 -27 -31 -27t-23 27t30 27q28 0 24 -27zM119 406q-3 -18 -17.5 -31t-32.5 -13t-29.5 13t-8.5 31t17.5 31t32.5 13t29.5 -13t8.5 -31zM224 291q-2 -15 -15 -26t-28 -11t-24.5 11t-7.5 26t15 26.5t28 11.5t24.5 -11.5t7.5 -26.5zM199 189 q-4 -27 -31 -27t-23 27t31 27t23 -27zM183 103q-3 -23 -26 -23t-20 23t26 23t20 -23zM55 103q-3 -23 -26 -23t-20 23t27 23q22 0 19 -23zM41 20q-3 -20 -23 -20q-21 0 -18 20q3 21 24 21q20 0 17 -21z" />
<glyph unicode="?" horiz-adv-x="813" d="M615 534q-3 -21 -20.5 -36.5t-38.5 -15.5t-34.5 15.5t-10.5 36.5t20.5 36.5t38.5 15.5t34.5 -15.5t10.5 -36.5zM717 406q-3 -18 -18 -31t-33 -13t-29 13t-8 31t17.5 31t32.5 13t29.5 -13t8.5 -31zM487 534q-3 -21 -20.5 -36.5t-38.5 -15.5t-34 15.5t-10 36.5t20 36.5 t38 15.5t34.5 -15.5t10.5 -36.5zM589 406q-3 -18 -17.5 -31t-32.5 -13t-29.5 13t-8.5 31t17.5 31t32.5 13t29.5 -13t8.5 -31zM694 291q-2 -15 -15 -26t-28 -11t-24.5 11t-7.5 26t15 26.5t28 11.5t24.5 -11.5t7.5 -26.5zM359 534q-3 -21 -20.5 -36.5t-38.5 -15.5t-34 15.5 t-10 36.5t20.5 36.5t38.5 15.5t34 -15.5t10 -36.5zM566 291q-2 -15 -14.5 -26t-27.5 -11q-16 0 -25.5 11t-7.5 26t15 26.5t28 11.5t24.5 -11.5t7.5 -26.5zM232 534q-3 -21 -20.5 -36.5t-38.5 -15.5t-34.5 15.5t-10.5 36.5t20.5 36.5t38.5 15.5t34.5 -15.5t10.5 -36.5z M541 189q-4 -27 -30 -27q-28 0 -24 27t31 27t23 -27zM104 534q-3 -21 -20.5 -36.5t-38.5 -15.5t-34 15.5t-10 36.5t20 36.5t38 15.5t34.5 -15.5t10.5 -36.5zM414 189q-4 -27 -31 -27t-23 27t31 27t23 -27zM286 189q-4 -27 -31 -27t-23 27t31 27t23 -27zM158 189 q-4 -27 -30 -27q-28 0 -24 27t31 27t23 -27zM256 20q-3 -20 -23 -20q-21 0 -18 20q3 21 23 21q21 0 18 -21zM128 20q-3 -20 -23 -20q-21 0 -18 20q3 21 24 21q20 0 17 -21z" />
<glyph unicode="@" d="M773 534q-3 -21 -20.5 -36.5t-38.5 -15.5t-34 15.5t-10 36.5t20.5 36.5t38.5 15.5t34 -15.5t10 -36.5zM875 406q-3 -18 -17.5 -31t-32.5 -13t-29 13t-8 31t17.5 31t32.5 13t29 -13t8 -31zM646 534q-3 -21 -20.5 -36.5t-38.5 -15.5t-34.5 15.5t-10.5 36.5t20.5 36.5 t38.5 15.5t34.5 -15.5t10.5 -36.5zM853 291q-2 -15 -15 -26t-28 -11t-24.5 11t-7.5 26t15 26.5t28 11.5t24.5 -11.5t7.5 -26.5zM518 534q-3 -21 -20.5 -36.5t-38.5 -15.5t-34 15.5t-10 36.5t20.5 36.5t38.5 15.5t34 -15.5t10 -36.5zM828 189q-4 -27 -31 -27t-23 27t31 27 t23 -27zM390 534q-3 -21 -20.5 -36.5t-38.5 -15.5t-34 15.5t-10 36.5t20.5 36.5t38.5 15.5t34 -15.5t10 -36.5zM700 189q-4 -27 -30 -27q-28 0 -24 27t31 27t23 -27zM597 291q-2 -15 -14.5 -26t-27.5 -11t-24.5 11t-7.5 26q2 16 14.5 27t27.5 11t24.5 -11.5t7.5 -26.5z M263 534q-3 -21 -20.5 -36.5t-38.5 -15.5t-34.5 15.5t-10.5 36.5t20.5 36.5t38.5 15.5t34.5 -15.5t10.5 -36.5zM573 189q-4 -27 -31 -27t-23 27t30 27q28 0 24 -27zM470 291q-2 -15 -15 -26t-28 -11t-24.5 11t-7.5 26t15 26.5t28 11.5t24.5 -11.5t7.5 -26.5zM670 20 q-3 -20 -23 -20q-21 0 -18 20q3 21 24 21q20 0 17 -21zM445 189q-4 -27 -31 -27t-23 27t31 27t23 -27zM342 291q-2 -15 -15 -26t-28 -11t-24.5 11t-7.5 26t15 26.5t28 11.5t24.5 -11.5t7.5 -26.5zM543 20q-3 -20 -24 -20t-18 20q3 21 24 21t18 -21zM317 189q-4 -27 -30 -27 q-28 0 -24 27t31 27t23 -27zM109 406q-3 -18 -17.5 -31t-32.5 -13t-29 13t-8 31t17.5 31t32.5 13t29 -13t8 -31zM415 20q-3 -20 -24 -20q-20 0 -17 20q3 21 23 21q21 0 18 -21zM87 291q-2 -15 -15 -26t-28 -11t-24.5 11t-7.5 26t15 26.5t28 11.5t24.5 -11.5t7.5 -26.5z M287 20q-3 -20 -23 -20q-21 0 -18 20q3 21 24 21q20 0 17 -21zM62 189q-4 -27 -31 -27t-23 27t31 27t23 -27zM160 20q-3 -20 -24 -20t-18 20q3 21 24 21t18 -21zM46 103q-3 -23 -26 -23t-20 23t26 23t20 -23z" />
<glyph unicode="A" d="M773 534q-3 -21 -20.5 -36.5t-38.5 -15.5t-34 15.5t-10 36.5t20.5 36.5t38.5 15.5t34 -15.5t10 -36.5zM875 406q-3 -18 -17.5 -31t-32.5 -13t-29 13t-8 31t17.5 31t32.5 13t29 -13t8 -31zM646 534q-3 -21 -20.5 -36.5t-38.5 -15.5t-34.5 15.5t-10.5 36.5t20.5 36.5 t38.5 15.5t34.5 -15.5t10.5 -36.5zM748 406q-3 -18 -17.5 -31t-32.5 -13t-29.5 13t-8.5 31t17.5 31t32.5 13t29.5 -13t8.5 -31zM853 291q-2 -15 -15 -26t-28 -11t-24.5 11t-7.5 26t15 26.5t28 11.5t24.5 -11.5t7.5 -26.5zM518 534q-3 -21 -20.5 -36.5t-38.5 -15.5t-34 15.5 t-10 36.5t20.5 36.5t38.5 15.5t34 -15.5t10 -36.5zM828 189q-4 -27 -31 -27t-23 27t31 27t23 -27zM725 291q-2 -15 -15 -26t-28 -11t-24.5 11t-7.5 26t15 26.5t28 11.5t24.5 -11.5t7.5 -26.5zM812 103q-3 -23 -26 -23t-20 23t26 23t20 -23zM390 534q-3 -21 -20.5 -36.5 t-38.5 -15.5t-34 15.5t-10 36.5t20.5 36.5t38.5 15.5t34 -15.5t10 -36.5zM700 189q-4 -27 -30 -27q-28 0 -24 27t31 27t23 -27zM597 291q-2 -15 -14.5 -26t-27.5 -11t-24.5 11t-7.5 26q2 16 14.5 27t27.5 11t24.5 -11.5t7.5 -26.5zM684 103q-3 -23 -26 -23t-20 23t26 23 t20 -23zM263 534q-3 -21 -20.5 -36.5t-38.5 -15.5t-34.5 15.5t-10.5 36.5t20.5 36.5t38.5 15.5t34.5 -15.5t10.5 -36.5zM470 291q-2 -15 -15 -26t-28 -11t-24.5 11t-7.5 26t15 26.5t28 11.5t24.5 -11.5t7.5 -26.5zM670 20q-3 -20 -23 -20q-21 0 -18 20q3 21 24 21 q20 0 17 -21zM342 291q-2 -15 -15 -26t-28 -11t-24.5 11t-7.5 26t15 26.5t28 11.5t24.5 -11.5t7.5 -26.5zM543 20q-3 -20 -24 -20t-18 20q3 21 24 21t18 -21zM214 291q-2 -15 -14.5 -26t-27.5 -11t-24.5 11t-7.5 26q2 16 14.5 27t27.5 11t24.5 -11.5t7.5 -26.5zM415 20 q-3 -20 -24 -20q-20 0 -17 20q3 21 23 21q21 0 18 -21zM190 189q-4 -27 -31 -27t-23 27t30 27q28 0 24 -27zM287 20q-3 -20 -23 -20q-21 0 -18 20q3 21 24 21q20 0 17 -21zM174 103q-3 -23 -27 -23q-22 0 -19 23t26 23t20 -23zM62 189q-4 -27 -31 -27t-23 27t31 27t23 -27z M160 20q-3 -20 -24 -20t-18 20q3 21 24 21t18 -21zM46 103q-3 -23 -26 -23t-20 23t26 23t20 -23z" />
<glyph unicode="B" horiz-adv-x="981" d="M783 534q-3 -21 -20.5 -36.5t-38.5 -15.5t-34.5 15.5t-10.5 36.5t20.5 36.5t38.5 15.5t34.5 -15.5t10.5 -36.5zM885 406q-3 -18 -17.5 -31t-32.5 -13t-29.5 13t-8.5 31t17.5 31t32.5 13t29.5 -13t8.5 -31zM655 534q-3 -21 -20.5 -36.5t-38.5 -15.5t-34 15.5t-10 36.5 t20.5 36.5t38.5 15.5t34 -15.5t10 -36.5zM757 406q-3 -18 -17.5 -31t-32.5 -13t-29.5 13t-8.5 31t17.5 31t32.5 13t29.5 -13t8.5 -31zM527 534q-3 -21 -20.5 -36.5t-38.5 -15.5t-34 15.5t-10 36.5t20.5 36.5t38.5 15.5t34 -15.5t10 -36.5zM837 189q-4 -27 -30 -27 q-28 0 -24 27t31 27t23 -27zM734 291q-2 -15 -14.5 -26t-27.5 -11t-24.5 11t-7.5 26q2 16 14.5 27t27.5 11t24.5 -11.5t7.5 -26.5zM821 103q-3 -23 -26 -23t-20 23t26 23t20 -23zM400 534q-3 -21 -20.5 -36.5t-38.5 -15.5t-34.5 15.5t-10.5 36.5t20.5 36.5t38.5 15.5 t34.5 -15.5t10.5 -36.5zM710 189q-4 -27 -31 -27t-23 27t30 27q28 0 24 -27zM607 291q-2 -15 -15 -26t-28 -11t-24.5 11t-7.5 26t15 26.5t28 11.5t24.5 -11.5t7.5 -26.5zM694 103q-3 -23 -27 -23q-22 0 -19 23t26 23t20 -23zM272 534q-3 -21 -20.5 -36.5t-38.5 -15.5 t-34 15.5t-10 36.5t20.5 36.5t38.5 15.5t34 -15.5t10 -36.5zM479 291q-2 -15 -15 -26t-28 -11t-24.5 11t-7.5 26t15 26.5t28 11.5t24.5 -11.5t7.5 -26.5zM680 20q-3 -20 -24 -20t-18 20q3 21 24 21t18 -21zM144 534q-3 -21 -20.5 -36.5t-38.5 -15.5t-34 15.5t-10 36.5 t20.5 36.5t38.5 15.5t34 -15.5t10 -36.5zM246 406q-3 -18 -17.5 -31t-32.5 -13t-29 13t-8 31t17.5 31t32.5 13t29 -13t8 -31zM351 291q-2 -15 -14.5 -26t-27.5 -11t-24.5 11t-7.5 26q2 16 14.5 27t27.5 11t24.5 -11.5t7.5 -26.5zM552 20q-3 -20 -24 -20q-20 0 -17 20 q3 21 23 21q21 0 18 -21zM119 406q-3 -18 -17.5 -31t-32.5 -13t-29.5 13t-8.5 31t17.5 31t32.5 13t29.5 -13t8.5 -31zM224 291q-2 -15 -15 -26t-28 -11t-24.5 11t-7.5 26t15 26.5t28 11.5t24.5 -11.5t7.5 -26.5zM424 20q-3 -20 -23 -20q-21 0 -18 20q3 21 24 21q20 0 17 -21 zM199 189q-4 -27 -31 -27t-23 27t31 27t23 -27zM96 291q-2 -15 -15 -26t-28 -11t-24.5 11t-7.5 26t15 26.5t28 11.5t24.5 -11.5t7.5 -26.5zM297 20q-3 -20 -24 -20t-18 20q3 21 24 21t18 -21zM183 103q-3 -23 -26 -23t-20 23t26 23t20 -23zM71 189q-4 -27 -30 -27 q-28 0 -24 27t31 27t23 -27zM169 20q-3 -20 -24 -20q-20 0 -17 20q3 21 23 21q21 0 18 -21zM55 103q-3 -23 -26 -23t-20 23t27 23q22 0 19 -23zM41 20q-3 -20 -23 -20q-21 0 -18 20q3 21 24 21q20 0 17 -21z" />
<glyph unicode="C" horiz-adv-x="870" d="M773 534q-3 -21 -20.5 -36.5t-38.5 -15.5t-34 15.5t-10 36.5t20.5 36.5t38.5 15.5t34 -15.5t10 -36.5zM646 534q-3 -21 -20.5 -36.5t-38.5 -15.5t-34.5 15.5t-10.5 36.5t20.5 36.5t38.5 15.5t34.5 -15.5t10.5 -36.5zM518 534q-3 -21 -20.5 -36.5t-38.5 -15.5t-34 15.5 t-10 36.5t20.5 36.5t38.5 15.5t34 -15.5t10 -36.5zM390 534q-3 -21 -20.5 -36.5t-38.5 -15.5t-34 15.5t-10 36.5t20.5 36.5t38.5 15.5t34 -15.5t10 -36.5zM263 534q-3 -21 -20.5 -36.5t-38.5 -15.5t-34.5 15.5t-10.5 36.5t20.5 36.5t38.5 15.5t34.5 -15.5t10.5 -36.5z M670 20q-3 -20 -23 -20q-21 0 -18 20q3 21 24 21q20 0 17 -21zM237 406q-3 -18 -17.5 -31t-32.5 -13t-29.5 13t-8.5 31t17.5 31t32.5 13t29.5 -13t8.5 -31zM543 20q-3 -20 -24 -20t-18 20q3 21 24 21t18 -21zM109 406q-3 -18 -17.5 -31t-32.5 -13t-29 13t-8 31t17.5 31 t32.5 13t29 -13t8 -31zM214 291q-2 -15 -14.5 -26t-27.5 -11t-24.5 11t-7.5 26q2 16 14.5 27t27.5 11t24.5 -11.5t7.5 -26.5zM415 20q-3 -20 -24 -20q-20 0 -17 20q3 21 23 21q21 0 18 -21zM190 189q-4 -27 -31 -27t-23 27t30 27q28 0 24 -27zM87 291q-2 -15 -15 -26 t-28 -11t-24.5 11t-7.5 26t15 26.5t28 11.5t24.5 -11.5t7.5 -26.5zM287 20q-3 -20 -23 -20q-21 0 -18 20q3 21 24 21q20 0 17 -21zM174 103q-3 -23 -27 -23q-22 0 -19 23t26 23t20 -23zM62 189q-4 -27 -31 -27t-23 27t31 27t23 -27zM160 20q-3 -20 -24 -20t-18 20 q3 21 24 21t18 -21zM46 103q-3 -23 -26 -23t-20 23t26 23t20 -23z" />
<glyph unicode="D" horiz-adv-x="958" d="M655 534q-3 -21 -20.5 -36.5t-38.5 -15.5t-34 15.5t-10 36.5t20.5 36.5t38.5 15.5t34 -15.5t10 -36.5zM757 406q-3 -18 -17.5 -31t-32.5 -13t-29.5 13t-8.5 31t17.5 31t32.5 13t29.5 -13t8.5 -31zM862 291q-2 -15 -15 -26t-28 -11t-24.5 11t-7.5 26t15 26.5t28 11.5 t24.5 -11.5t7.5 -26.5zM527 534q-3 -21 -20.5 -36.5t-38.5 -15.5t-34 15.5t-10 36.5t20.5 36.5t38.5 15.5t34 -15.5t10 -36.5zM837 189q-4 -27 -30 -27q-28 0 -24 27t31 27t23 -27zM629 406q-3 -18 -17.5 -31t-32.5 -13t-29 13t-8 31t17.5 31t32.5 13t29 -13t8 -31zM734 291 q-2 -15 -14.5 -26t-27.5 -11t-24.5 11t-7.5 26q2 16 14.5 27t27.5 11t24.5 -11.5t7.5 -26.5zM821 103q-3 -23 -26 -23t-20 23t26 23t20 -23zM400 534q-3 -21 -20.5 -36.5t-38.5 -15.5t-34.5 15.5t-10.5 36.5t20.5 36.5t38.5 15.5t34.5 -15.5t10.5 -36.5zM710 189 q-4 -27 -31 -27t-23 27t30 27q28 0 24 -27zM807 20q-3 -20 -23 -20q-21 0 -18 20q3 21 24 21q20 0 17 -21zM694 103q-3 -23 -27 -23q-22 0 -19 23t26 23t20 -23zM272 534q-3 -21 -20.5 -36.5t-38.5 -15.5t-34 15.5t-10 36.5t20.5 36.5t38.5 15.5t34 -15.5t10 -36.5zM680 20 q-3 -20 -24 -20t-18 20q3 21 24 21t18 -21zM144 534q-3 -21 -20.5 -36.5t-38.5 -15.5t-34 15.5t-10 36.5t20.5 36.5t38.5 15.5t34 -15.5t10 -36.5zM246 406q-3 -18 -17.5 -31t-32.5 -13t-29 13t-8 31t17.5 31t32.5 13t29 -13t8 -31zM552 20q-3 -20 -24 -20q-20 0 -17 20 q3 21 23 21q21 0 18 -21zM119 406q-3 -18 -17.5 -31t-32.5 -13t-29.5 13t-8.5 31t17.5 31t32.5 13t29.5 -13t8.5 -31zM224 291q-2 -15 -15 -26t-28 -11t-24.5 11t-7.5 26t15 26.5t28 11.5t24.5 -11.5t7.5 -26.5zM424 20q-3 -20 -23 -20q-21 0 -18 20q3 21 24 21q20 0 17 -21 zM199 189q-4 -27 -31 -27t-23 27t31 27t23 -27zM96 291q-2 -15 -15 -26t-28 -11t-24.5 11t-7.5 26t15 26.5t28 11.5t24.5 -11.5t7.5 -26.5zM297 20q-3 -20 -24 -20t-18 20q3 21 24 21t18 -21zM183 103q-3 -23 -26 -23t-20 23t26 23t20 -23zM71 189q-4 -27 -30 -27 q-28 0 -24 27t31 27t23 -27zM169 20q-3 -20 -24 -20q-20 0 -17 20q3 21 23 21q21 0 18 -21zM55 103q-3 -23 -26 -23t-20 23t27 23q22 0 19 -23zM41 20q-3 -20 -23 -20q-21 0 -18 20q3 21 24 21q20 0 17 -21z" />
<glyph unicode="E" d="M773 534q-3 -21 -20.5 -36.5t-38.5 -15.5t-34 15.5t-10 36.5t20.5 36.5t38.5 15.5t34 -15.5t10 -36.5zM875 406q-3 -18 -17.5 -31t-32.5 -13t-29 13t-8 31t17.5 31t32.5 13t29 -13t8 -31zM646 534q-3 -21 -20.5 -36.5t-38.5 -15.5t-34.5 15.5t-10.5 36.5t20.5 36.5 t38.5 15.5t34.5 -15.5t10.5 -36.5zM748 406q-3 -18 -17.5 -31t-32.5 -13t-29.5 13t-8.5 31t17.5 31t32.5 13t29.5 -13t8.5 -31zM853 291q-2 -15 -15 -26t-28 -11t-24.5 11t-7.5 26t15 26.5t28 11.5t24.5 -11.5t7.5 -26.5zM518 534q-3 -21 -20.5 -36.5t-38.5 -15.5t-34 15.5 t-10 36.5t20.5 36.5t38.5 15.5t34 -15.5t10 -36.5zM725 291q-2 -15 -15 -26t-28 -11t-24.5 11t-7.5 26t15 26.5t28 11.5t24.5 -11.5t7.5 -26.5zM390 534q-3 -21 -20.5 -36.5t-38.5 -15.5t-34 15.5t-10 36.5t20.5 36.5t38.5 15.5t34 -15.5t10 -36.5zM597 291 q-2 -15 -14.5 -26t-27.5 -11t-24.5 11t-7.5 26q2 16 14.5 27t27.5 11t24.5 -11.5t7.5 -26.5zM263 534q-3 -21 -20.5 -36.5t-38.5 -15.5t-34.5 15.5t-10.5 36.5t20.5 36.5t38.5 15.5t34.5 -15.5t10.5 -36.5zM470 291q-2 -15 -15 -26t-28 -11t-24.5 11t-7.5 26t15 26.5 t28 11.5t24.5 -11.5t7.5 -26.5zM670 20q-3 -20 -23 -20q-21 0 -18 20q3 21 24 21q20 0 17 -21zM237 406q-3 -18 -17.5 -31t-32.5 -13t-29.5 13t-8.5 31t17.5 31t32.5 13t29.5 -13t8.5 -31zM342 291q-2 -15 -15 -26t-28 -11t-24.5 11t-7.5 26t15 26.5t28 11.5t24.5 -11.5 t7.5 -26.5zM543 20q-3 -20 -24 -20t-18 20q3 21 24 21t18 -21zM109 406q-3 -18 -17.5 -31t-32.5 -13t-29 13t-8 31t17.5 31t32.5 13t29 -13t8 -31zM214 291q-2 -15 -14.5 -26t-27.5 -11t-24.5 11t-7.5 26q2 16 14.5 27t27.5 11t24.5 -11.5t7.5 -26.5zM415 20q-3 -20 -24 -20 q-20 0 -17 20q3 21 23 21q21 0 18 -21zM190 189q-4 -27 -31 -27t-23 27t30 27q28 0 24 -27zM87 291q-2 -15 -15 -26t-28 -11t-24.5 11t-7.5 26t15 26.5t28 11.5t24.5 -11.5t7.5 -26.5zM287 20q-3 -20 -23 -20q-21 0 -18 20q3 21 24 21q20 0 17 -21zM174 103q-3 -23 -27 -23 q-22 0 -19 23t26 23t20 -23zM62 189q-4 -27 -31 -27t-23 27t31 27t23 -27zM160 20q-3 -20 -24 -20t-18 20q3 21 24 21t18 -21zM46 103q-3 -23 -26 -23t-20 23t26 23t20 -23z" />
<glyph unicode="F" horiz-adv-x="879" d="M783 534q-3 -21 -20.5 -36.5t-38.5 -15.5t-34.5 15.5t-10.5 36.5t20.5 36.5t38.5 15.5t34.5 -15.5t10.5 -36.5zM655 534q-3 -21 -20.5 -36.5t-38.5 -15.5t-34 15.5t-10 36.5t20.5 36.5t38.5 15.5t34 -15.5t10 -36.5zM527 534q-3 -21 -20.5 -36.5t-38.5 -15.5t-34 15.5 t-10 36.5t20.5 36.5t38.5 15.5t34 -15.5t10 -36.5zM400 534q-3 -21 -20.5 -36.5t-38.5 -15.5t-34.5 15.5t-10.5 36.5t20.5 36.5t38.5 15.5t34.5 -15.5t10.5 -36.5zM607 291q-2 -15 -15 -26t-28 -11t-24.5 11t-7.5 26t15 26.5t28 11.5t24.5 -11.5t7.5 -26.5zM272 534 q-3 -21 -20.5 -36.5t-38.5 -15.5t-34 15.5t-10 36.5t20.5 36.5t38.5 15.5t34 -15.5t10 -36.5zM479 291q-2 -15 -15 -26t-28 -11t-24.5 11t-7.5 26t15 26.5t28 11.5t24.5 -11.5t7.5 -26.5zM246 406q-3 -18 -17.5 -31t-32.5 -13t-29 13t-8 31t17.5 31t32.5 13t29 -13t8 -31z M351 291q-2 -15 -14.5 -26t-27.5 -11t-24.5 11t-7.5 26q2 16 14.5 27t27.5 11t24.5 -11.5t7.5 -26.5zM119 406q-3 -18 -17.5 -31t-32.5 -13t-29.5 13t-8.5 31t17.5 31t32.5 13t29.5 -13t8.5 -31zM224 291q-2 -15 -15 -26t-28 -11t-24.5 11t-7.5 26t15 26.5t28 11.5 t24.5 -11.5t7.5 -26.5zM199 189q-4 -27 -31 -27t-23 27t31 27t23 -27zM96 291q-2 -15 -15 -26t-28 -11t-24.5 11t-7.5 26t15 26.5t28 11.5t24.5 -11.5t7.5 -26.5zM183 103q-3 -23 -26 -23t-20 23t26 23t20 -23zM71 189q-4 -27 -30 -27q-28 0 -24 27t31 27t23 -27zM169 20 q-3 -20 -24 -20q-20 0 -17 20q3 21 23 21q21 0 18 -21zM55 103q-3 -23 -26 -23t-20 23t27 23q22 0 19 -23zM41 20q-3 -20 -23 -20q-21 0 -18 20q3 21 24 21q20 0 17 -21z" />
<glyph unicode="G" horiz-adv-x="924" d="M773 534q-3 -21 -20.5 -36.5t-38.5 -15.5t-34 15.5t-10 36.5t20.5 36.5t38.5 15.5t34 -15.5t10 -36.5zM646 534q-3 -21 -20.5 -36.5t-38.5 -15.5t-34.5 15.5t-10.5 36.5t20.5 36.5t38.5 15.5t34.5 -15.5t10.5 -36.5zM518 534q-3 -21 -20.5 -36.5t-38.5 -15.5t-34 15.5 t-10 36.5t20.5 36.5t38.5 15.5t34 -15.5t10 -36.5zM828 189q-4 -27 -31 -27t-23 27t31 27t23 -27zM812 103q-3 -23 -26 -23t-20 23t26 23t20 -23zM390 534q-3 -21 -20.5 -36.5t-38.5 -15.5t-34 15.5t-10 36.5t20.5 36.5t38.5 15.5t34 -15.5t10 -36.5zM700 189 q-4 -27 -30 -27q-28 0 -24 27t31 27t23 -27zM684 103q-3 -23 -26 -23t-20 23t26 23t20 -23zM263 534q-3 -21 -20.5 -36.5t-38.5 -15.5t-34.5 15.5t-10.5 36.5t20.5 36.5t38.5 15.5t34.5 -15.5t10.5 -36.5zM573 189q-4 -27 -31 -27t-23 27t30 27q28 0 24 -27zM670 20 q-3 -20 -23 -20q-21 0 -18 20q3 21 24 21q20 0 17 -21zM237 406q-3 -18 -17.5 -31t-32.5 -13t-29.5 13t-8.5 31t17.5 31t32.5 13t29.5 -13t8.5 -31zM543 20q-3 -20 -24 -20t-18 20q3 21 24 21t18 -21zM109 406q-3 -18 -17.5 -31t-32.5 -13t-29 13t-8 31t17.5 31t32.5 13 t29 -13t8 -31zM214 291q-2 -15 -14.5 -26t-27.5 -11t-24.5 11t-7.5 26q2 16 14.5 27t27.5 11t24.5 -11.5t7.5 -26.5zM415 20q-3 -20 -24 -20q-20 0 -17 20q3 21 23 21q21 0 18 -21zM190 189q-4 -27 -31 -27t-23 27t30 27q28 0 24 -27zM87 291q-2 -15 -15 -26t-28 -11 t-24.5 11t-7.5 26t15 26.5t28 11.5t24.5 -11.5t7.5 -26.5zM287 20q-3 -20 -23 -20q-21 0 -18 20q3 21 24 21q20 0 17 -21zM174 103q-3 -23 -27 -23q-22 0 -19 23t26 23t20 -23zM62 189q-4 -27 -31 -27t-23 27t31 27t23 -27zM160 20q-3 -20 -24 -20t-18 20q3 21 24 21t18 -21 zM46 103q-3 -23 -26 -23t-20 23t26 23t20 -23z" />
<glyph unicode="H" horiz-adv-x="1007" d="M910 534q-3 -21 -20.5 -36.5t-38.5 -15.5t-34 15.5t-10 36.5t20.5 36.5t38.5 15.5t34 -15.5t10 -36.5zM783 534q-3 -21 -20.5 -36.5t-38.5 -15.5t-34.5 15.5t-10.5 36.5t20.5 36.5t38.5 15.5t34.5 -15.5t10.5 -36.5zM885 406q-3 -18 -17.5 -31t-32.5 -13t-29.5 13 t-8.5 31t17.5 31t32.5 13t29.5 -13t8.5 -31zM757 406q-3 -18 -17.5 -31t-32.5 -13t-29.5 13t-8.5 31t17.5 31t32.5 13t29.5 -13t8.5 -31zM862 291q-2 -15 -15 -26t-28 -11t-24.5 11t-7.5 26t15 26.5t28 11.5t24.5 -11.5t7.5 -26.5zM837 189q-4 -27 -30 -27q-28 0 -24 27 t31 27t23 -27zM734 291q-2 -15 -14.5 -26t-27.5 -11t-24.5 11t-7.5 26q2 16 14.5 27t27.5 11t24.5 -11.5t7.5 -26.5zM821 103q-3 -23 -26 -23t-20 23t26 23t20 -23zM710 189q-4 -27 -31 -27t-23 27t30 27q28 0 24 -27zM607 291q-2 -15 -15 -26t-28 -11t-24.5 11t-7.5 26 t15 26.5t28 11.5t24.5 -11.5t7.5 -26.5zM807 20q-3 -20 -23 -20q-21 0 -18 20q3 21 24 21q20 0 17 -21zM694 103q-3 -23 -27 -23q-22 0 -19 23t26 23t20 -23zM272 534q-3 -21 -20.5 -36.5t-38.5 -15.5t-34 15.5t-10 36.5t20.5 36.5t38.5 15.5t34 -15.5t10 -36.5zM479 291 q-2 -15 -15 -26t-28 -11t-24.5 11t-7.5 26t15 26.5t28 11.5t24.5 -11.5t7.5 -26.5zM680 20q-3 -20 -24 -20t-18 20q3 21 24 21t18 -21zM144 534q-3 -21 -20.5 -36.5t-38.5 -15.5t-34 15.5t-10 36.5t20.5 36.5t38.5 15.5t34 -15.5t10 -36.5zM246 406q-3 -18 -17.5 -31 t-32.5 -13t-29 13t-8 31t17.5 31t32.5 13t29 -13t8 -31zM351 291q-2 -15 -14.5 -26t-27.5 -11t-24.5 11t-7.5 26q2 16 14.5 27t27.5 11t24.5 -11.5t7.5 -26.5zM119 406q-3 -18 -17.5 -31t-32.5 -13t-29.5 13t-8.5 31t17.5 31t32.5 13t29.5 -13t8.5 -31zM224 291 q-2 -15 -15 -26t-28 -11t-24.5 11t-7.5 26t15 26.5t28 11.5t24.5 -11.5t7.5 -26.5zM199 189q-4 -27 -31 -27t-23 27t31 27t23 -27zM96 291q-2 -15 -15 -26t-28 -11t-24.5 11t-7.5 26t15 26.5t28 11.5t24.5 -11.5t7.5 -26.5zM183 103q-3 -23 -26 -23t-20 23t26 23t20 -23z M71 189q-4 -27 -30 -27q-28 0 -24 27t31 27t23 -27zM169 20q-3 -20 -24 -20q-20 0 -17 20q3 21 23 21q21 0 18 -21zM55 103q-3 -23 -26 -23t-20 23t26 23t20 -23zM41 20q-3 -20 -23 -20q-21 0 -18 20q3 21 24 21q20 0 17 -21z" />
<glyph unicode="I" horiz-adv-x="369" d="M272 534q-3 -21 -20.5 -36.5t-38.5 -15.5t-34 15.5t-10 36.5t20.5 36.5t38.5 15.5t34 -15.5t10 -36.5zM144 534q-3 -21 -20.5 -36.5t-38.5 -15.5t-34 15.5t-10 36.5t20.5 36.5t38.5 15.5t34 -15.5t10 -36.5zM246 406q-3 -18 -17.5 -31t-32.5 -13t-29 13t-8 31t17.5 31 t32.5 13t29 -13t8 -31zM119 406q-3 -18 -17.5 -31t-32.5 -13t-29.5 13t-8.5 31t17.5 31t32.5 13t29.5 -13t8.5 -31zM224 291q-2 -15 -15 -26t-28 -11t-24.5 11t-7.5 26t15 26.5t28 11.5t24.5 -11.5t7.5 -26.5zM199 189q-4 -27 -31 -27t-23 27t31 27t23 -27zM96 291 q-2 -15 -15 -26t-28 -11t-24.5 11t-7.5 26t15 26.5t28 11.5t24.5 -11.5t7.5 -26.5zM183 103q-3 -23 -26 -23t-20 23t26 23t20 -23zM71 189q-4 -27 -30 -27q-28 0 -24 27t31 27t23 -27zM169 20q-3 -20 -24 -20q-20 0 -17 20q3 21 23 21q21 0 18 -21zM55 103q-3 -23 -26 -23 t-20 23t27 23q22 0 19 -23zM41 20q-3 -20 -23 -20q-21 0 -18 20q3 21 24 21q20 0 17 -21z" />
<glyph unicode="J" horiz-adv-x="870" d="M773 534q-3 -21 -20.5 -36.5t-38.5 -15.5t-34 15.5t-10 36.5t20.5 36.5t38.5 15.5t34 -15.5t10 -36.5zM646 534q-3 -21 -20.5 -36.5t-38.5 -15.5t-34.5 15.5t-10.5 36.5t20.5 36.5t38.5 15.5t34.5 -15.5t10.5 -36.5zM748 406q-3 -18 -17.5 -31t-32.5 -13t-29.5 13 t-8.5 31t17.5 31t32.5 13t29.5 -13t8.5 -31zM620 406q-3 -18 -17.5 -31t-32.5 -13t-29.5 13t-8.5 31t17.5 31t32.5 13t29.5 -13t8.5 -31zM725 291q-2 -15 -15 -26t-28 -11t-24.5 11t-7.5 26t15 26.5t28 11.5t24.5 -11.5t7.5 -26.5zM700 189q-4 -27 -30 -27q-28 0 -24 27 t31 27t23 -27zM597 291q-2 -15 -14.5 -26t-27.5 -11t-24.5 11t-7.5 26q2 16 14.5 27t27.5 11t24.5 -11.5t7.5 -26.5zM684 103q-3 -23 -26 -23t-20 23t27 23q22 0 19 -23zM573 189q-4 -27 -31 -27t-23 27t30 27q28 0 24 -27zM557 103q-3 -23 -27 -23q-22 0 -19 23t26 23 t20 -23zM543 20q-3 -20 -24 -20t-18 20q3 21 24 21t18 -21zM415 20q-3 -20 -24 -20q-20 0 -17 20q3 21 23 21q21 0 18 -21zM287 20q-3 -20 -23 -20q-21 0 -18 20q3 21 24 21q20 0 17 -21zM174 103q-3 -23 -27 -23q-22 0 -19 23t26 23t20 -23zM160 20q-3 -20 -24 -20t-18 20 q3 21 24 21t18 -21zM46 103q-3 -23 -26 -23t-20 23t26 23t20 -23z" />
<glyph unicode="K" horiz-adv-x="879" d="M783 534q-3 -21 -20.5 -36.5t-38.5 -15.5t-34.5 15.5t-10.5 36.5t20.5 36.5t38.5 15.5t34.5 -15.5t10.5 -36.5zM655 534q-3 -21 -20.5 -36.5t-38.5 -15.5t-34 15.5t-10 36.5t20.5 36.5t38.5 15.5t34 -15.5t10 -36.5zM629 406q-3 -18 -17.5 -31t-32.5 -13t-29 13t-8 31 t17.5 31t32.5 13t29 -13t8 -31zM502 406q-3 -18 -17.5 -31t-32.5 -13t-29.5 13t-8.5 31t17.5 31t32.5 13t29.5 -13t8.5 -31zM272 534q-3 -21 -20.5 -36.5t-38.5 -15.5t-34 15.5t-10 36.5t20.5 36.5t38.5 15.5t34 -15.5t10 -36.5zM479 291q-2 -15 -15 -26t-28 -11t-24.5 11 t-7.5 26t15 26.5t28 11.5t24.5 -11.5t7.5 -26.5zM680 20q-3 -20 -24 -20t-18 20q3 21 24 21t18 -21zM566 103q-3 -23 -26 -23t-20 23t26 23t20 -23zM144 534q-3 -21 -20.5 -36.5t-38.5 -15.5t-34 15.5t-10 36.5t20.5 36.5t38.5 15.5t34 -15.5t10 -36.5zM454 189 q-4 -27 -30 -27q-28 0 -24 27t31 27t23 -27zM246 406q-3 -18 -17.5 -31t-32.5 -13t-29 13t-8 31t17.5 31t32.5 13t29 -13t8 -31zM351 291q-2 -15 -14.5 -26t-27.5 -11t-24.5 11t-7.5 26q2 16 14.5 27t27.5 11t24.5 -11.5t7.5 -26.5zM552 20q-3 -20 -24 -20q-20 0 -17 20 q3 21 23 21q21 0 18 -21zM438 103q-3 -23 -26 -23t-20 23t27 23q22 0 19 -23zM327 189q-4 -27 -31 -27t-23 27t30 27q28 0 24 -27zM119 406q-3 -18 -17.5 -31t-32.5 -13t-29.5 13t-8.5 31t17.5 31t32.5 13t29.5 -13t8.5 -31zM224 291q-2 -15 -15 -26t-28 -11t-24.5 11 t-7.5 26t15 26.5t28 11.5t24.5 -11.5t7.5 -26.5zM199 189q-4 -27 -31 -27t-23 27t31 27t23 -27zM96 291q-2 -15 -15 -26t-28 -11t-24.5 11t-7.5 26t15 26.5t28 11.5t24.5 -11.5t7.5 -26.5zM183 103q-3 -23 -26 -23t-20 23t26 23t20 -23zM71 189q-4 -27 -30 -27q-28 0 -24 27 t31 27t23 -27zM169 20q-3 -20 -24 -20q-20 0 -17 20q3 21 23 21q21 0 18 -21zM55 103q-3 -23 -26 -23t-20 23t27 23q22 0 19 -23zM41 20q-3 -20 -23 -20q-21 0 -18 20q3 21 24 21q20 0 17 -21z" />
<glyph unicode="L" horiz-adv-x="766" d="M263 534q-3 -21 -20.5 -36.5t-38.5 -15.5t-34.5 15.5t-10.5 36.5t20.5 36.5t38.5 15.5t34.5 -15.5t10.5 -36.5zM670 20q-3 -20 -23 -20q-21 0 -18 20q3 21 24 21q20 0 17 -21zM135 534q-3 -21 -20.5 -36.5t-38.5 -15.5t-34 15.5t-10 36.5t20.5 36.5t38.5 15.5t34 -15.5 t10 -36.5zM237 406q-3 -18 -17.5 -31t-32.5 -13t-29.5 13t-8.5 31t17.5 31t32.5 13t29.5 -13t8.5 -31zM543 20q-3 -20 -24 -20t-18 20q3 21 24 21t18 -21zM109 406q-3 -18 -17.5 -31t-32.5 -13t-29 13t-8 31t17.5 31t32.5 13t29 -13t8 -31zM214 291q-2 -15 -14.5 -26 t-27.5 -11t-24.5 11t-7.5 26q2 16 14.5 27t27.5 11t24.5 -11.5t7.5 -26.5zM415 20q-3 -20 -24 -20q-20 0 -17 20q3 21 23 21q21 0 18 -21zM190 189q-4 -27 -31 -27t-23 27t30 27q28 0 24 -27zM87 291q-2 -15 -15 -26t-28 -11t-24.5 11t-7.5 26t15 26.5t28 11.5t24.5 -11.5 t7.5 -26.5zM287 20q-3 -20 -23 -20q-21 0 -18 20q3 21 24 21q20 0 17 -21zM174 103q-3 -23 -27 -23q-22 0 -19 23t26 23t20 -23zM62 189q-4 -27 -31 -27t-23 27t31 27t23 -27zM160 20q-3 -20 -24 -20t-18 20q3 21 24 21t18 -21zM46 103q-3 -23 -26 -23t-20 23t26 23t20 -23z " />
<glyph unicode="M" horiz-adv-x="1364" d="M1166 534q-3 -21 -20.5 -36.5t-38.5 -15.5t-34.5 15.5t-10.5 36.5t20.5 36.5t38.5 15.5t34.5 -15.5t10.5 -36.5zM1268 406q-3 -18 -17.5 -31t-32.5 -13t-29.5 13t-8.5 31t17.5 31t32.5 13t29.5 -13t8.5 -31zM1038 534q-3 -21 -20.5 -36.5t-38.5 -15.5t-34 15.5t-10 36.5 t20.5 36.5t38.5 15.5t34 -15.5t10 -36.5zM1140 406q-3 -18 -17.5 -31t-32.5 -13t-29.5 13t-8.5 31t17.5 31t32.5 13t29.5 -13t8.5 -31zM1245 291q-2 -15 -15 -26t-28 -11t-24.5 11t-7.5 26t15 26.5t28 11.5t24.5 -11.5t7.5 -26.5zM910 534q-3 -21 -20.5 -36.5t-38.5 -15.5 t-34 15.5t-10 36.5t20.5 36.5t38.5 15.5t34 -15.5t10 -36.5zM1220 189q-4 -27 -30 -27q-28 0 -24 27t31 27t23 -27zM1117 291q-2 -15 -14.5 -26t-27.5 -11t-24.5 11t-7.5 26q2 16 14.5 27t27.5 11t24.5 -11.5t7.5 -26.5zM1204 103q-3 -23 -26 -23t-20 23t26 23t20 -23z M783 534q-3 -21 -20.5 -36.5t-38.5 -15.5t-34.5 15.5t-10.5 36.5t20.5 36.5t38.5 15.5t34.5 -15.5t10.5 -36.5zM1093 189q-4 -27 -31 -27t-23 27t30 27q28 0 24 -27zM1190 20q-3 -20 -23 -20q-21 0 -18 20q3 21 24 21q20 0 17 -21zM1077 103q-3 -23 -27 -23q-22 0 -19 23 t26 23t20 -23zM655 534q-3 -21 -20.5 -36.5t-38.5 -15.5t-34 15.5t-10 36.5t20.5 36.5t38.5 15.5t34 -15.5t10 -36.5zM757 406q-3 -18 -17.5 -31t-32.5 -13t-29.5 13t-8.5 31t17.5 31t32.5 13t29.5 -13t8.5 -31zM1063 20q-3 -20 -24 -20t-18 20q3 21 24 21t18 -21zM527 534 q-3 -21 -20.5 -36.5t-38.5 -15.5t-34 15.5t-10 36.5t20.5 36.5t38.5 15.5t34 -15.5t10 -36.5zM629 406q-3 -18 -17.5 -31t-32.5 -13t-29 13t-8 31t17.5 31t32.5 13t29 -13t8 -31zM734 291q-2 -15 -14.5 -26t-27.5 -11t-24.5 11t-7.5 26q2 16 14.5 27t27.5 11t24.5 -11.5 t7.5 -26.5zM400 534q-3 -21 -20.5 -36.5t-38.5 -15.5t-34.5 15.5t-10.5 36.5t20.5 36.5t38.5 15.5t34.5 -15.5t10.5 -36.5zM710 189q-4 -27 -31 -27t-23 27t30 27q28 0 24 -27zM607 291q-2 -15 -15 -26t-28 -11t-24.5 11t-7.5 26t15 26.5t28 11.5t24.5 -11.5t7.5 -26.5z M694 103q-3 -23 -27 -23q-22 0 -19 23t26 23t20 -23zM272 534q-3 -21 -20.5 -36.5t-38.5 -15.5t-34 15.5t-10 36.5t20.5 36.5t38.5 15.5t34 -15.5t10 -36.5zM582 189q-4 -27 -31 -27t-23 27t31 27t23 -27zM680 20q-3 -20 -24 -20t-18 20q3 21 24 21t18 -21zM566 103 q-3 -23 -26 -23t-20 23t26 23t20 -23zM144 534q-3 -21 -20.5 -36.5t-38.5 -15.5t-34 15.5t-10 36.5t20.5 36.5t38.5 15.5t34 -15.5t10 -36.5zM246 406q-3 -18 -17.5 -31t-32.5 -13t-29 13t-8 31t17.5 31t32.5 13t29 -13t8 -31zM552 20q-3 -20 -24 -20q-20 0 -17 20 q3 21 23 21q21 0 18 -21zM119 406q-3 -18 -17.5 -31t-32.5 -13t-29.5 13t-8.5 31t17.5 31t32.5 13t29.5 -13t8.5 -31zM224 291q-2 -15 -15 -26t-28 -11t-24.5 11t-7.5 26t15 26.5t28 11.5t24.5 -11.5t7.5 -26.5zM199 189q-4 -27 -31 -27t-23 27t31 27t23 -27zM96 291 q-2 -15 -15 -26t-28 -11t-24.5 11t-7.5 26t15 26.5t28 11.5t24.5 -11.5t7.5 -26.5zM183 103q-3 -23 -26 -23t-20 23t26 23t20 -23zM71 189q-4 -27 -30 -27q-28 0 -24 27t31 27t23 -27zM169 20q-3 -20 -24 -20q-20 0 -17 20q3 21 23 21q21 0 18 -21zM55 103q-3 -23 -26 -23 t-20 23t27 23q22 0 19 -23zM41 20q-3 -20 -23 -20q-21 0 -18 20q3 21 24 21q20 0 17 -21z" />
<glyph unicode="N" horiz-adv-x="981" d="M783 534q-3 -21 -20.5 -36.5t-38.5 -15.5t-34.5 15.5t-10.5 36.5t20.5 36.5t38.5 15.5t34.5 -15.5t10.5 -36.5zM885 406q-3 -18 -17.5 -31t-32.5 -13t-29.5 13t-8.5 31t17.5 31t32.5 13t29.5 -13t8.5 -31zM655 534q-3 -21 -20.5 -36.5t-38.5 -15.5t-34 15.5t-10 36.5 t20.5 36.5t38.5 15.5t34 -15.5t10 -36.5zM757 406q-3 -18 -17.5 -31t-32.5 -13t-29.5 13t-8.5 31t18 31t33 13t29 -13t8 -31zM862 291q-2 -15 -14.5 -26t-27.5 -11t-24.5 11t-7.5 26q2 16 14.5 27t27.5 11t24.5 -11.5t7.5 -26.5zM527 534q-3 -21 -20.5 -36.5t-38.5 -15.5 t-34 15.5t-10 36.5t20.5 36.5t38.5 15.5t34 -15.5t10 -36.5zM838 189q-4 -27 -31 -27t-23 27t30 27q28 0 24 -27zM735 291q-2 -15 -15 -26t-28 -11t-24.5 11t-7.5 26q2 16 14.5 27t27.5 11t25 -11.5t8 -26.5zM821 103q-3 -23 -26 -23q-22 0 -19 23t26 23q22 0 19 -23z M400 534q-3 -21 -20.5 -36.5t-38.5 -15.5t-34.5 15.5t-10.5 36.5t20.5 36.5t38.5 15.5t34.5 -15.5t10.5 -36.5zM710 189q-4 -27 -31 -27t-23 27t31 27t23 -27zM807 20q-3 -20 -23 -20q-21 0 -18 20q3 21 24 21q20 0 17 -21zM694 103q-3 -23 -26 -23t-20 23t26 23t20 -23z M272 534q-3 -21 -20.5 -36.5t-38.5 -15.5t-34 15.5t-10 36.5t20.5 36.5t38.5 15.5t34 -15.5t10 -36.5zM680 20q-3 -20 -24 -20q-20 0 -17 20q3 21 23 21q21 0 18 -21zM246 406q-3 -18 -17.5 -31t-32.5 -13t-29 13t-8 31t17.5 31t32.5 13t29 -13t8 -31zM119 406 q-3 -18 -17.5 -31t-32.5 -13t-29.5 13t-8.5 31t17.5 31t32.5 13t29.5 -13t8.5 -31zM224 291q-2 -15 -15 -26t-28 -11t-24.5 11t-7.5 26t15 26.5t28 11.5t24.5 -11.5t7.5 -26.5zM199 189q-4 -27 -31 -27t-23 27t31 27t23 -27zM96 291q-2 -15 -15 -26t-28 -11t-24.5 11 t-7.5 26t15 26.5t28 11.5t24.5 -11.5t7.5 -26.5zM183 103q-3 -23 -26 -23t-20 23t26 23t20 -23zM71 189q-4 -27 -30 -27q-28 0 -24 27t31 27t23 -27zM169 20q-3 -20 -24 -20q-20 0 -17 20q3 21 23 21q21 0 18 -21zM55 103q-3 -23 -26 -23t-20 23t27 23q22 0 19 -23zM41 20 q-3 -20 -23 -20q-21 0 -18 20q3 21 24 21q20 0 17 -21z" />
<glyph unicode="O" d="M773 534q-3 -21 -20.5 -36.5t-38.5 -15.5t-34 15.5t-10 36.5t20.5 36.5t38.5 15.5t34 -15.5t10 -36.5zM875 406q-3 -18 -17.5 -31t-32.5 -13t-29 13t-8 31t17.5 31t32.5 13t29 -13t8 -31zM646 534q-3 -21 -20.5 -36.5t-38.5 -15.5t-34.5 15.5t-10.5 36.5t20.5 36.5 t38.5 15.5t34.5 -15.5t10.5 -36.5zM748 406q-3 -18 -17.5 -31t-32.5 -13t-29.5 13t-8.5 31t17.5 31t32.5 13t29.5 -13t8.5 -31zM853 291q-2 -15 -15 -26t-28 -11t-24.5 11t-7.5 26t15 26.5t28 11.5t24.5 -11.5t7.5 -26.5zM518 534q-3 -21 -20.5 -36.5t-38.5 -15.5t-34 15.5 t-10 36.5t20.5 36.5t38.5 15.5t34 -15.5t10 -36.5zM828 189q-4 -27 -31 -27t-23 27t31 27t23 -27zM725 291q-2 -15 -15 -26t-28 -11t-24.5 11t-7.5 26t15 26.5t28 11.5t24.5 -11.5t7.5 -26.5zM812 103q-3 -23 -26 -23t-20 23t26 23t20 -23zM390 534q-3 -21 -20.5 -36.5 t-38.5 -15.5t-34 15.5t-10 36.5t20.5 36.5t38.5 15.5t34 -15.5t10 -36.5zM700 189q-4 -27 -30 -27q-28 0 -24 27t31 27t23 -27zM684 103q-3 -23 -26 -23t-20 23t26 23t20 -23zM263 534q-3 -21 -20.5 -36.5t-38.5 -15.5t-34.5 15.5t-10.5 36.5t20.5 36.5t38.5 15.5 t34.5 -15.5t10.5 -36.5zM670 20q-3 -20 -23 -20q-21 0 -18 20q3 21 24 21q20 0 17 -21zM237 406q-3 -18 -17.5 -31t-32.5 -13t-29.5 13t-8.5 31t17.5 31t32.5 13t29.5 -13t8.5 -31zM543 20q-3 -20 -24 -20t-18 20q3 21 24 21t18 -21zM109 406q-3 -18 -17.5 -31t-32.5 -13 t-29 13t-8 31t17.5 31t32.5 13t29 -13t8 -31zM214 291q-2 -15 -14.5 -26t-27.5 -11t-24.5 11t-7.5 26q2 16 14.5 27t27.5 11t24.5 -11.5t7.5 -26.5zM415 20q-3 -20 -24 -20q-20 0 -17 20q3 21 23 21q21 0 18 -21zM190 189q-4 -27 -31 -27t-23 27t30 27q28 0 24 -27zM87 291 q-2 -15 -15 -26t-28 -11t-24.5 11t-7.5 26t15 26.5t28 11.5t24.5 -11.5t7.5 -26.5zM287 20q-3 -20 -23 -20q-21 0 -18 20q3 21 24 21q20 0 17 -21zM174 103q-3 -23 -27 -23q-22 0 -19 23t26 23t20 -23zM62 189q-4 -27 -31 -27t-23 27t31 27t23 -27zM160 20q-3 -20 -24 -20 t-18 20q3 21 24 21t18 -21zM46 103q-3 -23 -26 -23t-20 23t26 23t20 -23z" />
<glyph unicode="P" horiz-adv-x="981" d="M783 534q-3 -21 -20.5 -36.5t-38.5 -15.5t-34.5 15.5t-10.5 36.5t20.5 36.5t38.5 15.5t34.5 -15.5t10.5 -36.5zM885 406q-3 -18 -17.5 -31t-32.5 -13t-29.5 13t-8.5 31t17.5 31t32.5 13t29.5 -13t8.5 -31zM655 534q-3 -21 -20.5 -36.5t-38.5 -15.5t-34 15.5t-10 36.5 t20.5 36.5t38.5 15.5t34 -15.5t10 -36.5zM757 406q-3 -18 -17.5 -31t-32.5 -13t-29.5 13t-8.5 31t17.5 31t32.5 13t29.5 -13t8.5 -31zM862 291q-2 -15 -15 -26t-28 -11t-24.5 11t-7.5 26t15 26.5t28 11.5t24.5 -11.5t7.5 -26.5zM527 534q-3 -21 -20.5 -36.5t-38.5 -15.5 t-34 15.5t-10 36.5t20.5 36.5t38.5 15.5t34 -15.5t10 -36.5zM734 291q-2 -15 -14.5 -26t-27.5 -11t-24.5 11t-7.5 26q2 16 14.5 27t27.5 11t24.5 -11.5t7.5 -26.5zM400 534q-3 -21 -20.5 -36.5t-38.5 -15.5t-34.5 15.5t-10.5 36.5t20.5 36.5t38.5 15.5t34.5 -15.5 t10.5 -36.5zM710 189q-4 -27 -31 -27t-23 27t30 27q28 0 24 -27zM272 534q-3 -21 -20.5 -36.5t-38.5 -15.5t-34 15.5t-10 36.5t20.5 36.5t38.5 15.5t34 -15.5t10 -36.5zM582 189q-4 -27 -31 -27t-23 27t31 27t23 -27zM454 189q-4 -27 -30 -27q-28 0 -24 27t31 27t23 -27z M246 406q-3 -18 -17.5 -31t-32.5 -13t-29 13t-8 31t17.5 31t32.5 13t29 -13t8 -31zM327 189q-4 -27 -31 -27t-23 27t30 27q28 0 24 -27zM119 406q-3 -18 -17.5 -31t-32.5 -13t-29.5 13t-8.5 31t17.5 31t32.5 13t29.5 -13t8.5 -31zM224 291q-2 -15 -15 -26t-28 -11t-24.5 11 t-7.5 26t15 26.5t28 11.5t24.5 -11.5t7.5 -26.5zM199 189q-4 -27 -31 -27t-23 27t31 27t23 -27zM96 291q-2 -15 -15 -26t-28 -11t-24.5 11t-7.5 26t15 26.5t28 11.5t24.5 -11.5t7.5 -26.5zM183 103q-3 -23 -26 -23t-20 23t26 23t20 -23zM71 189q-4 -27 -30 -27q-28 0 -24 27 t31 27t23 -27zM169 20q-3 -20 -24 -20q-20 0 -17 20q3 21 23 21q21 0 18 -21zM55 103q-3 -23 -26 -23t-20 23t27 23q22 0 19 -23zM41 20q-3 -20 -23 -20q-21 0 -18 20q3 21 24 21q20 0 17 -21z" />
<glyph unicode="Q" d="M773 534q-3 -21 -20.5 -36.5t-38.5 -15.5t-34 15.5t-10 36.5t20.5 36.5t38.5 15.5t34 -15.5t10 -36.5zM875 406q-3 -18 -17.5 -31t-32.5 -13t-29 13t-8 31t17.5 31t32.5 13t29 -13t8 -31zM646 534q-3 -21 -20.5 -36.5t-38.5 -15.5t-34.5 15.5t-10.5 36.5t20.5 36.5 t38.5 15.5t34.5 -15.5t10.5 -36.5zM748 406q-3 -18 -17.5 -31t-32.5 -13t-29.5 13t-8.5 31t17.5 31t32.5 13t29.5 -13t8.5 -31zM853 291q-2 -15 -15 -26t-28 -11t-24.5 11t-7.5 26t15 26.5t28 11.5t24.5 -11.5t7.5 -26.5zM518 534q-3 -21 -20.5 -36.5t-38.5 -15.5t-34 15.5 t-10 36.5t20.5 36.5t38.5 15.5t34 -15.5t10 -36.5zM828 189q-4 -27 -31 -27t-23 27t31 27t23 -27zM725 291q-2 -15 -15 -26t-28 -11t-24.5 11t-7.5 26t15 26.5t28 11.5t24.5 -11.5t7.5 -26.5zM390 534q-3 -21 -20.5 -36.5t-38.5 -15.5t-34 15.5t-10 36.5t20.5 36.5 t38.5 15.5t34 -15.5t10 -36.5zM700 189q-4 -27 -30 -27q-28 0 -24 27t31 27t23 -27zM798 20q-3 -20 -24 -20q-20 0 -17 20q3 21 23 21q21 0 18 -21zM684 103q-3 -23 -26 -23t-20 23t26 23t20 -23zM263 534q-3 -21 -20.5 -36.5t-38.5 -15.5t-34.5 15.5t-10.5 36.5t20.5 36.5 t38.5 15.5t34.5 -15.5t10.5 -36.5zM670 20q-3 -20 -23 -20q-21 0 -18 20q3 21 24 21q20 0 17 -21zM557 103q-3 -23 -27 -23q-22 0 -19 23t26 23t20 -23zM237 406q-3 -18 -17.5 -31t-32.5 -13t-29.5 13t-8.5 31t17.5 31t32.5 13t29.5 -13t8.5 -31zM109 406q-3 -18 -17.5 -31 t-32.5 -13t-29 13t-8 31t17.5 31t32.5 13t29 -13t8 -31zM214 291q-2 -15 -14.5 -26t-27.5 -11t-24.5 11t-7.5 26q2 16 14.5 27t27.5 11t24.5 -11.5t7.5 -26.5zM415 20q-3 -20 -24 -20q-20 0 -17 20q3 21 23 21q21 0 18 -21zM190 189q-4 -27 -31 -27t-23 27t30 27 q28 0 24 -27zM87 291q-2 -15 -15 -26t-28 -11t-24.5 11t-7.5 26t15 26.5t28 11.5t24.5 -11.5t7.5 -26.5zM287 20q-3 -20 -23 -20q-21 0 -18 20q3 21 24 21q20 0 17 -21zM174 103q-3 -23 -27 -23q-22 0 -19 23t26 23t20 -23zM62 189q-4 -27 -31 -27t-23 27t31 27t23 -27z M160 20q-3 -20 -24 -20t-18 20q3 21 24 21t18 -21zM46 103q-3 -23 -26 -23t-20 23t26 23t20 -23z" />
<glyph unicode="R" horiz-adv-x="981" d="M783 534q-3 -21 -20.5 -36.5t-38.5 -15.5t-34.5 15.5t-10.5 36.5t20.5 36.5t38.5 15.5t34.5 -15.5t10.5 -36.5zM885 406q-3 -18 -17.5 -31t-32.5 -13t-29.5 13t-8.5 31t17.5 31t32.5 13t29.5 -13t8.5 -31zM655 534q-3 -21 -20.5 -36.5t-38.5 -15.5t-34 15.5t-10 36.5 t20.5 36.5t38.5 15.5t34 -15.5t10 -36.5zM757 406q-3 -18 -17.5 -31t-32.5 -13t-29.5 13t-8.5 31t17.5 31t32.5 13t29.5 -13t8.5 -31zM527 534q-3 -21 -20.5 -36.5t-38.5 -15.5t-34 15.5t-10 36.5t20.5 36.5t38.5 15.5t34 -15.5t10 -36.5zM734 291q-2 -15 -14.5 -26 t-27.5 -11t-24.5 11t-7.5 26q2 16 14.5 27t27.5 11t24.5 -11.5t7.5 -26.5zM400 534q-3 -21 -20.5 -36.5t-38.5 -15.5t-34.5 15.5t-10.5 36.5t20.5 36.5t38.5 15.5t34.5 -15.5t10.5 -36.5zM607 291q-2 -15 -15 -26t-28 -11t-24.5 11t-7.5 26t15 26.5t28 11.5t24.5 -11.5 t7.5 -26.5zM807 20q-3 -20 -23 -20q-21 0 -18 20q3 21 24 21q20 0 17 -21zM694 103q-3 -23 -27 -23q-22 0 -19 23t26 23t20 -23zM272 534q-3 -21 -20.5 -36.5t-38.5 -15.5t-34 15.5t-10 36.5t20.5 36.5t38.5 15.5t34 -15.5t10 -36.5zM582 189q-4 -27 -31 -27t-23 27t31 27 t23 -27zM680 20q-3 -20 -24 -20t-18 20q3 21 24 21t18 -21zM566 103q-3 -23 -26 -23t-20 23t26 23t20 -23zM454 189q-4 -27 -30 -27q-28 0 -24 27t31 27t23 -27zM246 406q-3 -18 -17.5 -31t-32.5 -13t-29 13t-8 31t17.5 31t32.5 13t29 -13t8 -31zM327 189q-4 -27 -31 -27 t-23 27t30 27q28 0 24 -27zM119 406q-3 -18 -17.5 -31t-32.5 -13t-29.5 13t-8.5 31t17.5 31t32.5 13t29.5 -13t8.5 -31zM224 291q-2 -15 -15 -26t-28 -11t-24.5 11t-7.5 26t15 26.5t28 11.5t24.5 -11.5t7.5 -26.5zM199 189q-4 -27 -31 -27t-23 27t31 27t23 -27zM96 291 q-2 -15 -15 -26t-28 -11t-24.5 11t-7.5 26t15 26.5t28 11.5t24.5 -11.5t7.5 -26.5zM183 103q-3 -23 -26 -23t-20 23t26 23t20 -23zM71 189q-4 -27 -30 -27q-28 0 -24 27t31 27t23 -27zM169 20q-3 -20 -24 -20q-20 0 -17 20q3 21 23 21q21 0 18 -21zM55 103q-3 -23 -26 -23 t-20 23t27 23q22 0 19 -23zM41 20q-3 -20 -23 -20q-21 0 -18 20q3 21 24 21q20 0 17 -21z" />
<glyph unicode="S" horiz-adv-x="924" d="M773 534q-3 -21 -20.5 -36.5t-38.5 -15.5t-34 15.5t-10 36.5t20.5 36.5t38.5 15.5t34 -15.5t10 -36.5zM646 534q-3 -21 -20.5 -36.5t-38.5 -15.5t-34.5 15.5t-10.5 36.5t20.5 36.5t38.5 15.5t34.5 -15.5t10.5 -36.5zM518 534q-3 -21 -20.5 -36.5t-38.5 -15.5t-34 15.5 t-10 36.5t20.5 36.5t38.5 15.5t34 -15.5t10 -36.5zM828 189q-4 -27 -31 -27t-23 27t31 27t23 -27zM725 291q-2 -15 -15 -26t-28 -11t-24.5 11t-7.5 26t15 26.5t28 11.5t24.5 -11.5t7.5 -26.5zM812 103q-3 -23 -26 -23t-20 23t26 23t20 -23zM390 534q-3 -21 -20.5 -36.5 t-38.5 -15.5t-34 15.5t-10 36.5t20.5 36.5t38.5 15.5t34 -15.5t10 -36.5zM700 189q-4 -27 -30 -27q-28 0 -24 27t31 27t23 -27zM597 291q-2 -15 -14.5 -26t-27.5 -11t-24.5 11t-7.5 26q2 16 14.5 27t27.5 11t24.5 -11.5t7.5 -26.5zM684 103q-3 -23 -26 -23t-20 23t26 23 t20 -23zM263 534q-3 -21 -20.5 -36.5t-38.5 -15.5t-34.5 15.5t-10.5 36.5t20.5 36.5t38.5 15.5t34.5 -15.5t10.5 -36.5zM470 291q-2 -15 -15 -26t-28 -11t-24.5 11t-7.5 26t15 26.5t28 11.5t24.5 -11.5t7.5 -26.5zM670 20q-3 -20 -23 -20q-21 0 -18 20q3 21 24 21 q20 0 17 -21zM237 406q-3 -18 -17.5 -31t-32.5 -13t-29.5 13t-8.5 31t17.5 31t32.5 13t29.5 -13t8.5 -31zM342 291q-2 -15 -15 -26t-28 -11t-24.5 11t-7.5 26t15 26.5t28 11.5t24.5 -11.5t7.5 -26.5zM543 20q-3 -20 -24 -20t-18 20q3 21 24 21t18 -21zM109 406 q-3 -18 -17.5 -31t-32.5 -13t-29 13t-8 31t17.5 31t32.5 13t29 -13t8 -31zM214 291q-2 -15 -14.5 -26t-27.5 -11t-24.5 11t-7.5 26q2 16 14.5 27t27.5 11t24.5 -11.5t7.5 -26.5zM415 20q-3 -20 -24 -20q-20 0 -17 20q3 21 23 21q21 0 18 -21zM287 20q-3 -20 -23 -20 q-21 0 -18 20q3 21 24 21q20 0 17 -21zM174 103q-3 -23 -27 -23q-22 0 -19 23t26 23t20 -23zM160 20q-3 -20 -24 -20t-18 20q3 21 24 21t18 -21zM46 103q-3 -23 -26 -23t-20 23t26 23t20 -23z" />
<glyph unicode="T" horiz-adv-x="839" d="M742 534q-3 -21 -20.5 -36.5t-38.5 -15.5t-34 15.5t-10 36.5t20.5 36.5t38.5 15.5t34 -15.5t10 -36.5zM615 534q-3 -21 -20.5 -36.5t-38.5 -15.5t-34.5 15.5t-10.5 36.5t20.5 36.5t38.5 15.5t34.5 -15.5t10.5 -36.5zM487 534q-3 -21 -20.5 -36.5t-38.5 -15.5t-34 15.5 t-10 36.5t20 36.5t38 15.5t34.5 -15.5t10.5 -36.5zM359 534q-3 -21 -20.5 -36.5t-38.5 -15.5t-34 15.5t-10 36.5t20.5 36.5t38.5 15.5t34 -15.5t10 -36.5zM461 406q-3 -18 -17.5 -31t-32.5 -13t-29.5 13t-8.5 31t17.5 31t32.5 13t29.5 -13t8.5 -31zM232 534 q-3 -21 -20.5 -36.5t-38.5 -15.5t-34.5 15.5t-10.5 36.5t20.5 36.5t38.5 15.5t34.5 -15.5t10.5 -36.5zM334 406q-3 -18 -18 -31t-33 -13t-29 13t-8 31t17.5 31t32.5 13t29.5 -13t8.5 -31zM439 291q-2 -15 -15 -26t-28 -11t-24.5 11t-7.5 26q2 16 14.5 27t27.5 11t25 -11.5 t8 -26.5zM104 534q-3 -21 -20.5 -36.5t-38.5 -15.5t-34 15.5t-10 36.5t20 36.5t38 15.5t34.5 -15.5t10.5 -36.5zM414 189q-4 -27 -31 -27t-23 27t31 27t23 -27zM311 291q-2 -15 -15 -26t-28 -11t-24.5 11t-7.5 26t15 26.5t28 11.5t24.5 -11.5t7.5 -26.5zM398 103 q-3 -23 -26 -23t-20 23t26 23t20 -23zM286 189q-4 -27 -31 -27t-23 27t31 27t23 -27zM384 20q-3 -20 -24 -20t-18 20q3 21 24 21t18 -21zM270 103q-3 -23 -26 -23t-20 23t26 23t20 -23zM256 20q-3 -20 -23 -20q-21 0 -18 20q3 21 23 21q21 0 18 -21z" />
<glyph unicode="U" horiz-adv-x="998" d="M901 534q-3 -21 -20.5 -36.5t-38.5 -15.5t-34 15.5t-10 36.5t20.5 36.5t38.5 15.5t34 -15.5t10 -36.5zM773 534q-3 -21 -20.5 -36.5t-38.5 -15.5t-34 15.5t-10 36.5t20.5 36.5t38.5 15.5t34 -15.5t10 -36.5zM875 406q-3 -18 -17.5 -31t-32.5 -13t-29 13t-8 31t17.5 31 t32.5 13t29 -13t8 -31zM748 406q-3 -18 -17.5 -31t-32.5 -13t-29.5 13t-8.5 31t17.5 31t32.5 13t29.5 -13t8.5 -31zM853 291q-2 -15 -15 -26t-28 -11t-24.5 11t-7.5 26t15 26.5t28 11.5t24.5 -11.5t7.5 -26.5zM828 189q-4 -27 -31 -27t-23 27t31 27t23 -27zM725 291 q-2 -15 -15 -26t-28 -11t-24.5 11t-7.5 26t15 26.5t28 11.5t24.5 -11.5t7.5 -26.5zM812 103q-3 -23 -26 -23t-20 23t26 23t20 -23zM700 189q-4 -27 -30 -27q-28 0 -24 27t31 27t23 -27zM684 103q-3 -23 -26 -23t-20 23t26 23t20 -23zM263 534q-3 -21 -20.5 -36.5 t-38.5 -15.5t-34.5 15.5t-10.5 36.5t20.5 36.5t38.5 15.5t34.5 -15.5t10.5 -36.5zM670 20q-3 -20 -23 -20q-21 0 -18 20q3 21 24 21q20 0 17 -21zM135 534q-3 -21 -20.5 -36.5t-38.5 -15.5t-34 15.5t-10 36.5t20.5 36.5t38.5 15.5t34 -15.5t10 -36.5zM237 406 q-3 -18 -17.5 -31t-32.5 -13t-29.5 13t-8.5 31t17.5 31t32.5 13t29.5 -13t8.5 -31zM543 20q-3 -20 -24 -20t-18 20q3 21 24 21t18 -21zM109 406q-3 -18 -17.5 -31t-32.5 -13t-29 13t-8 31t17.5 31t32.5 13t29 -13t8 -31zM214 291q-2 -15 -14.5 -26t-27.5 -11t-24.5 11 t-7.5 26q2 16 14.5 27t27.5 11t24.5 -11.5t7.5 -26.5zM415 20q-3 -20 -24 -20q-20 0 -17 20q3 21 23 21q21 0 18 -21zM190 189q-4 -27 -31 -27t-23 27t30 27q28 0 24 -27zM87 291q-2 -15 -15 -26t-28 -11t-24.5 11t-7.5 26t15 26.5t28 11.5t24.5 -11.5t7.5 -26.5zM287 20 q-3 -20 -23 -20q-21 0 -18 20q3 21 24 21q20 0 17 -21zM174 103q-3 -23 -27 -23q-22 0 -19 23t26 23t20 -23zM62 189q-4 -27 -31 -27t-23 27t31 27t23 -27zM160 20q-3 -20 -24 -20t-18 20q3 21 24 21t18 -21zM46 103q-3 -23 -26 -23t-20 23t26 23t20 -23z" />
<glyph unicode="V" horiz-adv-x="990" d="M893 534q-3 -21 -20.5 -36.5t-38.5 -15.5t-34 15.5t-10 36.5t20.5 36.5t38.5 15.5t34 -15.5t10 -36.5zM765 534q-3 -21 -20.5 -36.5t-38.5 -15.5t-34 15.5t-10 36.5t20.5 36.5t38.5 15.5t34 -15.5t10 -36.5zM867 406q-3 -18 -17.5 -31t-32.5 -13t-29 13t-8 31t17.5 31 t32.5 13t29 -13t8 -31zM740 406q-3 -18 -17.5 -31t-32.5 -13t-29.5 13t-8.5 31t17.5 31t32.5 13t29.5 -13t8.5 -31zM845 291q-2 -15 -15 -26t-28 -11t-24.5 11t-7.5 26t15 26.5t28 11.5t24.5 -11.5t7.5 -26.5zM820 189q-4 -27 -31 -27t-23 27t31 27t23 -27zM717 291 q-2 -15 -15 -26t-28 -11t-24.5 11t-7.5 26t15 26.5t28 11.5t24.5 -11.5t7.5 -26.5zM692 189q-4 -27 -30 -27q-28 0 -24 27t31 27t23 -27zM676 103q-3 -23 -26 -23t-20 23t26 23t20 -23zM255 534q-3 -21 -20.5 -36.5t-38.5 -15.5t-34.5 15.5t-10.5 36.5t20.5 36.5t38.5 15.5 t34.5 -15.5t10.5 -36.5zM549 103q-3 -23 -27 -23q-22 0 -19 23t26 23t20 -23zM127 534q-3 -21 -20.5 -36.5t-38.5 -15.5t-34 15.5t-10 36.5t20.5 36.5t38.5 15.5t34 -15.5t10 -36.5zM229 406q-3 -18 -17.5 -31t-32.5 -13t-29.5 13t-8.5 31t17.5 31t32.5 13t29.5 -13t8.5 -31 zM535 20q-3 -20 -24 -20t-18 20q3 21 24 21t18 -21zM101 406q-3 -18 -17.5 -31t-32.5 -13t-29 13t-8 31t17.5 31t32.5 13t29 -13t8 -31zM206 291q-2 -15 -14.5 -26t-27.5 -11t-24.5 11t-7.5 26q2 16 14.5 27t27.5 11t24.5 -11.5t7.5 -26.5zM407 20q-3 -20 -24 -20 q-20 0 -17 20q3 21 23 21q21 0 18 -21zM293 103q-3 -23 -26 -23t-20 23t26 23t20 -23zM182 189q-4 -27 -31 -27t-23 27t30 27q28 0 24 -27zM79 291q-2 -15 -15 -26t-28 -11t-24.5 11t-7.5 26t15 26.5t28 11.5t24.5 -11.5t7.5 -26.5zM279 20q-3 -20 -23 -20q-21 0 -18 20 q3 21 24 21q20 0 17 -21zM166 103q-3 -23 -27 -23q-22 0 -19 23t26 23t20 -23zM54 189q-4 -27 -31 -27t-23 27t31 27t23 -27z" />
<glyph unicode="W" horiz-adv-x="1381" d="M1284 534q-3 -21 -20.5 -36.5t-38.5 -15.5t-34 15.5t-10 36.5t20.5 36.5t38.5 15.5t34 -15.5t10 -36.5zM1156 534q-3 -21 -20.5 -36.5t-38.5 -15.5t-34 15.5t-10 36.5t20.5 36.5t38.5 15.5t34 -15.5t10 -36.5zM1258 406q-3 -18 -17.5 -31t-32.5 -13t-29 13t-8 31t17.5 31 t32.5 13t29 -13t8 -31zM1131 406q-3 -18 -17.5 -31t-32.5 -13t-29.5 13t-8.5 31t17.5 31t32.5 13t29.5 -13t8.5 -31zM1236 291q-2 -15 -15 -26t-28 -11t-24.5 11t-7.5 26t15 26.5t28 11.5t24.5 -11.5t7.5 -26.5zM1211 189q-4 -27 -31 -27t-23 27t31 27t23 -27zM1108 291 q-2 -15 -15 -26t-28 -11t-24.5 11t-7.5 26t15 26.5t28 11.5t24.5 -11.5t7.5 -26.5zM1195 103q-3 -23 -26 -23t-20 23t26 23t20 -23zM773 534q-3 -21 -20.5 -36.5t-38.5 -15.5t-34 15.5t-10 36.5t20.5 36.5t38.5 15.5t34 -15.5t10 -36.5zM1083 189q-4 -27 -30 -27 q-28 0 -24 27t31 27t23 -27zM1067 103q-3 -23 -26 -23t-20 23t26 23t20 -23zM646 534q-3 -21 -20.5 -36.5t-38.5 -15.5t-34.5 15.5t-10.5 36.5t20.5 36.5t38.5 15.5t34.5 -15.5t10.5 -36.5zM748 406q-3 -18 -17.5 -31t-32.5 -13t-29.5 13t-8.5 31t17.5 31t32.5 13t29.5 -13 t8.5 -31zM1053 20q-3 -20 -23 -20q-21 0 -18 20q3 21 24 21q20 0 17 -21zM620 406q-3 -18 -17.5 -31t-32.5 -13t-29.5 13t-8.5 31t17.5 31t32.5 13t29.5 -13t8.5 -31zM725 291q-2 -15 -15 -26t-28 -11t-24.5 11t-7.5 26t15 26.5t28 11.5t24.5 -11.5t7.5 -26.5zM926 20 q-3 -20 -24 -20t-18 20q3 21 24 21t18 -21zM700 189q-4 -27 -30 -27q-28 0 -24 27t31 27t23 -27zM597 291q-2 -15 -14.5 -26t-27.5 -11t-24.5 11t-7.5 26q2 16 14.5 27t27.5 11t24.5 -11.5t7.5 -26.5zM798 20q-3 -20 -24 -20q-20 0 -17 20q3 21 23 21q21 0 18 -21zM684 103 q-3 -23 -26 -23t-20 23t26 23t20 -23zM263 534q-3 -21 -20.5 -36.5t-38.5 -15.5t-34.5 15.5t-10.5 36.5t20.5 36.5t38.5 15.5t34.5 -15.5t10.5 -36.5zM573 189q-4 -27 -31 -27t-23 27t30 27q28 0 24 -27zM670 20q-3 -20 -23 -20q-21 0 -18 20q3 21 24 21q20 0 17 -21z M557 103q-3 -23 -27 -23q-22 0 -19 23t26 23t20 -23zM135 534q-3 -21 -20.5 -36.5t-38.5 -15.5t-34 15.5t-10 36.5t20.5 36.5t38.5 15.5t34 -15.5t10 -36.5zM237 406q-3 -18 -17.5 -31t-32.5 -13t-29.5 13t-8.5 31t17.5 31t32.5 13t29.5 -13t8.5 -31zM543 20q-3 -20 -24 -20 t-18 20q3 21 24 21t18 -21zM109 406q-3 -18 -17.5 -31t-32.5 -13t-29 13t-8 31t17.5 31t32.5 13t29 -13t8 -31zM214 291q-2 -15 -14.5 -26t-27.5 -11t-24.5 11t-7.5 26q2 16 14.5 27t27.5 11t24.5 -11.5t7.5 -26.5zM415 20q-3 -20 -24 -20q-20 0 -17 20q3 21 23 21 q21 0 18 -21zM190 189q-4 -27 -31 -27t-23 27t30 27q28 0 24 -27zM87 291q-2 -15 -15 -26t-28 -11t-24.5 11t-7.5 26t15 26.5t28 11.5t24.5 -11.5t7.5 -26.5zM287 20q-3 -20 -23 -20q-21 0 -18 20q3 21 24 21q20 0 17 -21zM174 103q-3 -23 -27 -23q-22 0 -19 23t26 23 t20 -23zM62 189q-4 -27 -31 -27t-23 27t31 27t23 -27zM160 20q-3 -20 -24 -20t-18 20q3 21 24 21t18 -21zM46 103q-3 -23 -26 -23t-20 23t26 23t20 -23z" />
<glyph unicode="X" horiz-adv-x="1135" d="M1038 534q-3 -21 -20.5 -36.5t-38.5 -15.5t-34 15.5t-10 36.5t20.5 36.5t38.5 15.5t34 -15.5t10 -36.5zM910 534q-3 -21 -20.5 -36.5t-38.5 -15.5t-34 15.5t-10 36.5t20.5 36.5t38.5 15.5t34 -15.5t10 -36.5zM885 406q-3 -18 -17.5 -31t-32.5 -13t-29.5 13t-8.5 31 t17.5 31t32.5 13t29.5 -13t8.5 -31zM757 406q-3 -18 -17.5 -31t-32.5 -13t-29.5 13t-8.5 31t17.5 31t32.5 13t29.5 -13t8.5 -31zM734 291q-2 -15 -14.5 -26t-27.5 -11t-24.5 11t-7.5 26q2 16 14.5 27t27.5 11t24.5 -11.5t7.5 -26.5zM935 20q-3 -20 -24 -20q-20 0 -17 20 q3 21 23 21q21 0 18 -21zM821 103q-3 -23 -26 -23t-20 23t26 23t20 -23zM710 189q-4 -27 -31 -27t-23 27t30 27q28 0 24 -27zM607 291q-2 -15 -15 -26t-28 -11t-24.5 11t-7.5 26t15 26.5t28 11.5t24.5 -11.5t7.5 -26.5zM807 20q-3 -20 -23 -20q-21 0 -18 20q3 21 24 21 q20 0 17 -21zM694 103q-3 -23 -27 -23q-22 0 -19 23t26 23t20 -23zM272 534q-3 -21 -20.5 -36.5t-38.5 -15.5t-34 15.5t-10 36.5t20.5 36.5t38.5 15.5t34 -15.5t10 -36.5zM582 189q-4 -27 -31 -27t-23 27t31 27t23 -27zM374 406q-3 -18 -17.5 -31t-32.5 -13t-29.5 13 t-8.5 31t17.5 31t32.5 13t29.5 -13t8.5 -31zM479 291q-2 -15 -15 -26t-28 -11t-24.5 11t-7.5 26t15 26.5t28 11.5t24.5 -11.5t7.5 -26.5zM144 534q-3 -21 -20.5 -36.5t-38.5 -15.5t-34 15.5t-10 36.5t20.5 36.5t38.5 15.5t34 -15.5t10 -36.5zM454 189q-4 -27 -30 -27 q-28 0 -24 27t31 27t23 -27zM246 406q-3 -18 -17.5 -31t-32.5 -13t-29 13t-8 31t17.5 31t32.5 13t29 -13t8 -31zM351 291q-2 -15 -14.5 -26t-27.5 -11t-24.5 11t-7.5 26q2 16 14.5 27t27.5 11t24.5 -11.5t7.5 -26.5zM327 189q-4 -27 -31 -27t-23 27t30 27q28 0 24 -27z M311 103q-3 -23 -27 -23q-22 0 -19 23t26 23t20 -23zM183 103q-3 -23 -26 -23t-20 23t26 23t20 -23zM169 20q-3 -20 -24 -20q-20 0 -17 20q3 21 23 21q21 0 18 -21zM41 20q-3 -20 -23 -20q-21 0 -18 20q3 21 24 21q20 0 17 -21z" />
<glyph unicode="Y" horiz-adv-x="1007" d="M910 534q-3 -21 -20.5 -36.5t-38.5 -15.5t-34 15.5t-10 36.5t20.5 36.5t38.5 15.5t34 -15.5t10 -36.5zM783 534q-3 -21 -20.5 -36.5t-38.5 -15.5t-34.5 15.5t-10.5 36.5t20.5 36.5t38.5 15.5t34.5 -15.5t10.5 -36.5zM885 406q-3 -18 -17.5 -31t-32.5 -13t-29.5 13 t-8.5 31t17.5 31t32.5 13t29.5 -13t8.5 -31zM757 406q-3 -18 -17.5 -31t-32.5 -13t-29.5 13t-8.5 31t17.5 31t32.5 13t29.5 -13t8.5 -31zM862 291q-2 -15 -15 -26t-28 -11t-24.5 11t-7.5 26t15 26.5t28 11.5t24.5 -11.5t7.5 -26.5zM837 189q-4 -27 -30 -27q-28 0 -24 27 t31 27t23 -27zM734 291q-2 -15 -14.5 -26t-27.5 -11t-24.5 11t-7.5 26q2 16 14.5 27t27.5 11t24.5 -11.5t7.5 -26.5zM821 103q-3 -23 -26 -23t-20 23t26 23t20 -23zM710 189q-4 -27 -31 -27t-23 27t30 27q28 0 24 -27zM694 103q-3 -23 -27 -23q-22 0 -19 23t26 23t20 -23z M272 534q-3 -21 -20.5 -36.5t-38.5 -15.5t-34 15.5t-10 36.5t20.5 36.5t38.5 15.5t34 -15.5t10 -36.5zM582 189q-4 -27 -31 -27t-23 27t31 27t23 -27zM680 20q-3 -20 -24 -20t-18 20q3 21 24 21t18 -21zM144 534q-3 -21 -20.5 -36.5t-38.5 -15.5t-34 15.5t-10 36.5 t20.5 36.5t38.5 15.5t34 -15.5t10 -36.5zM454 189q-4 -27 -30 -27q-28 0 -24 27t31 27t23 -27zM246 406q-3 -18 -17.5 -31t-32.5 -13t-29 13t-8 31t17.5 31t32.5 13t29 -13t8 -31zM552 20q-3 -20 -24 -20q-20 0 -17 20q3 21 23 21q21 0 18 -21zM327 189q-4 -27 -31 -27 t-23 27t30 27q28 0 24 -27zM119 406q-3 -18 -17.5 -31t-32.5 -13t-29.5 13t-8.5 31t17.5 31t32.5 13t29.5 -13t8.5 -31zM224 291q-2 -15 -15 -26t-28 -11t-24.5 11t-7.5 26t15 26.5t28 11.5t24.5 -11.5t7.5 -26.5zM424 20q-3 -20 -23 -20q-21 0 -18 20q3 21 24 21 q20 0 17 -21zM199 189q-4 -27 -31 -27t-23 27t31 27t23 -27zM96 291q-2 -15 -15 -26t-28 -11t-24.5 11t-7.5 26t15 26.5t28 11.5t24.5 -11.5t7.5 -26.5zM297 20q-3 -20 -24 -20t-18 20q3 21 24 21t18 -21zM169 20q-3 -20 -24 -20q-20 0 -17 20q3 21 23 21q21 0 18 -21z" />
<glyph unicode="Z" horiz-adv-x="1007" d="M910 534q-3 -21 -20.5 -36.5t-38.5 -15.5t-34 15.5t-10 36.5t20.5 36.5t38.5 15.5t34 -15.5t10 -36.5zM783 534q-3 -21 -20.5 -36.5t-38.5 -15.5t-34.5 15.5t-10.5 36.5t20.5 36.5t38.5 15.5t34.5 -15.5t10.5 -36.5zM655 534q-3 -21 -20.5 -36.5t-38.5 -15.5t-34 15.5 t-10 36.5t20.5 36.5t38.5 15.5t34 -15.5t10 -36.5zM757 406q-3 -18 -17.5 -31t-32.5 -13t-29.5 13t-8.5 31t17.5 31t32.5 13t29.5 -13t8.5 -31zM527 534q-3 -21 -20.5 -36.5t-38.5 -15.5t-34 15.5t-10 36.5t20.5 36.5t38.5 15.5t34 -15.5t10 -36.5zM629 406 q-3 -18 -17.5 -31t-32.5 -13t-29 13t-8 31t17.5 31t32.5 13t29 -13t8 -31zM400 534q-3 -21 -20.5 -36.5t-38.5 -15.5t-34.5 15.5t-10.5 36.5t20.5 36.5t38.5 15.5t34.5 -15.5t10.5 -36.5zM607 291q-2 -15 -15 -26t-28 -11t-24.5 11t-7.5 26t15 26.5t28 11.5t24.5 -11.5 t7.5 -26.5zM807 20q-3 -20 -23 -20q-21 0 -18 20q3 21 24 21q20 0 17 -21zM272 534q-3 -21 -20.5 -36.5t-38.5 -15.5t-34 15.5t-10 36.5t20.5 36.5t38.5 15.5t34 -15.5t10 -36.5zM479 291q-2 -15 -15 -26t-28 -11t-24.5 11t-7.5 26t15 26.5t28 11.5t24.5 -11.5t7.5 -26.5z M680 20q-3 -20 -24 -20t-18 20q3 21 24 21t18 -21zM144 534q-3 -21 -20.5 -36.5t-38.5 -15.5t-34 15.5t-10 36.5t20.5 36.5t38.5 15.5t34 -15.5t10 -36.5zM454 189q-4 -27 -30 -27q-28 0 -24 27t31 27t23 -27zM552 20q-3 -20 -24 -20q-20 0 -17 20q3 21 23 21q21 0 18 -21z M327 189q-4 -27 -31 -27t-23 27t30 27q28 0 24 -27zM424 20q-3 -20 -23 -20q-21 0 -18 20q3 21 24 21q20 0 17 -21zM311 103q-3 -23 -27 -23q-22 0 -19 23t26 23t20 -23zM297 20q-3 -20 -24 -20t-18 20q3 21 24 21t18 -21zM183 103q-3 -23 -26 -23t-20 23t26 23t20 -23z M169 20q-3 -20 -24 -20q-20 0 -17 20q3 21 23 21q21 0 18 -21zM41 20q-3 -20 -23 -20q-21 0 -18 20q3 21 24 21q20 0 17 -21z" />
<glyph unicode="[" horiz-adv-x="487" d="M390 534q-3 -21 -20.5 -36.5t-38.5 -15.5t-34 15.5t-10 36.5t20.5 36.5t38.5 15.5t34 -15.5t10 -36.5zM263 534q-3 -21 -20.5 -36.5t-38.5 -15.5t-34.5 15.5t-10.5 36.5t20.5 36.5t38.5 15.5t34.5 -15.5t10.5 -36.5zM237 406q-3 -18 -17.5 -31t-32.5 -13t-29.5 13 t-8.5 31t17.5 31t32.5 13t29.5 -13t8.5 -31zM109 406q-3 -18 -17.5 -31t-32.5 -13t-29 13t-8 31t17.5 31t32.5 13t29 -13t8 -31zM214 291q-2 -15 -14.5 -26t-27.5 -11t-24.5 11t-7.5 26q2 16 14.5 27t27.5 11t24.5 -11.5t7.5 -26.5zM190 189q-4 -27 -31 -27t-23 27t30 27 q28 0 24 -27zM87 291q-2 -15 -15 -26t-28 -11t-24.5 11t-7.5 26t15 26.5t28 11.5t24.5 -11.5t7.5 -26.5zM287 20q-3 -20 -23 -20q-21 0 -18 20q3 21 24 21q20 0 17 -21zM174 103q-3 -23 -27 -23q-22 0 -19 23t26 23t20 -23zM62 189q-4 -27 -31 -27t-23 27t31 27t23 -27z M160 20q-3 -20 -24 -20t-18 20q3 21 24 21t18 -21zM46 103q-3 -23 -26 -23t-20 23t26 23t20 -23z" />
<glyph unicode="\" horiz-adv-x="879" d="M783 534q-3 -21 -20.5 -36.5t-38.5 -15.5t-34.5 15.5t-10.5 36.5t20.5 36.5t38.5 15.5t34.5 -15.5t10.5 -36.5zM655 534q-3 -21 -20.5 -36.5t-38.5 -15.5t-34 15.5t-10 36.5t20.5 36.5t38.5 15.5t34 -15.5t10 -36.5zM757 406q-3 -18 -17.5 -31t-32.5 -13t-29.5 13 t-8.5 31t17.5 31t32.5 13t29.5 -13t8.5 -31zM629 406q-3 -18 -17.5 -31t-32.5 -13t-29 13t-8 31t17.5 31t32.5 13t29 -13t8 -31zM502 406q-3 -18 -17.5 -31t-32.5 -13t-29.5 13t-8.5 31t17.5 31t32.5 13t29.5 -13t8.5 -31zM607 291q-2 -15 -15 -26t-28 -11t-24.5 11t-7.5 26 t15 26.5t28 11.5t24.5 -11.5t7.5 -26.5zM479 291q-2 -15 -15 -26t-28 -11t-24.5 11t-7.5 26t15 26.5t28 11.5t24.5 -11.5t7.5 -26.5zM454 189q-4 -27 -30 -27q-28 0 -24 27t31 27t23 -27zM351 291q-2 -15 -14.5 -26t-27.5 -11t-24.5 11t-7.5 26q2 16 14.5 27t27.5 11 t24.5 -11.5t7.5 -26.5zM327 189q-4 -27 -31 -27t-23 27t30 27q28 0 24 -27zM311 103q-3 -23 -27 -23q-22 0 -19 23t26 23t20 -23zM199 189q-4 -27 -31 -27t-23 27t31 27t23 -27zM183 103q-3 -23 -26 -23t-20 23t26 23t20 -23zM169 20q-3 -20 -24 -20q-20 0 -17 20 q3 21 23 21q21 0 18 -21zM55 103q-3 -23 -26 -23t-20 23t27 23q22 0 19 -23zM41 20q-3 -20 -23 -20q-21 0 -18 20q3 21 24 21q20 0 17 -21z" />
<glyph unicode="]" horiz-adv-x="470" d="M272 534q-3 -21 -20.5 -36.5t-38.5 -15.5t-34 15.5t-10 36.5t20.5 36.5t38.5 15.5t34 -15.5t10 -36.5zM374 406q-3 -18 -17.5 -31t-32.5 -13t-29.5 13t-8.5 31t17.5 31t32.5 13t29.5 -13t8.5 -31zM144 534q-3 -21 -20.5 -36.5t-38.5 -15.5t-34 15.5t-10 36.5t20.5 36.5 t38.5 15.5t34 -15.5t10 -36.5zM246 406q-3 -18 -17.5 -31t-32.5 -13t-29 13t-8 31t17.5 31t32.5 13t29 -13t8 -31zM351 291q-2 -15 -14.5 -26t-27.5 -11t-24.5 11t-7.5 26q2 16 14.5 27t27.5 11t24.5 -11.5t7.5 -26.5zM327 189q-4 -27 -31 -27t-23 27t30 27q28 0 24 -27z M224 291q-2 -15 -15 -26t-28 -11t-24.5 11t-7.5 26t15 26.5t28 11.5t24.5 -11.5t7.5 -26.5zM311 103q-3 -23 -27 -23q-22 0 -19 23t26 23t20 -23zM199 189q-4 -27 -31 -27t-23 27t31 27t23 -27zM183 103q-3 -23 -26 -23t-20 23t26 23t20 -23zM169 20q-3 -20 -24 -20 q-20 0 -17 20q3 21 23 21q21 0 18 -21zM41 20q-3 -20 -23 -20q-21 0 -18 20q3 21 24 21q20 0 17 -21z" />
<glyph unicode="^" horiz-adv-x="681" d="M378 534q-3 -21 -20.5 -36.5t-38.5 -15.5t-34 15.5t-10 36.5t20.5 36.5t38.5 15.5t34 -15.5t10 -36.5zM480 406q-3 -18 -17.5 -31t-32.5 -13t-29 13t-8 31t17.5 31t32.5 13t29 -13t8 -31zM585 291q-2 -15 -14.5 -26t-27.5 -11t-24.5 11t-7.5 26q2 16 14.5 27t27.5 11 t24.5 -11.5t7.5 -26.5zM353 406q-3 -18 -17.5 -31t-32.5 -13t-29.5 13t-8.5 31t17.5 31t32.5 13t29.5 -13t8.5 -31zM458 291q-2 -15 -15 -26t-28 -11t-24.5 11t-7.5 26t15 26.5t28 11.5t24.5 -11.5t7.5 -26.5zM225 406q-3 -18 -17.5 -31t-32.5 -13t-29.5 13t-8.5 31t17.5 31 t32.5 13t29.5 -13t8.5 -31zM202 291q-2 -15 -14.5 -26t-27.5 -11t-24.5 11t-7.5 26q2 16 14.5 27t27.5 11t24.5 -11.5t7.5 -26.5zM75 291q-2 -15 -15 -26t-28 -11t-24.5 11t-7.5 26t15 26.5t28 11.5t24.5 -11.5t7.5 -26.5z" />
<glyph unicode="_" horiz-adv-x="903" d="M807 20q-3 -20 -23 -20q-21 0 -18 20q3 21 24 21q20 0 17 -21zM680 20q-3 -20 -24 -20t-18 20q3 21 24 21t18 -21zM552 20q-3 -20 -24 -20q-20 0 -17 20q3 21 23 21q21 0 18 -21zM424 20q-3 -20 -23 -20q-21 0 -18 20q3 21 24 21q20 0 17 -21zM297 20q-3 -20 -24 -20 t-18 20q3 21 24 21t18 -21zM169 20q-3 -20 -24 -20q-20 0 -17 20q3 21 23 21q21 0 18 -21zM41 20q-3 -20 -23 -20q-21 0 -18 20q3 21 24 21q20 0 17 -21z" />
<glyph unicode="`" horiz-adv-x="456" d="M256 789q-4 -26 -25.5 -45t-47.5 -19t-42.5 19t-12.5 45t25.5 45t47.5 19t42.5 -19t12.5 -45zM359 661q-3 -24 -22 -40.5t-43 -16.5t-38.5 16.5t-11.5 40.5t22.5 41t43.5 17t38 -17t11 -41zM128 789q-4 -26 -25.5 -45t-47.5 -19t-42 19t-12 45t25 45t47 19t42.5 -19 t12.5 -45zM232 661q-3 -24 -22.5 -40.5t-43.5 -16.5t-38 16.5t-11 40.5t22 41t43 17t38.5 -17t11.5 -41z" />
<glyph unicode="a" horiz-adv-x="949" d="M748 406q-3 -18 -17.5 -31t-32.5 -13t-29.5 13t-8.5 31t17.5 31t32.5 13t29.5 -13t8.5 -31zM853 291q-2 -15 -15 -26t-28 -11t-24.5 11t-7.5 26t15 26.5t28 11.5t24.5 -11.5t7.5 -26.5zM828 189q-4 -27 -31 -27t-23 27t31 27t23 -27zM620 406q-3 -18 -17.5 -31t-32.5 -13 t-29.5 13t-8.5 31t17.5 31t32.5 13t29.5 -13t8.5 -31zM725 291q-2 -15 -15 -26t-28 -11t-24.5 11t-7.5 26t15 26.5t28 11.5t24.5 -11.5t7.5 -26.5zM812 103q-3 -23 -26 -23t-20 23t26 23t20 -23zM700 189q-4 -27 -30 -27q-28 0 -24 27t31 27t23 -27zM492 406 q-3 -18 -17.5 -31t-32.5 -13t-29 13t-8 31t17.5 31t32.5 13t29 -13t8 -31zM684 103q-3 -23 -26 -23t-20 23t26 23t20 -23zM573 189q-4 -27 -31 -27t-23 27t30 27q28 0 24 -27zM365 406q-3 -18 -17.5 -31t-32.5 -13t-29.5 13t-8.5 31t17.5 31t32.5 13t29.5 -13t8.5 -31z M670 20q-3 -20 -23 -20q-21 0 -18 20q3 21 24 21q20 0 17 -21zM445 189q-4 -27 -31 -27t-23 27t31 27t23 -27zM237 406q-3 -18 -17.5 -31t-32.5 -13t-29.5 13t-8.5 31t17.5 31t32.5 13t29.5 -13t8.5 -31zM543 20q-3 -20 -24 -20t-18 20q3 21 24 21t18 -21zM317 189 q-4 -27 -30 -27q-28 0 -24 27t31 27t23 -27zM415 20q-3 -20 -24 -20q-20 0 -17 20q3 21 23 21q21 0 18 -21zM190 189q-4 -27 -31 -27t-23 27t30 27q28 0 24 -27zM287 20q-3 -20 -23 -20q-21 0 -18 20q3 21 24 21q20 0 17 -21zM174 103q-3 -23 -27 -23q-22 0 -19 23t26 23 t20 -23zM160 20q-3 -20 -24 -20t-18 20q3 21 24 21t18 -21zM46 103q-3 -23 -26 -23t-20 23t26 23t20 -23z" />
<glyph unicode="b" horiz-adv-x="949" d="M748 406q-3 -18 -17.5 -31t-32.5 -13t-29.5 13t-8.5 31t17.5 31t32.5 13t29.5 -13t8.5 -31zM853 291q-2 -15 -15 -26t-28 -11t-24.5 11t-7.5 26t15 26.5t28 11.5t24.5 -11.5t7.5 -26.5zM828 189q-4 -27 -31 -27t-23 27t31 27t23 -27zM620 406q-3 -18 -17.5 -31t-32.5 -13 t-29.5 13t-8.5 31t17.5 31t32.5 13t29.5 -13t8.5 -31zM725 291q-2 -15 -15 -26t-28 -11t-24.5 11t-7.5 26t15 26.5t28 11.5t24.5 -11.5t7.5 -26.5zM812 103q-3 -23 -26 -23t-20 23t26 23t20 -23zM700 189q-4 -27 -30 -27q-28 0 -24 27t31 27t23 -27zM492 406 q-3 -18 -17.5 -31t-32.5 -13t-29 13t-8 31t17.5 31t32.5 13t29 -13t8 -31zM684 103q-3 -23 -26 -23t-20 23t26 23t20 -23zM263 534q-3 -21 -20.5 -36.5t-38.5 -15.5t-34.5 15.5t-10.5 36.5t20.5 36.5t38.5 15.5t34.5 -15.5t10.5 -36.5zM365 406q-3 -18 -17.5 -31t-32.5 -13 t-29.5 13t-8.5 31t17.5 31t32.5 13t29.5 -13t8.5 -31zM670 20q-3 -20 -23 -20q-21 0 -18 20q3 21 24 21q20 0 17 -21zM135 534q-3 -21 -20.5 -36.5t-38.5 -15.5t-34 15.5t-10 36.5t20.5 36.5t38.5 15.5t34 -15.5t10 -36.5zM237 406q-3 -18 -17.5 -31t-32.5 -13t-29.5 13 t-8.5 31t17.5 31t32.5 13t29.5 -13t8.5 -31zM543 20q-3 -20 -24 -20t-18 20q3 21 24 21t18 -21zM109 406q-3 -18 -17.5 -31t-32.5 -13t-29 13t-8 31t17.5 31t32.5 13t29 -13t8 -31zM214 291q-2 -15 -14.5 -26t-27.5 -11t-24.5 11t-7.5 26q2 16 14.5 27t27.5 11t24.5 -11.5 t7.5 -26.5zM415 20q-3 -20 -24 -20q-20 0 -17 20q3 21 23 21q21 0 18 -21zM190 189q-4 -27 -31 -27t-23 27t30 27q28 0 24 -27zM87 291q-2 -15 -15 -26t-28 -11t-24.5 11t-7.5 26t15 26.5t28 11.5t24.5 -11.5t7.5 -26.5zM287 20q-3 -20 -23 -20q-21 0 -18 20q3 21 24 21 q20 0 17 -21zM174 103q-3 -23 -27 -23q-22 0 -19 23t26 23t20 -23zM62 189q-4 -27 -31 -27t-23 27t31 27t23 -27zM160 20q-3 -20 -24 -20t-18 20q3 21 24 21t18 -21zM46 103q-3 -23 -26 -23t-20 23t26 23t20 -23z" />
<glyph unicode="c" horiz-adv-x="844" d="M748 406q-3 -18 -17.5 -31t-32.5 -13t-29.5 13t-8.5 31t17.5 31t32.5 13t29.5 -13t8.5 -31zM620 406q-3 -18 -17.5 -31t-32.5 -13t-29.5 13t-8.5 31t17.5 31t32.5 13t29.5 -13t8.5 -31zM492 406q-3 -18 -17.5 -31t-32.5 -13t-29 13t-8 31t17.5 31t32.5 13t29 -13t8 -31z M365 406q-3 -18 -17.5 -31t-32.5 -13t-29.5 13t-8.5 31t17.5 31t32.5 13t29.5 -13t8.5 -31zM670 20q-3 -20 -23 -20q-21 0 -18 20q3 21 24 21q20 0 17 -21zM237 406q-3 -18 -17.5 -31t-32.5 -13t-29.5 13t-8.5 31t17.5 31t32.5 13t29.5 -13t8.5 -31zM543 20q-3 -20 -24 -20 t-18 20q3 21 24 21t18 -21zM214 291q-2 -15 -14.5 -26t-27.5 -11t-24.5 11t-7.5 26q2 16 14.5 27t27.5 11t24.5 -11.5t7.5 -26.5zM415 20q-3 -20 -24 -20q-20 0 -17 20q3 21 23 21q21 0 18 -21zM190 189q-4 -27 -31 -27t-23 27t30 27q28 0 24 -27zM87 291q-2 -15 -15 -26 t-28 -11t-24.5 11t-7.5 26t15 26.5t28 11.5t24.5 -11.5t7.5 -26.5zM287 20q-3 -20 -23 -20q-21 0 -18 20q3 21 24 21q20 0 17 -21zM174 103q-3 -23 -27 -23q-22 0 -19 23t26 23t20 -23zM62 189q-4 -27 -31 -27t-23 27t31 27t23 -27zM160 20q-3 -20 -24 -20t-18 20 q3 21 24 21t18 -21zM46 103q-3 -23 -26 -23t-20 23t26 23t20 -23z" />
<glyph unicode="d" horiz-adv-x="998" d="M901 534q-3 -21 -20.5 -36.5t-38.5 -15.5t-34 15.5t-10 36.5t20.5 36.5t38.5 15.5t34 -15.5t10 -36.5zM773 534q-3 -21 -20.5 -36.5t-38.5 -15.5t-34 15.5t-10 36.5t20.5 36.5t38.5 15.5t34 -15.5t10 -36.5zM875 406q-3 -18 -17.5 -31t-32.5 -13t-29 13t-8 31t17.5 31 t32.5 13t29 -13t8 -31zM748 406q-3 -18 -17.5 -31t-32.5 -13t-29.5 13t-8.5 31t17.5 31t32.5 13t29.5 -13t8.5 -31zM853 291q-2 -15 -15 -26t-28 -11t-24.5 11t-7.5 26t15 26.5t28 11.5t24.5 -11.5t7.5 -26.5zM828 189q-4 -27 -31 -27t-23 27t31 27t23 -27zM620 406 q-3 -18 -17.5 -31t-32.5 -13t-29.5 13t-8.5 31t17.5 31t32.5 13t29.5 -13t8.5 -31zM725 291q-2 -15 -15 -26t-28 -11t-24.5 11t-7.5 26t15 26.5t28 11.5t24.5 -11.5t7.5 -26.5zM812 103q-3 -23 -26 -23t-20 23t26 23t20 -23zM700 189q-4 -27 -30 -27q-28 0 -24 27t31 27 t23 -27zM492 406q-3 -18 -17.5 -31t-32.5 -13t-29 13t-8 31t17.5 31t32.5 13t29 -13t8 -31zM684 103q-3 -23 -26 -23t-20 23t27 23q22 0 19 -23zM365 406q-3 -18 -17.5 -31t-32.5 -13t-29.5 13t-8.5 31t17.5 31t32.5 13t29.5 -13t8.5 -31zM670 20q-3 -20 -23 -20 q-21 0 -18 20q3 21 24 21q20 0 17 -21zM237 406q-3 -18 -17.5 -31t-32.5 -13t-29.5 13t-8.5 31t17.5 31t32.5 13t29.5 -13t8.5 -31zM543 20q-3 -20 -24 -20t-18 20q3 21 24 21t18 -21zM214 291q-2 -15 -14.5 -26t-27.5 -11t-24.5 11t-7.5 26q2 16 14.5 27t27.5 11 t24.5 -11.5t7.5 -26.5zM415 20q-3 -20 -24 -20q-20 0 -17 20q3 21 23 21q21 0 18 -21zM190 189q-4 -27 -31 -27t-23 27t30 27q28 0 24 -27zM87 291q-2 -15 -15 -26t-28 -11t-24.5 11t-7.5 26t15 26.5t28 11.5t24.5 -11.5t7.5 -26.5zM287 20q-3 -20 -23 -20q-21 0 -18 20 q3 21 24 21q20 0 17 -21zM174 103q-3 -23 -27 -23q-22 0 -19 23t26 23t20 -23zM62 189q-4 -27 -31 -27t-23 27t31 27t23 -27zM160 20q-3 -20 -24 -20t-18 20q3 21 24 21t18 -21zM46 103q-3 -23 -26 -23t-20 23t26 23t20 -23z" />
<glyph unicode="e" horiz-adv-x="949" d="M748 406q-3 -18 -17.5 -31t-32.5 -13t-29.5 13t-8.5 31t17.5 31t32.5 13t29.5 -13t8.5 -31zM853 291q-2 -15 -15 -26t-28 -11t-24.5 11t-7.5 26t15 26.5t28 11.5t24.5 -11.5t7.5 -26.5zM828 189q-4 -27 -31 -27t-23 27t31 27t23 -27zM620 406q-3 -18 -17.5 -31t-32.5 -13 t-29.5 13t-8.5 31t17.5 31t32.5 13t29.5 -13t8.5 -31zM725 291q-2 -15 -15 -26t-28 -11t-24.5 11t-7.5 26t15 26.5t28 11.5t24.5 -11.5t7.5 -26.5zM700 189q-4 -27 -30 -27q-28 0 -24 27t31 27t23 -27zM492 406q-3 -18 -17.5 -31t-32.5 -13t-29 13t-8 31t17.5 31t32.5 13 t29 -13t8 -31zM573 189q-4 -27 -31 -27t-23 27t30 27q28 0 24 -27zM365 406q-3 -18 -17.5 -31t-32.5 -13t-29.5 13t-8.5 31t17.5 31t32.5 13t29.5 -13t8.5 -31zM670 20q-3 -20 -23 -20q-21 0 -18 20q3 21 24 21q20 0 17 -21zM445 189q-4 -27 -31 -27t-23 27t31 27t23 -27z M237 406q-3 -18 -17.5 -31t-32.5 -13t-29.5 13t-8.5 31t17.5 31t32.5 13t29.5 -13t8.5 -31zM543 20q-3 -20 -24 -20t-18 20q3 21 24 21t18 -21zM317 189q-4 -27 -30 -27q-28 0 -24 27t31 27t23 -27zM214 291q-2 -15 -14.5 -26t-27.5 -11t-24.5 11t-7.5 26q2 16 14.5 27 t27.5 11t24.5 -11.5t7.5 -26.5zM415 20q-3 -20 -24 -20q-20 0 -17 20q3 21 23 21q21 0 18 -21zM190 189q-4 -27 -31 -27t-23 27t30 27q28 0 24 -27zM87 291q-2 -15 -15 -26t-28 -11t-24.5 11t-7.5 26t15 26.5t28 11.5t24.5 -11.5t7.5 -26.5zM287 20q-3 -20 -23 -20 q-21 0 -18 20q3 21 24 21q20 0 17 -21zM174 103q-3 -23 -27 -23q-22 0 -19 23t26 23t20 -23zM62 189q-4 -27 -31 -27t-23 27t31 27t23 -27zM160 20q-3 -20 -24 -20t-18 20q3 21 24 21t18 -21zM46 103q-3 -23 -26 -23t-20 23t26 23t20 -23z" />
<glyph unicode="f" horiz-adv-x="858" d="M761 534q-3 -21 -20.5 -36.5t-38.5 -15.5t-34 15.5t-10 36.5t20.5 36.5t38.5 15.5t34 -15.5t10 -36.5zM634 534q-3 -21 -20.5 -36.5t-38.5 -15.5t-34.5 15.5t-10.5 36.5t20.5 36.5t38.5 15.5t34.5 -15.5t10.5 -36.5zM506 534q-3 -21 -20.5 -36.5t-38.5 -15.5t-34 15.5 t-10 36.5t20.5 36.5t38.5 15.5t34 -15.5t10 -36.5zM378 534q-3 -21 -20.5 -36.5t-38.5 -15.5t-34 15.5t-10 36.5t20.5 36.5t38.5 15.5t34 -15.5t10 -36.5zM585 291q-2 -15 -14.5 -26t-27.5 -11t-24.5 11t-7.5 26q2 16 14.5 27t27.5 11t24.5 -11.5t7.5 -26.5zM353 406 q-3 -18 -17.5 -31t-32.5 -13t-29.5 13t-8.5 31t17.5 31t32.5 13t29.5 -13t8.5 -31zM458 291q-2 -15 -15 -26t-28 -11t-24.5 11t-7.5 26t15 26.5t28 11.5t24.5 -11.5t7.5 -26.5zM225 406q-3 -18 -17.5 -31t-32.5 -13t-29.5 13t-8.5 31t17.5 31t32.5 13t29.5 -13t8.5 -31z M330 291q-2 -15 -15 -26t-28 -11t-24.5 11t-7.5 26t15 26.5t28 11.5t24.5 -11.5t7.5 -26.5zM305 189q-4 -27 -30 -27q-28 0 -24 27t31 27t23 -27zM202 291q-2 -15 -14.5 -26t-27.5 -11t-24.5 11t-7.5 26q2 16 14.5 27t27.5 11t24.5 -11.5t7.5 -26.5zM289 103q-3 -23 -26 -23 t-20 23t26 23t20 -23zM178 189q-4 -27 -31 -27t-23 27t30 27q28 0 24 -27zM75 291q-2 -15 -15 -26t-28 -11t-24.5 11t-7.5 26t15 26.5t28 11.5t24.5 -11.5t7.5 -26.5zM275 20q-3 -20 -23 -20q-21 0 -18 20q3 21 24 21q20 0 17 -21zM162 103q-3 -23 -27 -23q-22 0 -19 23 t26 23t20 -23zM148 20q-3 -20 -24 -20t-18 20q3 21 24 21t18 -21z" />
<glyph unicode="g" horiz-adv-x="949" d="M748 406q-3 -18 -17.5 -31t-32.5 -13t-29.5 13t-8.5 31t17.5 31t32.5 13t29.5 -13t8.5 -31zM853 291q-2 -15 -15 -26t-28 -11t-24.5 11t-7.5 26t15 26.5t28 11.5t24.5 -11.5t7.5 -26.5zM828 189q-4 -27 -31 -27t-23 27t31 27t23 -27zM620 406q-3 -18 -17.5 -31t-32.5 -13 t-29.5 13t-8.5 31t17.5 31t32.5 13t29.5 -13t8.5 -31zM725 291q-2 -15 -15 -26t-28 -11t-24.5 11t-7.5 26t15 26.5t28 11.5t24.5 -11.5t7.5 -26.5zM812 103q-3 -23 -26 -23t-20 23t26 23t20 -23zM700 189q-4 -27 -30 -27q-28 0 -24 27t31 27t23 -27zM492 406 q-3 -18 -17.5 -31t-32.5 -13t-29 13t-8 31t17.5 31t32.5 13t29 -13t8 -31zM798 20q-3 -20 -24 -20q-20 0 -17 20q3 21 23 21q21 0 18 -21zM684 103q-3 -23 -26 -23t-20 23t26 23t20 -23zM365 406q-3 -18 -17.5 -31t-32.5 -13t-29.5 13t-8.5 31t17.5 31t32.5 13t29.5 -13 t8.5 -31zM785 -56q-3 -19 -21 -19q-19 0 -16 19q3 18 21 18q19 0 16 -18zM670 20q-3 -20 -23 -20q-21 0 -18 20q3 21 24 21q20 0 17 -21zM237 406q-3 -18 -17.5 -31t-32.5 -13t-29.5 13t-8.5 31t17.5 31t32.5 13t29.5 -13t8.5 -31zM657 -56q-3 -19 -21 -19q-19 0 -16 19 q3 18 21 18q19 0 16 -18zM543 20q-3 -20 -24 -20t-18 20q3 21 24 21t18 -21zM645 -130q-2 -17 -19 -17q-16 0 -14 17q2 16 19 16q16 0 14 -16zM214 291q-2 -15 -14.5 -26t-27.5 -11t-24.5 11t-7.5 26q2 16 14.5 27t27.5 11t24.5 -11.5t7.5 -26.5zM415 20q-3 -20 -24 -20 q-20 0 -17 20q3 21 23 21q21 0 18 -21zM518 -130q-2 -17 -19 -17t-15 17q2 16 19 16t15 -16zM190 189q-4 -27 -31 -27t-23 27t30 27q28 0 24 -27zM87 291q-2 -15 -15 -26t-28 -11t-24.5 11t-7.5 26t15 26.5t28 11.5t24.5 -11.5t7.5 -26.5zM287 20q-3 -20 -23 -20 q-21 0 -18 20q3 21 24 21q20 0 17 -21zM174 103q-3 -23 -27 -23q-22 0 -19 23t26 23t20 -23zM390 -130q-2 -17 -19 -17t-15 17q2 16 20 16q16 0 14 -16zM62 189q-4 -27 -31 -27t-23 27t31 27t23 -27zM160 20q-3 -20 -24 -20t-18 20q3 21 24 21t18 -21zM46 103 q-3 -23 -26 -23t-20 23t26 23t20 -23zM262 -130q-2 -17 -19 -17q-16 0 -14 17q2 16 19 16q16 0 14 -16zM135 -130q-2 -17 -19 -17t-15 17q2 16 19 16t15 -16z" />
<glyph unicode="h" horiz-adv-x="958" d="M757 406q-3 -18 -17.5 -31t-32.5 -13t-29.5 13t-8.5 31t17.5 31t32.5 13t29.5 -13t8.5 -31zM862 291q-2 -15 -14.5 -26t-28.5 -11q-15 0 -24.5 11t-7.5 26t15 26.5t28 11.5t24.5 -11.5t7.5 -26.5zM837 189q-4 -27 -30 -27q-28 0 -24 27t31 27t23 -27zM629 406 q-3 -18 -17.5 -31t-32.5 -13t-29 13t-8 31t17.5 31t32.5 13t29 -13t8 -31zM734 291q-2 -15 -14.5 -26t-27.5 -11t-24.5 11t-7.5 26q2 16 14.5 27t27.5 11t24.5 -11.5t7.5 -26.5zM821 103q-3 -23 -26 -23t-20 23t27 23q22 0 19 -23zM710 189q-4 -27 -31 -27t-23 27t30 27 q28 0 24 -27zM502 406q-3 -18 -17.5 -31t-32.5 -13t-29.5 13t-8.5 31t17.5 31t32.5 13t29.5 -13t8.5 -31zM807 20q-3 -20 -23 -20q-21 0 -18 20q3 21 24 21q20 0 17 -21zM694 103q-3 -23 -27 -23q-22 0 -19 23t26 23t20 -23zM272 534q-3 -21 -20.5 -36.5t-38.5 -15.5 t-34 15.5t-10 36.5t20.5 36.5t38.5 15.5t34 -15.5t10 -36.5zM374 406q-3 -18 -17.5 -31t-32.5 -13t-29.5 13t-8.5 31t17.5 31t32.5 13t29.5 -13t8.5 -31zM680 20q-3 -20 -24 -20t-18 20q3 21 24 21t18 -21zM144 534q-3 -21 -20 -36.5t-38 -15.5t-34.5 15.5t-10.5 36.5 t20.5 36.5t38.5 15.5t34 -15.5t10 -36.5zM246 406q-3 -18 -17.5 -31t-32.5 -13t-29 13t-8 31t17.5 31t32.5 13t29 -13t8 -31zM119 406q-3 -18 -17.5 -31t-32.5 -13t-29.5 13t-8.5 31t17.5 31t32.5 13t29.5 -13t8.5 -31zM224 291q-2 -15 -15 -26t-28 -11t-24.5 11t-7.5 26 t15 26.5t28 11.5t24.5 -11.5t7.5 -26.5zM199 189q-4 -27 -31 -27t-23 27t31 27t23 -27zM96 291q-2 -15 -15 -26t-28 -11t-24.5 11t-7.5 26t15 26.5t28 11.5t24.5 -11.5t7.5 -26.5zM183 103q-3 -23 -26 -23t-20 23t26 23t20 -23zM71 189q-4 -27 -30 -27q-28 0 -24 27t31 27 t23 -27zM169 20q-3 -20 -24 -20q-20 0 -17 20q3 21 23 21q21 0 18 -21zM55 103q-3 -23 -26 -23t-20 23t27 23q22 0 19 -23zM41 20q-3 -20 -23 -20q-21 0 -18 20q3 21 24 21q20 0 17 -21z" />
<glyph unicode="i" horiz-adv-x="369" d="M272 534q-3 -21 -20.5 -36.5t-38.5 -15.5t-34 15.5t-10 36.5t20.5 36.5t38.5 15.5t34 -15.5t10 -36.5zM144 534q-3 -21 -20 -36.5t-38 -15.5t-34.5 15.5t-10.5 36.5t20.5 36.5t38.5 15.5t34 -15.5t10 -36.5zM224 291q-2 -15 -15 -26t-28 -11t-24.5 11t-7.5 26t15 26.5 t28 11.5t24.5 -11.5t7.5 -26.5zM199 189q-4 -27 -31 -27t-23 27t31 27t23 -27zM96 291q-2 -15 -15 -26t-28 -11t-24.5 11t-7.5 26t15 26.5t28 11.5t24.5 -11.5t7.5 -26.5zM183 103q-3 -23 -26 -23t-20 23t26 23t20 -23zM71 189q-4 -27 -30 -27q-28 0 -24 27t31 27t23 -27z M169 20q-3 -20 -24 -20q-20 0 -17 20q3 21 23 21q21 0 18 -21zM55 103q-3 -23 -26 -23t-20 23t27 23q22 0 19 -23zM41 20q-3 -20 -23 -20q-21 0 -18 20q3 21 24 21q20 0 17 -21z" />
<glyph unicode="j" horiz-adv-x="888" d="M791 534q-3 -21 -20 -36.5t-38 -15.5t-34.5 15.5t-10.5 36.5t20.5 36.5t38.5 15.5t34 -15.5t10 -36.5zM664 534q-3 -21 -20.5 -36.5t-38.5 -15.5t-34.5 15.5t-10.5 36.5t20.5 36.5t38.5 15.5t34.5 -15.5t10.5 -36.5zM743 291q-2 -15 -15 -26t-28 -11t-24.5 11t-7.5 26 t15 26.5t28 11.5t24.5 -11.5t7.5 -26.5zM718 189q-4 -27 -30 -27q-28 0 -24 27t31 27t23 -27zM615 291q-5 -37 -42 -37q-15 0 -24.5 11t-7.5 26q2 16 14.5 27t27.5 11t24.5 -11.5t7.5 -26.5zM702 103q-3 -23 -26 -23t-20 23t27 23q22 0 19 -23zM591 189q-4 -27 -31 -27 t-23 27t31 27t23 -27zM688 20q-3 -20 -23 -20q-21 0 -18 20q3 21 24 21q20 0 17 -21zM575 103q-3 -23 -27 -23q-22 0 -19 23t26 23t20 -23zM676 -56q-3 -19 -22 -19t-16 19q3 18 22 18t16 -18zM561 20q-3 -20 -24 -20t-18 20q3 21 24 21t18 -21zM548 -56q-3 -19 -21 -19 q-19 0 -16 19q3 18 21 18q19 0 16 -18zM536 -130q-2 -17 -19 -17t-15 17q2 16 19 16t15 -16zM408 -130q-2 -17 -19 -17t-15 17q2 16 20 16q16 0 14 -16zM280 -130q-2 -17 -19 -17q-16 0 -14 17q2 16 19 16q16 0 14 -16zM165 -56q-3 -19 -21 -19q-19 0 -16 19q3 18 21 18 q19 0 16 -18zM153 -130q-2 -17 -19 -17t-15 17q2 16 19 16t15 -16zM37 -56q-3 -19 -21 -19q-19 0 -16 19q3 18 21 18q19 0 16 -18z" />
<glyph unicode="k" horiz-adv-x="776" d="M629 406q-3 -18 -17.5 -31t-32.5 -13t-29 13t-8 31t17.5 31t32.5 13t29 -13t8 -31zM502 406q-3 -18 -17.5 -31t-32.5 -13t-29.5 13t-8.5 31t17.5 31t32.5 13t29.5 -13t8.5 -31zM272 534q-3 -21 -20.5 -36.5t-38.5 -15.5t-34 15.5t-10 36.5t20.5 36.5t38.5 15.5t34 -15.5 t10 -36.5zM479 291q-2 -15 -15 -26t-28 -11t-24.5 11t-7.5 26t15 26.5t28 11.5t24.5 -11.5t7.5 -26.5zM680 20q-3 -20 -24 -20t-18 20q3 21 24 21t18 -21zM566 103q-3 -23 -26 -23t-20 23t26 23t20 -23zM144 534q-3 -21 -20 -36.5t-38 -15.5t-34.5 15.5t-10.5 36.5 t20.5 36.5t38.5 15.5t34 -15.5t10 -36.5zM454 189q-4 -27 -30 -27q-28 0 -24 27t31 27t23 -27zM246 406q-3 -18 -17.5 -31t-32.5 -13t-29 13t-8 31t17.5 31t32.5 13t29 -13t8 -31zM351 291q-2 -15 -14.5 -26t-27.5 -11t-24.5 11t-7.5 26q2 16 14.5 27t27.5 11t24.5 -11.5 t7.5 -26.5zM552 20q-3 -20 -24 -20q-20 0 -17 20q3 21 23 21q21 0 18 -21zM438 103q-3 -23 -26 -23t-20 23t27 23q22 0 19 -23zM327 189q-4 -27 -31 -27t-23 27t30 27q28 0 24 -27zM119 406q-3 -18 -17.5 -31t-32.5 -13t-29.5 13t-8.5 31t17.5 31t32.5 13t29.5 -13t8.5 -31z M224 291q-2 -15 -15 -26t-28 -11t-24.5 11t-7.5 26t15 26.5t28 11.5t24.5 -11.5t7.5 -26.5zM199 189q-4 -27 -31 -27t-23 27t31 27t23 -27zM96 291q-2 -15 -15 -26t-28 -11t-24.5 11t-7.5 26t15 26.5t28 11.5t24.5 -11.5t7.5 -26.5zM183 103q-3 -23 -26 -23t-20 23t26 23 t20 -23zM71 189q-4 -27 -30 -27q-28 0 -24 27t31 27t23 -27zM169 20q-3 -20 -24 -20q-20 0 -17 20q3 21 23 21q21 0 18 -21zM55 103q-3 -23 -26 -23t-20 23t27 23q22 0 19 -23zM41 20q-3 -20 -23 -20q-21 0 -18 20q3 21 24 21q20 0 17 -21z" />
<glyph unicode="l" horiz-adv-x="383" d="M263 534q-3 -21 -20.5 -36.5t-38.5 -15.5t-34.5 15.5t-10.5 36.5t20.5 36.5t38.5 15.5t34.5 -15.5t10.5 -36.5zM135 534q-3 -21 -20.5 -36.5t-38.5 -15.5t-34 15.5t-10 36.5t20.5 36.5t38.5 15.5t34 -15.5t10 -36.5zM237 406q-3 -18 -17.5 -31t-32.5 -13t-29.5 13 t-8.5 31t17.5 31t32.5 13t29.5 -13t8.5 -31zM109 406q-3 -18 -17.5 -31t-32.5 -13t-29 13t-8 31t17.5 31t32.5 13t29 -13t8 -31zM214 291q-2 -15 -14.5 -26t-27.5 -11t-24.5 11t-7.5 26q2 16 14.5 27t27.5 11t24.5 -11.5t7.5 -26.5zM190 189q-4 -27 -31 -27t-23 27t30 27 q28 0 24 -27zM87 291q-2 -15 -15 -26t-28 -11t-24.5 11t-7.5 26t15 26.5t28 11.5t24.5 -11.5t7.5 -26.5zM287 20q-3 -20 -23 -20q-21 0 -18 20q3 21 24 21q20 0 17 -21zM174 103q-3 -23 -27 -23q-22 0 -19 23t26 23t20 -23zM62 189q-4 -27 -31 -27t-23 27t31 27t23 -27z M160 20q-3 -20 -24 -20t-18 20q3 21 24 21t18 -21zM46 103q-3 -23 -26 -23t-20 23t26 23t20 -23z" />
<glyph unicode="m" horiz-adv-x="1341" d="M1140 406q-3 -18 -17.5 -31t-32.5 -13t-29.5 13t-8.5 31t17.5 31t32.5 13t29.5 -13t8.5 -31zM1245 291q-2 -15 -15 -26t-28 -11t-24.5 11t-7.5 26t15 26.5t28 11.5t24.5 -11.5t7.5 -26.5zM1220 189q-4 -27 -30 -27q-28 0 -24 27t31 27t23 -27zM1012 406q-3 -18 -17.5 -31 t-32.5 -13t-29 13t-8 31t17.5 31t32.5 13t29 -13t8 -31zM1117 291q-2 -15 -14.5 -26t-27.5 -11t-24.5 11t-7.5 26q2 16 14.5 27t27.5 11t24.5 -11.5t7.5 -26.5zM1204 103q-3 -23 -26 -23t-20 23t26 23t20 -23zM1093 189q-4 -27 -31 -27t-23 27t30 27q28 0 24 -27zM885 406 q-3 -18 -17.5 -31t-32.5 -13t-29.5 13t-8.5 31t17.5 31t32.5 13t29.5 -13t8.5 -31zM1190 20q-3 -20 -23 -20q-21 0 -18 20q3 21 24 21q20 0 17 -21zM1077 103q-3 -23 -27 -23q-22 0 -19 23t26 23t20 -23zM757 406q-3 -18 -17.5 -31t-32.5 -13t-29.5 13t-8.5 31t17.5 31 t32.5 13t29.5 -13t8.5 -31zM1063 20q-3 -20 -24 -20t-18 20q3 21 24 21t18 -21zM629 406q-3 -18 -17.5 -31t-32.5 -13t-29 13t-8 31t17.5 31t32.5 13t29 -13t8 -31zM734 291q-2 -15 -14.5 -26t-27.5 -11t-24.5 11t-7.5 26q2 16 14.5 27t27.5 11t24.5 -11.5t7.5 -26.5z M710 189q-4 -27 -31 -27t-23 27t30 27q28 0 24 -27zM502 406q-3 -18 -17.5 -31t-32.5 -13t-29.5 13t-8.5 31t17.5 31t32.5 13t29.5 -13t8.5 -31zM607 291q-2 -15 -15 -26t-28 -11t-24.5 11t-7.5 26t15 26.5t28 11.5t24.5 -11.5t7.5 -26.5zM694 103q-3 -23 -27 -23 q-22 0 -19 23t26 23t20 -23zM582 189q-4 -27 -31 -27t-23 27t31 27t23 -27zM374 406q-3 -18 -17.5 -31t-32.5 -13t-29.5 13t-8.5 31t17.5 31t32.5 13t29.5 -13t8.5 -31zM680 20q-3 -20 -24 -20t-18 20q3 21 24 21t18 -21zM566 103q-3 -23 -26 -23t-20 23t26 23t20 -23z M246 406q-3 -18 -17.5 -31t-32.5 -13t-29 13t-8 31t17.5 31t32.5 13t29 -13t8 -31zM552 20q-3 -20 -24 -20q-20 0 -17 20q3 21 23 21q21 0 18 -21zM224 291q-2 -15 -15 -26t-28 -11t-24.5 11t-7.5 26t15 26.5t28 11.5t24.5 -11.5t7.5 -26.5zM199 189q-4 -27 -31 -27t-23 27 t31 27t23 -27zM96 291q-2 -15 -15 -26t-28 -11t-24.5 11t-7.5 26t15 26.5t28 11.5t24.5 -11.5t7.5 -26.5zM183 103q-3 -23 -26 -23t-20 23t26 23t20 -23zM71 189q-4 -27 -30 -27q-28 0 -24 27t31 27t23 -27zM169 20q-3 -20 -24 -20q-20 0 -17 20q3 21 23 21q21 0 18 -21z M55 103q-3 -23 -26 -23t-20 23t26 23t20 -23zM41 20q-3 -20 -23 -20q-21 0 -18 20q3 21 24 21q20 0 17 -21z" />
<glyph unicode="n" horiz-adv-x="958" d="M757 406q-3 -18 -17.5 -31t-32.5 -13t-29.5 13t-8.5 31t17.5 31t32.5 13t29.5 -13t8.5 -31zM862 291q-2 -15 -15 -26t-28 -11t-24.5 11t-7.5 26t15 26.5t28 11.5t24.5 -11.5t7.5 -26.5zM837 189q-4 -27 -30 -27q-28 0 -24 27t31 27t23 -27zM629 406q-3 -18 -17.5 -31 t-32.5 -13t-29 13t-8 31t17.5 31t32.5 13t29 -13t8 -31zM734 291q-2 -15 -14.5 -26t-27.5 -11t-24.5 11t-7.5 26q2 16 14.5 27t27.5 11t24.5 -11.5t7.5 -26.5zM821 103q-3 -23 -26 -23t-20 23t26 23t20 -23zM710 189q-4 -27 -31 -27t-23 27t30 27q28 0 24 -27zM502 406 q-3 -18 -17.5 -31t-32.5 -13t-29.5 13t-8.5 31t17.5 31t32.5 13t29.5 -13t8.5 -31zM807 20q-3 -20 -23 -20q-21 0 -18 20q3 21 24 21q20 0 17 -21zM694 103q-3 -23 -27 -23q-22 0 -19 23t26 23t20 -23zM374 406q-3 -18 -17.5 -31t-32.5 -13t-29.5 13t-8.5 31t17.5 31 t32.5 13t29.5 -13t8.5 -31zM680 20q-3 -20 -24 -20t-18 20q3 21 24 21t18 -21zM246 406q-3 -18 -17.5 -31t-32.5 -13t-29 13t-8 31t17.5 31t32.5 13t29 -13t8 -31zM224 291q-2 -15 -15 -26t-28 -11t-24.5 11t-7.5 26t15 26.5t28 11.5t24.5 -11.5t7.5 -26.5zM199 189 q-4 -27 -31 -27t-23 27t31 27t23 -27zM96 291q-2 -15 -15 -26t-28 -11t-24.5 11t-7.5 26t15 26.5t28 11.5t24.5 -11.5t7.5 -26.5zM183 103q-3 -23 -26 -23t-20 23t26 23t20 -23zM71 189q-4 -27 -30 -27q-28 0 -24 27t31 27t23 -27zM169 20q-3 -20 -24 -20q-20 0 -17 20 q3 21 23 21q21 0 18 -21zM55 103q-3 -23 -26 -23t-20 23t26 23t20 -23zM41 20q-3 -20 -23 -20q-21 0 -18 20q3 21 24 21q20 0 17 -21z" />
<glyph unicode="o" horiz-adv-x="949" d="M748 406q-3 -18 -17.5 -31t-32.5 -13t-29.5 13t-8.5 31t17.5 31t32.5 13t29.5 -13t8.5 -31zM853 291q-2 -15 -15 -26t-28 -11t-24.5 11t-7.5 26t15 26.5t28 11.5t24.5 -11.5t7.5 -26.5zM828 189q-4 -27 -31 -27t-23 27t31 27t23 -27zM620 406q-3 -18 -17.5 -31t-32.5 -13 t-29.5 13t-8.5 31t17.5 31t32.5 13t29.5 -13t8.5 -31zM725 291q-2 -15 -15 -26t-28 -11t-24.5 11t-7.5 26t15 26.5t28 11.5t24.5 -11.5t7.5 -26.5zM812 103q-3 -23 -26 -23t-20 23t26 23t20 -23zM700 189q-4 -27 -30 -27q-28 0 -24 27t31 27t23 -27zM492 406 q-3 -18 -17.5 -31t-32.5 -13t-29 13t-8 31t17.5 31t32.5 13t29 -13t8 -31zM684 103q-3 -23 -26 -23t-20 23t26 23t20 -23zM365 406q-3 -18 -17.5 -31t-32.5 -13t-29.5 13t-8.5 31t17.5 31t32.5 13t29.5 -13t8.5 -31zM670 20q-3 -20 -23 -20q-21 0 -18 20q3 21 24 21 q20 0 17 -21zM237 406q-3 -18 -17.5 -31t-32.5 -13t-29.5 13t-8.5 31t17.5 31t32.5 13t29.5 -13t8.5 -31zM543 20q-3 -20 -24 -20t-18 20q3 21 24 21t18 -21zM214 291q-2 -15 -14.5 -26t-27.5 -11t-24.5 11t-7.5 26q2 16 14.5 27t27.5 11t24.5 -11.5t7.5 -26.5zM415 20 q-3 -20 -24 -20q-20 0 -17 20q3 21 23 21q21 0 18 -21zM190 189q-4 -27 -31 -27t-23 27t30 27q28 0 24 -27zM87 291q-2 -15 -15 -26t-28 -11t-24.5 11t-7.5 26t15 26.5t28 11.5t24.5 -11.5t7.5 -26.5zM287 20q-3 -20 -23 -20q-21 0 -18 20q3 21 24 21q20 0 17 -21zM174 103 q-3 -23 -27 -23q-22 0 -19 23t26 23t20 -23zM62 189q-4 -27 -31 -27t-23 27t31 27t23 -27zM160 20q-3 -20 -24 -20t-18 20q3 21 24 21t18 -21zM46 103q-3 -23 -26 -23t-20 23t26 23t20 -23z" />
<glyph unicode="p" horiz-adv-x="975" d="M774 406q-3 -18 -17.5 -31t-32.5 -13t-29.5 13t-8.5 31t18 31t33 13t29 -13t8 -31zM879 291q-2 -15 -14.5 -26t-27.5 -11t-24.5 11t-7.5 26q2 16 14.5 27t27.5 11t24.5 -11.5t7.5 -26.5zM855 189q-4 -27 -31 -27t-23 27t30 27q28 0 24 -27zM647 406q-3 -18 -17.5 -31 t-32.5 -13t-29.5 13t-8.5 31t17.5 31t32.5 13t29.5 -13t8.5 -31zM752 291q-2 -15 -15 -26t-28 -11t-24.5 11t-7.5 26q2 16 14.5 27t27.5 11t25 -11.5t8 -26.5zM838 103q-3 -23 -26 -23q-22 0 -19 23t26 23q22 0 19 -23zM727 189q-4 -27 -31 -27t-23 27t31 27t23 -27z M519 406q-3 -18 -17.5 -31t-32.5 -13t-29.5 13t-8.5 31t17.5 31t32.5 13t29.5 -13t8.5 -31zM711 103q-3 -23 -26 -23t-20 23t26 23t20 -23zM391 406q-3 -18 -17.5 -31t-32.5 -13t-29.5 13t-8.5 31t18 31t33 13t29 -13t8 -31zM697 20q-3 -20 -24 -20q-20 0 -17 20q3 21 23 21 q21 0 18 -21zM264 406q-3 -18 -17.5 -31t-32.5 -13t-29.5 13t-8.5 31t17.5 31t32.5 13t29.5 -13t8.5 -31zM569 20q-3 -20 -23 -20q-21 0 -18 20q3 21 23 21q21 0 18 -21zM241 291q-2 -15 -15 -26t-28 -11t-24.5 11t-7.5 26t15 26.5t28 11.5t24.5 -11.5t7.5 -26.5zM441 20 q-3 -20 -23 -20q-21 0 -18 20q3 21 24 21q20 0 17 -21zM216 189q-4 -27 -31 -27t-23 27t31 27t23 -27zM113 291q-2 -15 -14.5 -26t-27.5 -11t-24.5 11t-7.5 26q2 16 14.5 27t27.5 11t24.5 -11.5t7.5 -26.5zM314 20q-3 -20 -24 -20q-20 0 -17 20q3 21 23 21q21 0 18 -21z M200 103q-3 -23 -26 -23t-20 23t26 23t20 -23zM89 189q-4 -27 -31 -27t-23 27t30 27q28 0 24 -27zM186 20q-3 -20 -23 -20q-21 0 -18 20q3 21 23 21q21 0 18 -21zM72 103q-3 -23 -26 -23q-22 0 -19 23t26 23q22 0 19 -23zM173 -56q-3 -19 -21 -19q-19 0 -16 19q3 18 21 18 q19 0 16 -18zM59 20q-3 -20 -24 -20t-18 20q3 21 24 21t18 -21zM161 -130q-2 -17 -19 -17q-16 0 -14 17q2 16 19 16q16 0 14 -16zM46 -56q-3 -19 -22 -19q-18 0 -15 19q3 18 21 18q19 0 16 -18zM33 -130q-2 -17 -19 -17q-16 0 -14 17q2 16 19 16q16 0 14 -16z" />
<glyph unicode="q" horiz-adv-x="949" d="M748 406q-3 -18 -17.5 -31t-32.5 -13t-29.5 13t-8.5 31t17.5 31t32.5 13t29.5 -13t8.5 -31zM853 291q-2 -15 -15 -26t-28 -11t-24.5 11t-7.5 26t15 26.5t28 11.5t24.5 -11.5t7.5 -26.5zM828 189q-4 -27 -31 -27t-23 27t31 27t23 -27zM620 406q-3 -18 -17.5 -31t-32.5 -13 t-29.5 13t-8.5 31t17.5 31t32.5 13t29.5 -13t8.5 -31zM725 291q-2 -15 -15 -26t-28 -11t-24.5 11t-7.5 26t15 26.5t28 11.5t24.5 -11.5t7.5 -26.5zM812 103q-3 -23 -26 -23t-20 23t26 23t20 -23zM700 189q-4 -27 -30 -27q-28 0 -24 27t31 27t23 -27zM492 406 q-3 -18 -17.5 -31t-32.5 -13t-29 13t-8 31t17.5 31t32.5 13t29 -13t8 -31zM798 20q-3 -20 -24 -20q-20 0 -17 20q3 21 23 21q21 0 18 -21zM684 103q-3 -23 -26 -23t-20 23t26 23t20 -23zM365 406q-3 -18 -17.5 -31t-32.5 -13t-29.5 13t-8.5 31t17.5 31t32.5 13t29.5 -13 t8.5 -31zM785 -56q-3 -19 -21 -19q-19 0 -16 19q3 18 21 18q19 0 16 -18zM670 20q-3 -20 -23 -20q-21 0 -18 20q3 21 24 21q20 0 17 -21zM773 -130q-2 -17 -19 -17t-15 17q2 16 20 16q16 0 14 -16zM237 406q-3 -18 -17.5 -31t-32.5 -13t-29.5 13t-8.5 31t17.5 31t32.5 13 t29.5 -13t8.5 -31zM657 -56q-3 -19 -21 -19q-19 0 -16 19q3 18 21 18q19 0 16 -18zM543 20q-3 -20 -24 -20t-18 20q3 21 24 21t18 -21zM645 -130q-2 -17 -19 -17q-16 0 -14 17q2 16 19 16q16 0 14 -16zM214 291q-2 -15 -14.5 -26t-27.5 -11t-24.5 11t-7.5 26q2 16 14.5 27 t27.5 11t24.5 -11.5t7.5 -26.5zM415 20q-3 -20 -24 -20q-20 0 -17 20q3 21 23 21q21 0 18 -21zM190 189q-4 -27 -31 -27t-23 27t30 27q28 0 24 -27zM87 291q-2 -15 -15 -26t-28 -11t-24.5 11t-7.5 26t15 26.5t28 11.5t24.5 -11.5t7.5 -26.5zM287 20q-3 -20 -23 -20 q-21 0 -18 20q3 21 24 21q20 0 17 -21zM174 103q-3 -23 -27 -23q-22 0 -19 23t26 23t20 -23zM62 189q-4 -27 -31 -27t-23 27t31 27t23 -27zM160 20q-3 -20 -24 -20t-18 20q3 21 24 21t18 -21zM46 103q-3 -23 -26 -23t-20 23t26 23t20 -23z" />
<glyph unicode="r" horiz-adv-x="725" d="M629 406q-3 -18 -17.5 -31t-32.5 -13t-29 13t-8 31t17.5 31t32.5 13t29 -13t8 -31zM502 406q-3 -18 -17.5 -31t-32.5 -13t-29.5 13t-8.5 31t17.5 31t32.5 13t29.5 -13t8.5 -31zM374 406q-3 -18 -17.5 -31t-32.5 -13t-29.5 13t-8.5 31t17.5 31t32.5 13t29.5 -13t8.5 -31z M246 406q-3 -18 -17.5 -31t-32.5 -13t-29 13t-8 31t17.5 31t32.5 13t29 -13t8 -31zM224 291q-2 -15 -15 -26t-28 -11t-24.5 11t-7.5 26t15 26.5t28 11.5t24.5 -11.5t7.5 -26.5zM199 189q-4 -27 -31 -27t-23 27t31 27t23 -27zM96 291q-2 -15 -15 -26t-28 -11t-24.5 11 t-7.5 26t15 26.5t28 11.5t24.5 -11.5t7.5 -26.5zM183 103q-3 -23 -26 -23t-20 23t26 23t20 -23zM71 189q-4 -27 -30 -27q-28 0 -24 27t31 27t23 -27zM169 20q-3 -20 -24 -20q-20 0 -17 20q3 21 23 21q21 0 18 -21zM55 103q-3 -23 -26 -23t-20 23t27 23q22 0 19 -23zM41 20 q-3 -20 -23 -20q-21 0 -18 20q3 21 24 21q20 0 17 -21z" />
<glyph unicode="s" horiz-adv-x="981" d="M885 406q-3 -18 -17.5 -31t-32.5 -13t-29.5 13t-8.5 31t17.5 31t32.5 13t29.5 -13t8.5 -31zM757 406q-3 -18 -17.5 -31t-32.5 -13t-29.5 13t-8.5 31t17.5 31t32.5 13t29.5 -13t8.5 -31zM837 189q-4 -27 -30 -27q-28 0 -24 27t31 27t23 -27zM629 406q-3 -18 -17.5 -31 t-32.5 -13t-29 13t-8 31t17.5 31t32.5 13t29 -13t8 -31zM821 103q-3 -23 -26 -23t-20 23t26 23t20 -23zM710 189q-4 -27 -31 -27t-23 27t30 27q28 0 24 -27zM502 406q-3 -18 -17.5 -31t-32.5 -13t-29.5 13t-8.5 31t17.5 31t32.5 13t29.5 -13t8.5 -31zM694 103 q-3 -23 -27 -23q-22 0 -19 23t26 23t20 -23zM582 189q-4 -27 -31 -27t-23 27t31 27t23 -27zM374 406q-3 -18 -17.5 -31t-32.5 -13t-29.5 13t-8.5 31t17.5 31t32.5 13t29.5 -13t8.5 -31zM680 20q-3 -20 -24 -20t-18 20q3 21 24 21t18 -21zM454 189q-4 -27 -30 -27 q-28 0 -24 27t31 27t23 -27zM246 406q-3 -18 -17.5 -31t-32.5 -13t-29 13t-8 31t17.5 31t32.5 13t29 -13t8 -31zM552 20q-3 -20 -24 -20q-20 0 -17 20q3 21 23 21q21 0 18 -21zM327 189q-4 -27 -31 -27t-23 27t30 27q28 0 24 -27zM224 291q-2 -15 -15 -26t-28 -11t-24.5 11 t-7.5 26t15 26.5t28 11.5t24.5 -11.5t7.5 -26.5zM424 20q-3 -20 -23 -20q-21 0 -18 20q3 21 24 21q20 0 17 -21zM199 189q-4 -27 -31 -27t-23 27t31 27t23 -27zM96 291q-2 -15 -15 -26t-28 -11t-24.5 11t-7.5 26t15 26.5t28 11.5t24.5 -11.5t7.5 -26.5zM297 20 q-3 -20 -24 -20t-18 20q3 21 24 21t18 -21zM71 189q-4 -27 -30 -27q-28 0 -24 27t31 27t23 -27zM169 20q-3 -20 -24 -20q-20 0 -17 20q3 21 23 21q21 0 18 -21zM41 20q-3 -20 -23 -20q-21 0 -18 20q3 21 24 21q20 0 17 -21z" />
<glyph unicode="t" horiz-adv-x="695" d="M599 406q-3 -18 -17.5 -31t-32.5 -13t-29.5 13t-8.5 31t17.5 31t32.5 13t29.5 -13t8.5 -31zM369 534q-3 -21 -20.5 -36.5t-38.5 -15.5t-34 15.5t-10 36.5t20.5 36.5t38.5 15.5t34 -15.5t10 -36.5zM471 406q-3 -18 -17.5 -31t-32.5 -13t-29.5 13t-8.5 31t18 31t33 13 t29 -13t8 -31zM242 534q-3 -21 -20.5 -36.5t-38.5 -15.5t-34.5 15.5t-10.5 36.5t20.5 36.5t38.5 15.5t34.5 -15.5t10.5 -36.5zM344 406q-3 -18 -17.5 -31t-32.5 -13t-29.5 13t-8.5 31t17.5 31t32.5 13t29.5 -13t8.5 -31zM216 406q-3 -18 -17.5 -31t-32.5 -13t-29.5 13 t-8.5 31t17.5 31t32.5 13t29.5 -13t8.5 -31zM321 291q-2 -15 -15 -26t-28 -11t-24.5 11t-7.5 26t15 26.5t28 11.5t24.5 -11.5t7.5 -26.5zM522 20q-3 -20 -24 -20t-18 20q3 21 24 21t18 -21zM296 189q-4 -27 -31 -27t-23 27t31 27t23 -27zM88 406q-3 -18 -17.5 -31t-32.5 -13 t-29.5 13t-8.5 31t18 31t33 13t29 -13t8 -31zM193 291q-2 -15 -14.5 -26t-27.5 -11t-24.5 11t-7.5 26q2 16 14.5 27t27.5 11t24.5 -11.5t7.5 -26.5zM394 20q-3 -20 -24 -20q-20 0 -17 20q3 21 23 21q21 0 18 -21zM280 103q-3 -23 -26 -23t-20 23t26 23t20 -23zM169 189 q-4 -27 -31 -27t-23 27t30 27q28 0 24 -27zM266 20q-3 -20 -23 -20q-21 0 -18 20q3 21 23 21q21 0 18 -21zM152 103q-3 -23 -26 -23q-22 0 -19 23t26 23q22 0 19 -23z" />
<glyph unicode="u" d="M875 406q-3 -18 -17.5 -31t-32.5 -13t-29 13t-8 31t17.5 31t32.5 13t29 -13t8 -31zM748 406q-3 -18 -17.5 -31t-32.5 -13t-29.5 13t-8.5 31t17.5 31t32.5 13t29.5 -13t8.5 -31zM853 291q-2 -15 -15 -26t-28 -11t-24.5 11t-7.5 26t15 26.5t28 11.5t24.5 -11.5t7.5 -26.5z M828 189q-4 -27 -31 -27t-23 27t31 27t23 -27zM725 291q-2 -15 -15 -26t-28 -11t-24.5 11t-7.5 26t15 26.5t28 11.5t24.5 -11.5t7.5 -26.5zM812 103q-3 -23 -26 -23t-20 23t26 23t20 -23zM700 189q-4 -27 -30 -27q-28 0 -24 27t31 27t23 -27zM684 103q-3 -23 -26 -23t-20 23 t27 23q22 0 19 -23zM670 20q-3 -20 -23 -20q-21 0 -18 20q3 21 24 21q20 0 17 -21zM237 406q-3 -18 -17.5 -31t-32.5 -13t-29.5 13t-8.5 31t17.5 31t32.5 13t29.5 -13t8.5 -31zM543 20q-3 -20 -24 -20t-18 20q3 21 24 21t18 -21zM109 406q-3 -18 -17.5 -31t-32.5 -13t-29 13 t-8 31t17.5 31t32.5 13t29 -13t8 -31zM214 291q-2 -15 -14.5 -26t-27.5 -11t-24.5 11t-7.5 26q2 16 14.5 27t27.5 11t24.5 -11.5t7.5 -26.5zM415 20q-3 -20 -24 -20q-20 0 -17 20q3 21 23 21q21 0 18 -21zM190 189q-4 -27 -31 -27t-23 27t30 27q28 0 24 -27zM87 291 q-2 -15 -15 -26t-28 -11t-24.5 11t-7.5 26t15 26.5t28 11.5t24.5 -11.5t7.5 -26.5zM287 20q-3 -20 -23 -20q-21 0 -18 20q3 21 24 21q20 0 17 -21zM174 103q-3 -23 -27 -23q-22 0 -19 23t26 23t20 -23zM62 189q-4 -27 -31 -27t-23 27t31 27t23 -27zM160 20q-3 -20 -24 -20 t-18 20q3 21 24 21t18 -21zM46 103q-3 -23 -26 -23t-20 23t26 23t20 -23z" />
<glyph unicode="v" horiz-adv-x="963" d="M867 406q-3 -18 -17.5 -31t-32.5 -13t-29 13t-8 31t17.5 31t32.5 13t29 -13t8 -31zM740 406q-3 -18 -17.5 -31t-32.5 -13t-29.5 13t-8.5 31t17.5 31t32.5 13t29.5 -13t8.5 -31zM845 291q-2 -15 -15 -26t-28 -11t-24.5 11t-7.5 26t15 26.5t28 11.5t24.5 -11.5t7.5 -26.5z M820 189q-4 -27 -31 -27t-23 27t31 27t23 -27zM717 291q-2 -15 -15 -26t-28 -11t-24.5 11t-7.5 26t15 26.5t28 11.5t24.5 -11.5t7.5 -26.5zM692 189q-4 -27 -30 -27q-28 0 -24 27t31 27t23 -27zM676 103q-3 -23 -26 -23t-20 23t26 23t20 -23zM549 103q-3 -23 -27 -23 q-22 0 -19 23t26 23t20 -23zM229 406q-3 -18 -17.5 -31t-32.5 -13t-29.5 13t-8.5 31t17.5 31t32.5 13t29.5 -13t8.5 -31zM535 20q-3 -20 -24 -20t-18 20q3 21 24 21t18 -21zM101 406q-3 -18 -17.5 -31t-32.5 -13t-29 13t-8 31t17.5 31t32.5 13t29 -13t8 -31zM206 291 q-2 -15 -14.5 -26t-27.5 -11t-24.5 11t-7.5 26q2 16 14.5 27t27.5 11t24.5 -11.5t7.5 -26.5zM407 20q-3 -20 -24 -20q-20 0 -17 20q3 21 23 21q21 0 18 -21zM293 103q-3 -23 -26 -23t-20 23t27 23q22 0 19 -23zM182 189q-4 -27 -31 -27t-23 27t30 27q28 0 24 -27zM79 291 q-2 -15 -15 -26t-28 -11t-24.5 11t-7.5 26t15 26.5t28 11.5t24.5 -11.5t7.5 -26.5zM279 20q-3 -20 -23 -20q-21 0 -18 20q3 21 24 21q20 0 17 -21zM166 103q-3 -23 -27 -23q-22 0 -19 23t26 23t20 -23zM54 189q-4 -27 -31 -27t-23 27t31 27t23 -27z" />
<glyph unicode="w" horiz-adv-x="1099" d="M1003 406q-3 -18 -17.5 -31t-32.5 -13t-29.5 13t-8.5 31t17.5 31t32.5 13t29.5 -13t8.5 -31zM875 406q-3 -18 -17.5 -31t-32.5 -13t-29 13t-8 31t17.5 31t32.5 13t29 -13t8 -31zM980 291q-2 -15 -14.5 -26t-27.5 -11t-24.5 11t-7.5 26q2 16 14.5 27t27.5 11t24.5 -11.5 t7.5 -26.5zM956 189q-4 -27 -31 -27t-23 27t30 27q28 0 24 -27zM853 291q-2 -15 -15 -26t-28 -11t-24.5 11t-7.5 26t15 26.5t28 11.5t24.5 -11.5t7.5 -26.5zM940 103q-3 -23 -27 -23q-22 0 -19 23t26 23t20 -23zM828 189q-4 -27 -31 -27t-23 27t31 27t23 -27zM812 103 q-3 -23 -26 -23t-20 23t26 23t20 -23zM798 20q-3 -20 -24 -20q-20 0 -17 20q3 21 23 21q21 0 18 -21zM573 189q-4 -27 -31 -27t-23 27t30 27q28 0 24 -27zM670 20q-3 -20 -23 -20q-21 0 -18 20q3 21 24 21q20 0 17 -21zM557 103q-3 -23 -27 -23q-22 0 -19 23t26 23t20 -23z M445 189q-4 -27 -31 -27t-23 27t31 27t23 -27zM237 406q-3 -18 -17.5 -31t-32.5 -13t-29.5 13t-8.5 31t17.5 31t32.5 13t29.5 -13t8.5 -31zM543 20q-3 -20 -24 -20t-18 20q3 21 24 21t18 -21zM429 103q-3 -23 -26 -23t-20 23t26 23t20 -23zM109 406q-3 -18 -17.5 -31 t-32.5 -13t-29 13t-8 31t17.5 31t32.5 13t29 -13t8 -31zM214 291q-2 -15 -14.5 -26t-27.5 -11t-24.5 11t-7.5 26q2 16 14.5 27t27.5 11t24.5 -11.5t7.5 -26.5zM415 20q-3 -20 -24 -20q-20 0 -17 20q3 21 23 21q21 0 18 -21zM190 189q-4 -27 -31 -27t-23 27t30 27 q28 0 24 -27zM87 291q-2 -15 -15 -26t-28 -11t-24.5 11t-7.5 26t15 26.5t28 11.5t24.5 -11.5t7.5 -26.5zM287 20q-3 -20 -23 -20q-21 0 -18 20q3 21 24 21q20 0 17 -21zM174 103q-3 -23 -27 -23q-22 0 -19 23t26 23t20 -23zM62 189q-4 -27 -31 -27t-23 27t31 27t23 -27z M160 20q-3 -20 -24 -20t-18 20q3 21 24 21t18 -21zM46 103q-3 -23 -26 -23t-20 23t26 23t20 -23z" />
<glyph unicode="x" horiz-adv-x="981" d="M885 406q-3 -18 -17.5 -31t-32.5 -13t-29.5 13t-8.5 31t17.5 31t32.5 13t29.5 -13t8.5 -31zM757 406q-3 -18 -17.5 -31t-32.5 -13t-29.5 13t-8.5 31t17.5 31t32.5 13t29.5 -13t8.5 -31zM734 291q-2 -15 -14.5 -26t-27.5 -11t-24.5 11t-7.5 26q2 16 14.5 27t27.5 11 t24.5 -11.5t7.5 -26.5zM607 291q-2 -15 -15 -26t-28 -11t-24.5 11t-7.5 26t15 26.5t28 11.5t24.5 -11.5t7.5 -26.5zM807 20q-3 -20 -23 -20q-21 0 -18 20q3 21 24 21q20 0 17 -21zM694 103q-3 -23 -27 -23q-22 0 -19 23t26 23t20 -23zM582 189q-4 -27 -31 -27t-23 27t31 27 t23 -27zM680 20q-3 -20 -24 -20t-18 20q3 21 24 21t18 -21zM566 103q-3 -23 -26 -23t-20 23t26 23t20 -23zM454 189q-4 -27 -30 -27q-28 0 -24 27t31 27t23 -27zM246 406q-3 -18 -17.5 -31t-32.5 -13t-29 13t-8 31t17.5 31t32.5 13t29 -13t8 -31zM351 291q-2 -15 -14.5 -26 t-27.5 -11t-24.5 11t-7.5 26q2 16 14.5 27t27.5 11t24.5 -11.5t7.5 -26.5zM327 189q-4 -27 -31 -27t-23 27t30 27q28 0 24 -27zM119 406q-3 -18 -17.5 -31t-32.5 -13t-29.5 13t-8.5 31t17.5 31t32.5 13t29.5 -13t8.5 -31zM224 291q-2 -15 -15 -26t-28 -11t-24.5 11t-7.5 26 t15 26.5t28 11.5t24.5 -11.5t7.5 -26.5zM311 103q-3 -23 -27 -23q-22 0 -19 23t26 23t20 -23zM183 103q-3 -23 -26 -23t-20 23t26 23t20 -23zM169 20q-3 -20 -24 -20q-20 0 -17 20q3 21 23 21q21 0 18 -21zM41 20q-3 -20 -23 -20q-21 0 -18 20q3 21 24 21q20 0 17 -21z" />
<glyph unicode="y" horiz-adv-x="949" d="M748 406q-3 -18 -17.5 -31t-32.5 -13t-29.5 13t-8.5 31t17.5 31t32.5 13t29.5 -13t8.5 -31zM853 291q-2 -15 -15 -26t-28 -11t-24.5 11t-7.5 26t15 26.5t28 11.5t24.5 -11.5t7.5 -26.5zM828 189q-4 -27 -31 -27t-23 27t31 27t23 -27zM725 291q-2 -15 -15 -26t-28 -11 t-24.5 11t-7.5 26t15 26.5t28 11.5t24.5 -11.5t7.5 -26.5zM812 103q-3 -23 -26 -23t-20 23t26 23t20 -23zM700 189q-4 -27 -30 -27q-28 0 -24 27t31 27t23 -27zM798 20q-3 -20 -24 -20q-20 0 -17 20q3 21 23 21q21 0 18 -21zM684 103q-3 -23 -26 -23t-20 23t27 23 q22 0 19 -23zM785 -56q-3 -19 -21 -19q-19 0 -16 19q3 18 21 18q19 0 16 -18zM670 20q-3 -20 -23 -20q-21 0 -18 20q3 21 24 21q20 0 17 -21zM237 406q-3 -18 -17.5 -31t-32.5 -13t-29.5 13t-8.5 31t17.5 31t32.5 13t29.5 -13t8.5 -31zM658 -56q-3 -19 -22 -19t-16 19 q3 18 22 18t16 -18zM543 20q-3 -20 -24 -20t-18 20q3 21 24 21t18 -21zM645 -130q-2 -17 -19 -17q-16 0 -14 17q2 16 19 16q16 0 14 -16zM214 291q-2 -15 -14.5 -26t-27.5 -11t-24.5 11t-7.5 26q2 16 14.5 27t27.5 11t24.5 -11.5t7.5 -26.5zM415 20q-3 -20 -24 -20 q-20 0 -17 20q3 21 23 21q21 0 18 -21zM518 -130q-2 -17 -19 -17t-15 17q2 16 19 16t15 -16zM190 189q-4 -27 -31 -27t-23 27t30 27q28 0 24 -27zM87 291q-2 -15 -15 -26t-28 -11t-24.5 11t-7.5 26t15 26.5t28 11.5t24.5 -11.5t7.5 -26.5zM287 20q-3 -20 -23 -20 q-21 0 -18 20q3 21 24 21q20 0 17 -21zM174 103q-3 -23 -27 -23q-22 0 -19 23t26 23t20 -23zM390 -130q-2 -17 -19 -17t-15 17q2 16 20 16q16 0 14 -16zM62 189q-4 -27 -31 -27t-23 27t31 27t23 -27zM160 20q-3 -20 -24 -20t-18 20q3 21 24 21t18 -21zM46 103 q-3 -23 -26 -23t-20 23t26 23t20 -23zM262 -130q-2 -17 -19 -17q-16 0 -14 17q2 16 19 16q16 0 14 -16zM135 -130q-2 -17 -19 -17t-15 17q2 16 19 16t15 -16z" />
<glyph unicode="z" horiz-adv-x="981" d="M885 406q-3 -18 -17.5 -31t-32.5 -13t-29.5 13t-8.5 31t17.5 31t32.5 13t29.5 -13t8.5 -31zM757 406q-3 -18 -17.5 -31t-32.5 -13t-29.5 13t-8.5 31t17.5 31t32.5 13t29.5 -13t8.5 -31zM629 406q-3 -18 -17.5 -31t-32.5 -13t-29 13t-8 31t17.5 31t32.5 13t29 -13t8 -31z M734 291q-2 -15 -14.5 -26t-27.5 -11t-24.5 11t-7.5 26q2 16 14.5 27t27.5 11t24.5 -11.5t7.5 -26.5zM502 406q-3 -18 -17.5 -31t-32.5 -13t-29.5 13t-8.5 31t17.5 31t32.5 13t29.5 -13t8.5 -31zM607 291q-2 -15 -15 -26t-28 -11t-24.5 11t-7.5 26t15 26.5t28 11.5 t24.5 -11.5t7.5 -26.5zM807 20q-3 -20 -23 -20q-21 0 -18 20q3 21 24 21q20 0 17 -21zM582 189q-4 -27 -31 -27t-23 27t31 27t23 -27zM374 406q-3 -18 -17.5 -31t-32.5 -13t-29.5 13t-8.5 31t17.5 31t32.5 13t29.5 -13t8.5 -31zM479 291q-2 -15 -15 -26t-28 -11t-24.5 11 t-7.5 26t15 26.5t28 11.5t24.5 -11.5t7.5 -26.5zM680 20q-3 -20 -24 -20t-18 20q3 21 24 21t18 -21zM454 189q-4 -27 -30 -27q-28 0 -24 27t31 27t23 -27zM246 406q-3 -18 -17.5 -31t-32.5 -13t-29 13t-8 31t17.5 31t32.5 13t29 -13t8 -31zM552 20q-3 -20 -24 -20 q-20 0 -17 20q3 21 23 21q21 0 18 -21zM438 103q-3 -23 -26 -23t-20 23t27 23q22 0 19 -23zM327 189q-4 -27 -31 -27t-23 27t30 27q28 0 24 -27zM119 406q-3 -18 -17.5 -31t-32.5 -13t-29.5 13t-8.5 31t17.5 31t32.5 13t29.5 -13t8.5 -31zM424 20q-3 -20 -23 -20 q-21 0 -18 20q3 21 24 21q20 0 17 -21zM311 103q-3 -23 -27 -23q-22 0 -19 23t26 23t20 -23zM297 20q-3 -20 -24 -20t-18 20q3 21 24 21t18 -21zM183 103q-3 -23 -26 -23t-20 23t26 23t20 -23zM169 20q-3 -20 -24 -20q-20 0 -17 20q3 21 23 21q21 0 18 -21zM41 20 q-3 -20 -23 -20q-21 0 -18 20q3 21 24 21q20 0 17 -21z" />
<glyph unicode="{" horiz-adv-x="479" d="M382 534q-3 -21 -20.5 -36.5t-38.5 -15.5t-34 15.5t-10 36.5t20.5 36.5t38.5 15.5t34 -15.5t10 -36.5zM255 534q-3 -21 -20.5 -36.5t-38.5 -15.5t-34.5 15.5t-10.5 36.5t20.5 36.5t38.5 15.5t34.5 -15.5t10.5 -36.5zM229 406q-3 -18 -17.5 -31t-32.5 -13t-29.5 13 t-8.5 31t17.5 31t32.5 13t29.5 -13t8.5 -31zM206 291q-2 -15 -14.5 -26t-27.5 -11t-24.5 11t-7.5 26q2 16 14.5 27t27.5 11t24.5 -11.5t7.5 -26.5zM182 189q-4 -27 -31 -27t-23 27t30 27q28 0 24 -27zM79 291q-2 -15 -15 -26t-28 -11t-24.5 11t-7.5 26t15 26.5t28 11.5 t24.5 -11.5t7.5 -26.5zM279 20q-3 -20 -23 -20q-21 0 -18 20q3 21 24 21q20 0 17 -21zM166 103q-3 -23 -27 -23q-22 0 -19 23t26 23t20 -23zM54 189q-4 -27 -31 -27t-23 27t31 27t23 -27zM152 20q-3 -20 -24 -20t-18 20q3 21 24 21t18 -21z" />
<glyph unicode="|" horiz-adv-x="369" d="M272 534q-3 -21 -20.5 -36.5t-38.5 -15.5t-34 15.5t-10 36.5t20.5 36.5t38.5 15.5t34 -15.5t10 -36.5zM144 534q-3 -21 -20 -36.5t-38 -15.5t-34.5 15.5t-10.5 36.5t20.5 36.5t38.5 15.5t34 -15.5t10 -36.5zM246 406q-3 -18 -17.5 -31t-32.5 -13t-29 13t-8 31t17.5 31 t32.5 13t29 -13t8 -31zM119 406q-3 -18 -17.5 -31t-32.5 -13t-29.5 13t-8.5 31t17.5 31t32.5 13t29.5 -13t8.5 -31zM224 291q-2 -15 -15 -26t-28 -11t-24.5 11t-7.5 26t15 26.5t28 11.5t24.5 -11.5t7.5 -26.5zM199 189q-4 -27 -31 -27t-23 27t31 27t23 -27zM96 291 q-2 -15 -15 -26t-28 -11t-24.5 11t-7.5 26t15 26.5t28 11.5t24.5 -11.5t7.5 -26.5zM183 103q-3 -23 -26 -23t-20 23t26 23t20 -23zM71 189q-4 -27 -30 -27q-28 0 -24 27t31 27t23 -27zM169 20q-3 -20 -24 -20q-20 0 -17 20q3 21 23 21q21 0 18 -21zM55 103q-3 -23 -26 -23 t-20 23t27 23q22 0 19 -23zM41 20q-3 -20 -23 -20q-21 0 -18 20q3 21 24 21q20 0 17 -21z" />
<glyph unicode="}" horiz-adv-x="447" d="M272 534q-3 -21 -20.5 -36.5t-38.5 -15.5t-34 15.5t-10 36.5t20.5 36.5t38.5 15.5t34 -15.5t10 -36.5zM144 534q-3 -21 -20.5 -36.5t-38.5 -15.5t-34 15.5t-10 36.5t20.5 36.5t38.5 15.5t34 -15.5t10 -36.5zM246 406q-3 -18 -17.5 -31t-32.5 -13t-29 13t-8 31t17.5 31 t32.5 13t29 -13t8 -31zM351 291q-2 -15 -14.5 -26t-27.5 -11t-24.5 11t-7.5 26q2 16 14.5 27t27.5 11t24.5 -11.5t7.5 -26.5zM327 189q-4 -27 -31 -27t-23 27t30 27q28 0 24 -27zM224 291q-2 -15 -15 -26t-28 -11t-24.5 11t-7.5 26t15 26.5t28 11.5t24.5 -11.5t7.5 -26.5z M199 189q-4 -27 -31 -27t-23 27t31 27t23 -27zM183 103q-3 -23 -26 -23t-20 23t26 23t20 -23zM169 20q-3 -20 -24 -20q-20 0 -17 20q3 21 23 21q21 0 18 -21zM41 20q-3 -20 -23 -20q-21 0 -18 20q3 21 24 21q20 0 17 -21z" />
<glyph unicode="~" horiz-adv-x="1003" d="M906 789q-4 -26 -25.5 -45t-47.5 -19t-42.5 19t-12.5 45t25.5 45t47.5 19t42.5 -19t12.5 -45zM778 789q-4 -26 -25.5 -45t-47.5 -19t-42.5 19t-12.5 45t25.5 45t47.5 19t42.5 -19t12.5 -45zM754 661q-3 -24 -22.5 -40.5t-43.5 -16.5t-38 16.5t-11 40.5t22 41t43 17 t38.5 -17t11.5 -41zM523 789q-4 -26 -25.5 -45t-47.5 -19t-42.5 19t-12.5 45t25.5 45t47.5 19t42.5 -19t12.5 -45zM626 661q-3 -24 -22 -40.5t-43 -16.5t-38.5 16.5t-11.5 40.5t22.5 41t43.5 17t38 -17t11 -41zM395 789q-4 -26 -25.5 -45t-47.5 -19t-42.5 19t-12.5 45 t25.5 45t47.5 19t42.5 -19t12.5 -45zM498 661q-3 -24 -22 -40.5t-43 -16.5t-38 16.5t-11 40.5t22 41t43 17t38 -17t11 -41zM267 789q-4 -26 -25 -45t-47 -19t-42.5 19t-12.5 45t25.5 45t47.5 19t42 -19t12 -45zM243 661q-3 -24 -22 -40.5t-43 -16.5t-38.5 16.5t-11.5 40.5 t22.5 41t43.5 17t38 -17t11 -41zM115 661q-3 -24 -22 -40.5t-43 -16.5t-38 16.5t-11 40.5t22 41t43 17t38 -17t11 -41z" />
<glyph unicode="&#xa1;" horiz-adv-x="96" />
<glyph unicode="&#xa2;" horiz-adv-x="708" d="M510 534q-3 -21 -20.5 -36.5t-38.5 -15.5t-34 15.5t-10 36.5t20.5 36.5t38.5 15.5t34 -15.5t10 -36.5zM612 406q-3 -18 -17.5 -31t-32.5 -13t-29.5 13t-8.5 31t17.5 31t32.5 13t29.5 -13t8.5 -31zM382 534q-3 -21 -20.5 -36.5t-38.5 -15.5t-34 15.5t-10 36.5t20.5 36.5 t38.5 15.5t34 -15.5t10 -36.5zM484 406q-3 -18 -17.5 -31t-32.5 -13t-29 13t-8 31t17.5 31t32.5 13t29 -13t8 -31zM357 406q-3 -18 -17.5 -31t-32.5 -13t-29.5 13t-8.5 31t17.5 31t32.5 13t29.5 -13t8.5 -31zM549 103q-3 -23 -27 -23q-22 0 -19 23t26 23t20 -23zM229 406 q-3 -18 -17.5 -31t-32.5 -13t-29.5 13t-8.5 31t17.5 31t32.5 13t29.5 -13t8.5 -31zM421 103q-3 -23 -26 -23t-20 23t26 23t20 -23zM206 291q-2 -15 -14.5 -26t-27.5 -11t-24.5 11t-7.5 26q2 16 14.5 27t27.5 11t24.5 -11.5t7.5 -26.5zM407 20q-3 -20 -24 -20q-20 0 -17 20 q3 21 23 21q21 0 18 -21zM293 103q-3 -23 -26 -23t-20 23t26 23t20 -23zM182 189q-4 -27 -31 -27t-23 27t30 27q28 0 24 -27zM79 291q-2 -15 -15 -26t-28 -11t-24.5 11t-7.5 26t15 26.5t28 11.5t24.5 -11.5t7.5 -26.5zM279 20q-3 -20 -23 -20q-21 0 -18 20q3 21 24 21 q20 0 17 -21zM166 103q-3 -23 -27 -23q-22 0 -19 23t26 23t20 -23zM54 189q-4 -27 -31 -27t-23 27t31 27t23 -27z" />
<glyph unicode="&#xa3;" horiz-adv-x="959" d="M761 534q-3 -21 -20.5 -36.5t-38.5 -15.5t-34 15.5t-10 36.5t20.5 36.5t38.5 15.5t34 -15.5t10 -36.5zM863 406q-3 -18 -17.5 -31t-32.5 -13t-29 13t-8 31t17.5 31t32.5 13t29 -13t8 -31zM634 534q-3 -21 -20.5 -36.5t-38.5 -15.5t-34.5 15.5t-10.5 36.5t20.5 36.5 t38.5 15.5t34.5 -15.5t10.5 -36.5zM736 406q-3 -18 -17.5 -31t-32.5 -13t-29.5 13t-8.5 31t17.5 31t32.5 13t29.5 -13t8.5 -31zM506 534q-3 -21 -20.5 -36.5t-38.5 -15.5t-34 15.5t-10 36.5t20.5 36.5t38.5 15.5t34 -15.5t10 -36.5zM378 534q-3 -21 -20.5 -36.5t-38.5 -15.5 t-34 15.5t-10 36.5t20.5 36.5t38.5 15.5t34 -15.5t10 -36.5zM353 406q-3 -18 -17.5 -31t-32.5 -13t-29.5 13t-8.5 31t17.5 31t32.5 13t29.5 -13t8.5 -31zM458 291q-2 -15 -15 -26t-28 -11t-24.5 11t-7.5 26t15 26.5t28 11.5t24.5 -11.5t7.5 -26.5zM658 20q-3 -20 -23 -20 q-21 0 -18 20q3 21 24 21q20 0 17 -21zM225 406q-3 -18 -17.5 -31t-32.5 -13t-29.5 13t-8.5 31t17.5 31t32.5 13t29.5 -13t8.5 -31zM330 291q-2 -15 -15 -26t-28 -11t-24.5 11t-7.5 26t15 26.5t28 11.5t24.5 -11.5t7.5 -26.5zM531 20q-3 -20 -24 -20t-18 20q3 21 24 21 t18 -21zM305 189q-4 -27 -30 -27q-28 0 -24 27t31 27t23 -27zM202 291q-2 -15 -14.5 -26t-27.5 -11t-24.5 11t-7.5 26q2 16 14.5 27t27.5 11t24.5 -11.5t7.5 -26.5zM403 20q-3 -20 -24 -20q-20 0 -17 20q3 21 23 21q21 0 18 -21zM289 103q-3 -23 -26 -23t-20 23t27 23 q22 0 19 -23zM178 189q-4 -27 -31 -27t-23 27t30 27q28 0 24 -27zM75 291q-2 -15 -15 -26t-28 -11t-24.5 11t-7.5 26t15 26.5t28 11.5t24.5 -11.5t7.5 -26.5zM275 20q-3 -20 -23 -20q-21 0 -18 20q3 21 24 21q20 0 17 -21zM162 103q-3 -23 -27 -23q-22 0 -19 23t26 23 t20 -23zM148 20q-3 -20 -24 -20t-18 20q3 21 24 21t18 -21z" />
<glyph unicode="&#xa5;" horiz-adv-x="849" d="M752 534q-3 -21 -20.5 -36.5t-38.5 -15.5t-34 15.5t-10 36.5t20.5 36.5t38.5 15.5t34 -15.5t10 -36.5zM625 534q-3 -21 -20.5 -36.5t-38.5 -15.5t-34.5 15.5t-10.5 36.5t20.5 36.5t38.5 15.5t34.5 -15.5t10.5 -36.5zM727 406q-3 -18 -17.5 -31t-32.5 -13t-29.5 13 t-8.5 31t17.5 31t32.5 13t29.5 -13t8.5 -31zM599 406q-3 -18 -17.5 -31t-32.5 -13t-29.5 13t-8.5 31t17.5 31t32.5 13t29.5 -13t8.5 -31zM576 291q-2 -15 -14.5 -26t-27.5 -11t-24.5 11t-7.5 26q2 16 14.5 27t27.5 11t24.5 -11.5t7.5 -26.5zM242 534q-3 -21 -20.5 -36.5 t-38.5 -15.5t-34.5 15.5t-10.5 36.5t20.5 36.5t38.5 15.5t34.5 -15.5t10.5 -36.5zM449 291q-2 -15 -15 -26t-28 -11t-24.5 11t-7.5 26q2 16 14.5 27t27.5 11t25 -11.5t8 -26.5zM535 103q-3 -23 -26 -23q-22 0 -19 23t26 23q22 0 19 -23zM114 534q-3 -21 -20.5 -36.5 t-38.5 -15.5t-34 15.5t-10 36.5t20.5 36.5t38.5 15.5t34 -15.5t10 -36.5zM424 189q-4 -27 -31 -27t-23 27t31 27t23 -27zM216 406q-3 -18 -17.5 -31t-32.5 -13t-29.5 13t-8.5 31t17.5 31t32.5 13t29.5 -13t8.5 -31zM321 291q-2 -15 -15 -26t-28 -11t-24.5 11t-7.5 26 t15 26.5t28 11.5t24.5 -11.5t7.5 -26.5zM408 103q-3 -23 -26 -23t-20 23t26 23t20 -23zM296 189q-4 -27 -31 -27t-23 27t31 27t23 -27zM88 406q-3 -18 -17.5 -31t-32.5 -13t-29.5 13t-8.5 31t18 31t33 13t29 -13t8 -31zM193 291q-2 -15 -14.5 -26t-27.5 -11t-24.5 11 t-7.5 26q2 16 14.5 27t27.5 11t24.5 -11.5t7.5 -26.5zM394 20q-3 -20 -24 -20q-20 0 -17 20q3 21 23 21q21 0 18 -21zM280 103q-3 -23 -26 -23t-20 23t26 23t20 -23zM266 20q-3 -20 -23 -20q-21 0 -18 20q3 21 23 21q21 0 18 -21zM152 103q-3 -23 -26 -23q-22 0 -19 23 t26 23q22 0 19 -23z" />
<glyph unicode="&#xa8;" horiz-adv-x="875" d="M778 789q-4 -26 -25.5 -45t-47.5 -19t-42.5 19t-12.5 45t25.5 45t47.5 19t42.5 -19t12.5 -45zM650 789q-4 -26 -25.5 -45t-47.5 -19t-42.5 19t-12.5 45t25.5 45t47.5 19t42.5 -19t12.5 -45zM395 789q-4 -26 -25.5 -45t-47.5 -19t-42.5 19t-12.5 45t25.5 45t47.5 19 t42.5 -19t12.5 -45zM267 789q-4 -26 -25.5 -45t-47.5 -19t-42.5 19t-12.5 45t25.5 45t47.5 19t42.5 -19t12.5 -45z" />
<glyph unicode="&#xa9;" horiz-adv-x="870" d="M669 661q-3 -24 -22 -40.5t-43 -16.5t-38 16.5t-11 40.5t22 41t43 17t38 -17t11 -41zM773 534q-3 -21 -20 -36.5t-38 -15.5t-34.5 15.5t-10.5 36.5t20.5 36.5t38.5 15.5t34 -15.5t10 -36.5zM542 661q-3 -24 -22.5 -40.5t-43.5 -16.5t-38 16.5t-11 40.5t22 41t43 17 t38.5 -17t11.5 -41zM748 406q-3 -18 -17.5 -31t-32.5 -13t-29.5 13t-8.5 31t17.5 31t32.5 13t29.5 -13t8.5 -31zM414 661q-3 -24 -22 -40.5t-43 -16.5t-38.5 16.5t-11.5 40.5t22.5 41t43.5 17t38 -17t11 -41zM725 291q-2 -15 -15 -26t-28 -11t-24.5 11t-7.5 26t15 26.5 t28 11.5t24.5 -11.5t7.5 -26.5zM286 661q-3 -24 -22 -40.5t-43 -16.5t-38 16.5t-11 40.5t22 41t43 17t38 -17t11 -41zM700 189q-4 -27 -30 -27q-28 0 -24 27t31 27t23 -27zM492 406q-3 -18 -17.5 -31t-32.5 -13t-29 13t-8 31t17.5 31t32.5 13t29 -13t8 -31zM684 103 q-3 -23 -26 -23t-20 23t27 23q22 0 19 -23zM365 406q-3 -18 -17.5 -31t-32.5 -13t-29.5 13t-8.5 31t17.5 31t32.5 13t29.5 -13t8.5 -31zM135 534q-3 -21 -20.5 -36.5t-38.5 -15.5t-34 15.5t-10 36.5t20.5 36.5t38.5 15.5t34 -15.5t10 -36.5zM445 189q-4 -27 -31 -27t-23 27 t31 27t23 -27zM342 291q-2 -15 -15 -26t-28 -11t-24.5 11t-7.5 26t15 26.5t28 11.5t24.5 -11.5t7.5 -26.5zM543 20q-3 -20 -24 -20t-18 20q3 21 24 21t18 -21zM317 189q-4 -27 -30 -27q-28 0 -24 27t31 27t23 -27zM109 406q-3 -18 -17.5 -31t-32.5 -13t-29 13t-8 31t17.5 31 t32.5 13t29 -13t8 -31zM415 20q-3 -20 -24 -20q-20 0 -17 20q3 21 23 21q21 0 18 -21zM87 291q-2 -15 -15 -26t-28 -11t-24.5 11t-7.5 26t15 26.5t28 11.5t24.5 -11.5t7.5 -26.5zM287 20q-3 -20 -23 -20q-21 0 -18 20q3 21 24 21q20 0 17 -21zM62 189q-4 -27 -31 -27t-23 27 t31 27t23 -27zM160 20q-3 -20 -24 -20t-18 20q3 21 24 21t18 -21zM46 103q-3 -23 -26 -23t-20 23t26 23t20 -23z" />
<glyph unicode="&#xaa;" horiz-adv-x="624" d="M423 661q-3 -24 -22 -40.5t-43 -16.5t-38 16.5t-11 40.5t22 41t43 17t38 -17t11 -41zM527 534q-3 -21 -20.5 -36.5t-38.5 -15.5t-34 15.5t-10 36.5t20.5 36.5t38.5 15.5t34 -15.5t10 -36.5zM296 661q-3 -24 -22.5 -40.5t-43.5 -16.5t-38 16.5t-11 40.5t22 41t43 17 t38.5 -17t11.5 -41zM502 406q-3 -18 -17.5 -31t-32.5 -13t-29.5 13t-8.5 31t17.5 31t32.5 13t29.5 -13t8.5 -31zM374 406q-3 -18 -17.5 -31t-32.5 -13t-29.5 13t-8.5 31t17.5 31t32.5 13t29.5 -13t8.5 -31zM479 291q-2 -15 -15 -26t-28 -11t-24.5 11t-7.5 26t15 26.5 t28 11.5t24.5 -11.5t7.5 -26.5zM246 406q-3 -18 -17.5 -31t-32.5 -13t-29 13t-8 31t17.5 31t32.5 13t29 -13t8 -31zM327 189q-4 -27 -31 -27t-23 27t30 27q28 0 24 -27zM119 406q-3 -18 -17.5 -31t-32.5 -13t-29.5 13t-8.5 31t17.5 31t32.5 13t29.5 -13t8.5 -31zM424 20 q-3 -20 -23 -20q-21 0 -18 20q3 21 24 21q20 0 17 -21zM199 189q-4 -27 -31 -27t-23 27t31 27t23 -27zM96 291q-2 -15 -15 -26t-28 -11t-24.5 11t-7.5 26t15 26.5t28 11.5t24.5 -11.5t7.5 -26.5zM297 20q-3 -20 -24 -20t-18 20q3 21 24 21t18 -21zM169 20q-3 -20 -24 -20 q-20 0 -17 20q3 21 23 21q21 0 18 -21zM41 20q-3 -20 -23 -20q-21 0 -18 20q3 21 24 21q20 0 17 -21z" />
<glyph unicode="&#xad;" horiz-adv-x="533" d="M437 189q-4 -27 -31 -27t-23 27t31 27t23 -27zM309 189q-4 -27 -30 -27q-28 0 -24 27t31 27t23 -27zM182 189q-4 -27 -31 -27t-23 27t30 27q28 0 24 -27zM54 189q-4 -27 -31 -27t-23 27t31 27t23 -27z" />
<glyph unicode="&#xae;" horiz-adv-x="870" d="M669 661q-3 -24 -22 -40.5t-43 -16.5t-38 16.5t-11 40.5t22 41t43 17t38 -17t11 -41zM773 534q-3 -21 -20.5 -36.5t-38.5 -15.5t-34 15.5t-10 36.5t20.5 36.5t38.5 15.5t34 -15.5t10 -36.5zM542 661q-3 -24 -22.5 -40.5t-43.5 -16.5t-38 16.5t-11 40.5t22 41t43 17 t38.5 -17t11.5 -41zM748 406q-3 -18 -17.5 -31t-32.5 -13t-29.5 13t-8.5 31t17.5 31t32.5 13t29.5 -13t8.5 -31zM414 661q-3 -24 -22 -40.5t-43 -16.5t-38.5 16.5t-11.5 40.5t22.5 41t43.5 17t38 -17t11 -41zM725 291q-2 -15 -15 -26t-28 -11t-24.5 11t-7.5 26t15 26.5 t28 11.5t24.5 -11.5t7.5 -26.5zM286 661q-3 -24 -22 -40.5t-43 -16.5t-38 16.5t-11 40.5t22 41t43 17t38 -17t11 -41zM700 189q-4 -27 -30 -27q-28 0 -24 27t31 27t23 -27zM492 406q-3 -18 -17.5 -31t-32.5 -13t-29 13t-8 31t17.5 31t32.5 13t29 -13t8 -31zM684 103 q-3 -23 -26 -23t-20 23t27 23q22 0 19 -23zM365 406q-3 -18 -17.5 -31t-32.5 -13t-29.5 13t-8.5 31t17.5 31t32.5 13t29.5 -13t8.5 -31zM135 534q-3 -21 -20.5 -36.5t-38.5 -15.5t-34 15.5t-10 36.5t20.5 36.5t38.5 15.5t34 -15.5t10 -36.5zM342 291q-2 -15 -15 -26t-28 -11 t-24.5 11t-7.5 26t15 26.5t28 11.5t24.5 -11.5t7.5 -26.5zM543 20q-3 -20 -24 -20t-18 20q3 21 24 21t18 -21zM317 189q-4 -27 -30 -27q-28 0 -24 27t31 27t23 -27zM109 406q-3 -18 -17.5 -31t-32.5 -13t-29 13t-8 31t17.5 31t32.5 13t29 -13t8 -31zM415 20q-3 -20 -24 -20 q-20 0 -17 20q3 21 23 21q21 0 18 -21zM87 291q-2 -15 -15 -26t-28 -11t-24.5 11t-7.5 26t15 26.5t28 11.5t24.5 -11.5t7.5 -26.5zM287 20q-3 -20 -23 -20q-21 0 -18 20q3 21 24 21q20 0 17 -21zM62 189q-4 -27 -31 -27t-23 27t31 27t23 -27zM160 20q-3 -20 -24 -20t-18 20 q3 21 24 21t18 -21zM46 103q-3 -23 -26 -23t-20 23t26 23t20 -23z" />
<glyph unicode="&#xb0;" horiz-adv-x="711" d="M511 661q-3 -24 -22.5 -40.5t-43.5 -16.5t-38 16.5t-11 40.5t22 41t43 17t38.5 -17t11.5 -41zM615 534q-3 -21 -20.5 -36.5t-38.5 -15.5t-34.5 15.5t-10.5 36.5t20.5 36.5t38.5 15.5t34.5 -15.5t10.5 -36.5zM383 661q-3 -24 -22.5 -40.5t-43.5 -16.5t-38 16.5t-11 40.5 t22.5 41t43.5 17t38 -17t11 -41zM487 534q-3 -21 -20.5 -36.5t-38.5 -15.5t-34 15.5t-10 36.5t20 36.5t38 15.5t34.5 -15.5t10.5 -36.5zM255 661q-3 -24 -22 -40.5t-43 -16.5t-38.5 16.5t-11.5 40.5t22.5 41t43.5 17t38 -17t11 -41zM461 406q-3 -18 -17.5 -31t-32.5 -13 t-29.5 13t-8.5 31t17.5 31t32.5 13t29.5 -13t8.5 -31zM232 534q-3 -21 -20.5 -36.5t-38.5 -15.5t-34.5 15.5t-10.5 36.5t20.5 36.5t38.5 15.5t34.5 -15.5t10.5 -36.5zM334 406q-3 -18 -18 -31t-33 -13t-29 13t-8 31t17.5 31t32.5 13t29.5 -13t8.5 -31zM104 534 q-3 -21 -20.5 -36.5t-38.5 -15.5t-34 15.5t-10 36.5t20 36.5t38 15.5t34.5 -15.5t10.5 -36.5zM206 406q-3 -18 -17.5 -31t-32.5 -13t-29.5 13t-8.5 31t17.5 31t32.5 13t29.5 -13t8.5 -31z" />
<glyph unicode="&#xb2;" horiz-adv-x="396" d="M299 789q-4 -26 -25.5 -45t-47.5 -19t-42.5 19t-12.5 45t25.5 45t47.5 19t42.5 -19t12.5 -45zM171 789q-4 -26 -25.5 -45t-47.5 -19t-42.5 19t-12.5 45t25.5 45t47.5 19t42.5 -19t12.5 -45zM274 661q-3 -24 -22 -40.5t-43 -16.5t-38 16.5t-11 40.5t22 41t43 17t38 -17 t11 -41zM251 534q-3 -21 -20.5 -36.5t-38.5 -15.5t-34.5 15.5t-10.5 36.5t20.5 36.5t38.5 15.5t34.5 -15.5t10.5 -36.5zM123 534q-3 -21 -20.5 -36.5t-38.5 -15.5t-34 15.5t-10 36.5t20.5 36.5t38.5 15.5t34 -15.5t10 -36.5zM97 406q-3 -18 -17.5 -31t-32.5 -13t-29 13 t-8 31t17.5 31t32.5 13t29 -13t8 -31zM202 291q-2 -15 -14.5 -26t-27.5 -11t-24.5 11t-7.5 26q2 16 14.5 27t27.5 11t24.5 -11.5t7.5 -26.5zM75 291q-2 -15 -15 -26t-28 -11t-24.5 11t-7.5 26t15 26.5t28 11.5t24.5 -11.5t7.5 -26.5z" />
<glyph unicode="&#xb3;" horiz-adv-x="396" d="M299 789q-4 -26 -25.5 -45t-47.5 -19t-42.5 19t-12.5 45t25.5 45t47.5 19t42.5 -19t12.5 -45zM171 789q-4 -26 -25.5 -45t-47.5 -19t-42.5 19t-12.5 45t25.5 45t47.5 19t42.5 -19t12.5 -45zM274 661q-3 -24 -22 -40.5t-43 -16.5t-38 16.5t-11 40.5t22 41t43 17t38 -17 t11 -41zM251 534q-3 -21 -20.5 -36.5t-38.5 -15.5t-34.5 15.5t-10.5 36.5t20.5 36.5t38.5 15.5t34.5 -15.5t10.5 -36.5zM123 534q-3 -21 -20.5 -36.5t-38.5 -15.5t-34 15.5t-10 36.5t20.5 36.5t38.5 15.5t34 -15.5t10 -36.5zM225 406q-3 -18 -17.5 -31t-32.5 -13t-29.5 13 t-8.5 31t17.5 31t32.5 13t29.5 -13t8.5 -31zM202 291q-2 -15 -14.5 -26t-27.5 -11t-24.5 11t-7.5 26q2 16 14.5 27t27.5 11t24.5 -11.5t7.5 -26.5zM75 291q-2 -15 -15 -26t-28 -11t-24.5 11t-7.5 26t15 26.5t28 11.5t24.5 -11.5t7.5 -26.5z" />
<glyph unicode="&#xb4;" horiz-adv-x="492" d="M395 789q-4 -26 -25.5 -45t-47.5 -19t-42.5 19t-12.5 45t25.5 45t47.5 19t42.5 -19t12.5 -45zM267 789q-4 -26 -25 -45t-47 -19t-42.5 19t-12.5 45t25.5 45t47.5 19t42 -19t12 -45zM243 661q-3 -24 -22 -40.5t-43 -16.5t-38.5 16.5t-11.5 40.5t22.5 41t43.5 17t38 -17 t11 -41zM115 661q-3 -24 -22 -40.5t-43 -16.5t-38 16.5t-11 40.5t22 41t43 17t38 -17t11 -41z" />
<glyph unicode="&#xb5;" horiz-adv-x="998" d="M902 406q-3 -18 -17.5 -31t-32.5 -13t-29.5 13t-8.5 31t17.5 31t32.5 13t29.5 -13t8.5 -31zM774 406q-3 -18 -17.5 -31t-32.5 -13t-29.5 13t-8.5 31t18 31t33 13t29 -13t8 -31zM879 291q-2 -15 -14.5 -26t-27.5 -11t-24.5 11t-7.5 26q2 16 14.5 27t27.5 11t24.5 -11.5 t7.5 -26.5zM855 189q-4 -27 -31 -27t-23 27t30 27q28 0 24 -27zM752 291q-2 -15 -15 -26t-28 -11t-24.5 11t-7.5 26q2 16 14.5 27t27.5 11t25 -11.5t8 -26.5zM838 103q-3 -23 -26 -23q-22 0 -19 23t26 23q22 0 19 -23zM727 189q-4 -27 -31 -27t-23 27t31 27t23 -27zM711 103 q-3 -23 -26 -23t-20 23t26 23t20 -23zM697 20q-3 -20 -24 -20q-20 0 -17 20q3 21 23 21q21 0 18 -21zM264 406q-3 -18 -17.5 -31t-32.5 -13t-29.5 13t-8.5 31t17.5 31t32.5 13t29.5 -13t8.5 -31zM569 20q-3 -20 -23 -20q-21 0 -18 20q3 21 23 21q21 0 18 -21zM136 406 q-3 -18 -17.5 -31t-32.5 -13t-29.5 13t-8.5 31t17.5 31t32.5 13t29.5 -13t8.5 -31zM241 291q-2 -15 -15 -26t-28 -11t-24.5 11t-7.5 26t15 26.5t28 11.5t24.5 -11.5t7.5 -26.5zM442 20q-3 -20 -24 -20t-18 20q3 21 24 21t18 -21zM216 189q-4 -27 -31 -27t-23 27t31 27 t23 -27zM113 291q-2 -15 -14.5 -26t-27.5 -11t-24.5 11t-7.5 26q2 16 14.5 27t27.5 11t24.5 -11.5t7.5 -26.5zM314 20q-3 -20 -24 -20q-20 0 -17 20q3 21 23 21q21 0 18 -21zM200 103q-3 -23 -26 -23t-20 23t26 23t20 -23zM89 189q-4 -27 -31 -27t-23 27t30 27q28 0 24 -27z M186 20q-3 -20 -23 -20q-21 0 -18 20q3 21 23 21q21 0 18 -21zM72 103q-3 -23 -26 -23q-22 0 -19 23t26 23q22 0 19 -23zM173 -56q-3 -19 -21 -19q-19 0 -16 19q3 18 21 18q19 0 16 -18zM59 20q-3 -20 -24 -20t-18 20q3 21 24 21t18 -21zM161 -130q-2 -17 -19 -17 q-16 0 -14 17q2 16 19 16q16 0 14 -16zM46 -56q-3 -19 -22 -19q-18 0 -15 19q3 18 21 18q19 0 16 -18zM33 -130q-2 -17 -19 -17q-16 0 -14 17q2 16 19 16q16 0 14 -16z" />
<glyph unicode="&#x3bc;" horiz-adv-x="998" d="M902 406q-3 -18 -17.5 -31t-32.5 -13t-29.5 13t-8.5 31t17.5 31t32.5 13t29.5 -13t8.5 -31zM774 406q-3 -18 -17.5 -31t-32.5 -13t-29.5 13t-8.5 31t18 31t33 13t29 -13t8 -31zM879 291q-2 -15 -14.5 -26t-27.5 -11t-24.5 11t-7.5 26q2 16 14.5 27t27.5 11t24.5 -11.5 t7.5 -26.5zM855 189q-4 -27 -31 -27t-23 27t30 27q28 0 24 -27zM752 291q-2 -15 -15 -26t-28 -11t-24.5 11t-7.5 26q2 16 14.5 27t27.5 11t25 -11.5t8 -26.5zM838 103q-3 -23 -26 -23q-22 0 -19 23t26 23q22 0 19 -23zM727 189q-4 -27 -31 -27t-23 27t31 27t23 -27zM711 103 q-3 -23 -26 -23t-20 23t26 23t20 -23zM697 20q-3 -20 -24 -20q-20 0 -17 20q3 21 23 21q21 0 18 -21zM264 406q-3 -18 -17.5 -31t-32.5 -13t-29.5 13t-8.5 31t17.5 31t32.5 13t29.5 -13t8.5 -31zM569 20q-3 -20 -23 -20q-21 0 -18 20q3 21 23 21q21 0 18 -21zM136 406 q-3 -18 -17.5 -31t-32.5 -13t-29.5 13t-8.5 31t17.5 31t32.5 13t29.5 -13t8.5 -31zM241 291q-2 -15 -15 -26t-28 -11t-24.5 11t-7.5 26t15 26.5t28 11.5t24.5 -11.5t7.5 -26.5zM442 20q-3 -20 -24 -20t-18 20q3 21 24 21t18 -21zM216 189q-4 -27 -31 -27t-23 27t31 27 t23 -27zM113 291q-2 -15 -14.5 -26t-27.5 -11t-24.5 11t-7.5 26q2 16 14.5 27t27.5 11t24.5 -11.5t7.5 -26.5zM314 20q-3 -20 -24 -20q-20 0 -17 20q3 21 23 21q21 0 18 -21zM200 103q-3 -23 -26 -23t-20 23t26 23t20 -23zM89 189q-4 -27 -31 -27t-23 27t30 27q28 0 24 -27z M186 20q-3 -20 -23 -20q-21 0 -18 20q3 21 23 21q21 0 18 -21zM72 103q-3 -23 -26 -23q-22 0 -19 23t26 23q22 0 19 -23zM173 -56q-3 -19 -21 -19q-19 0 -16 19q3 18 21 18q19 0 16 -18zM59 20q-3 -20 -24 -20t-18 20q3 21 24 21t18 -21zM161 -130q-2 -17 -19 -17 q-16 0 -14 17q2 16 19 16q16 0 14 -16zM46 -56q-3 -19 -22 -19q-18 0 -15 19q3 18 21 18q19 0 16 -18zM33 -130q-2 -17 -19 -17q-16 0 -14 17q2 16 19 16q16 0 14 -16z" />
<glyph unicode="&#xb9;" horiz-adv-x="594" d="M497 534q-3 -21 -20.5 -36.5t-38.5 -15.5t-34 15.5t-10 36.5t20.5 36.5t38.5 15.5t34 -15.5t10 -36.5zM369 534q-3 -21 -20.5 -36.5t-38.5 -15.5t-34 15.5t-10 36.5t20.5 36.5t38.5 15.5t34 -15.5t10 -36.5zM471 406q-3 -18 -17.5 -31t-32.5 -13t-29.5 13t-8.5 31t18 31 t33 13t29 -13t8 -31zM242 534q-3 -21 -20.5 -36.5t-38.5 -15.5t-34.5 15.5t-10.5 36.5t20.5 36.5t38.5 15.5t34.5 -15.5t10.5 -36.5zM344 406q-3 -18 -17.5 -31t-32.5 -13t-29.5 13t-8.5 31t17.5 31t32.5 13t29.5 -13t8.5 -31zM449 291q-2 -15 -15 -26t-28 -11t-24.5 11 t-7.5 26q2 16 14.5 27t27.5 11t25 -11.5t8 -26.5zM424 189q-4 -27 -31 -27t-23 27t31 27t23 -27zM216 406q-3 -18 -17.5 -31t-32.5 -13t-29.5 13t-8.5 31t17.5 31t32.5 13t29.5 -13t8.5 -31zM321 291q-2 -15 -15 -26t-28 -11t-24.5 11t-7.5 26t15 26.5t28 11.5t24.5 -11.5 t7.5 -26.5zM408 103q-3 -23 -26 -23t-20 23t26 23t20 -23zM296 189q-4 -27 -31 -27t-23 27t31 27t23 -27zM88 406q-3 -18 -17.5 -31t-32.5 -13t-29.5 13t-8.5 31t18 31t33 13t29 -13t8 -31zM394 20q-3 -20 -24 -20q-20 0 -17 20q3 21 23 21q21 0 18 -21zM280 103 q-3 -23 -26 -23t-20 23t26 23t20 -23zM266 20q-3 -20 -23 -20q-21 0 -18 20q3 21 23 21q21 0 18 -21z" />
<glyph unicode="&#xba;" horiz-adv-x="949" d="M748 406q-3 -18 -17.5 -31t-32.5 -13t-29.5 13t-8.5 31t17.5 31t32.5 13t29.5 -13t8.5 -31zM853 291q-2 -15 -15 -26t-28 -11t-24.5 11t-7.5 26t15 26.5t28 11.5t24.5 -11.5t7.5 -26.5zM828 189q-4 -27 -31 -27t-23 27t31 27t23 -27zM620 406q-3 -18 -17.5 -31t-32.5 -13 t-29.5 13t-8.5 31t17.5 31t32.5 13t29.5 -13t8.5 -31zM725 291q-2 -15 -15 -26t-28 -11t-24.5 11t-7.5 26t15 26.5t28 11.5t24.5 -11.5t7.5 -26.5zM812 103q-3 -23 -26 -23t-20 23t26 23t20 -23zM700 189q-4 -27 -30 -27q-28 0 -24 27t31 27t23 -27zM492 406 q-3 -18 -17.5 -31t-32.5 -13t-29 13t-8 31t17.5 31t32.5 13t29 -13t8 -31zM684 103q-3 -23 -26 -23t-20 23t26 23t20 -23zM365 406q-3 -18 -17.5 -31t-32.5 -13t-29.5 13t-8.5 31t17.5 31t32.5 13t29.5 -13t8.5 -31zM670 20q-3 -20 -23 -20q-21 0 -18 20q3 21 24 21 q20 0 17 -21zM237 406q-3 -18 -17.5 -31t-32.5 -13t-29.5 13t-8.5 31t17.5 31t32.5 13t29.5 -13t8.5 -31zM543 20q-3 -20 -24 -20t-18 20q3 21 24 21t18 -21zM214 291q-2 -15 -14.5 -26t-27.5 -11t-24.5 11t-7.5 26q2 16 14.5 27t27.5 11t24.5 -11.5t7.5 -26.5zM415 20 q-3 -20 -24 -20q-20 0 -17 20q3 21 23 21q21 0 18 -21zM190 189q-4 -27 -31 -27t-23 27t30 27q28 0 24 -27zM87 291q-2 -15 -15 -26t-28 -11t-24.5 11t-7.5 26t15 26.5t28 11.5t24.5 -11.5t7.5 -26.5zM287 20q-3 -20 -23 -20q-21 0 -18 20q3 21 24 21q20 0 17 -21zM174 103 q-3 -23 -27 -23q-22 0 -19 23t26 23t20 -23zM62 189q-4 -27 -31 -27t-23 27t31 27t23 -27zM160 20q-3 -20 -24 -20t-18 20q3 21 24 21t18 -21zM46 103q-3 -23 -26 -23t-20 23t26 23t20 -23z" />
<glyph unicode="&#xc0;" d="M773 534q-3 -21 -20.5 -36.5t-38.5 -15.5t-34 15.5t-10 36.5t20.5 36.5t38.5 15.5t34 -15.5t10 -36.5zM875 406q-3 -18 -17.5 -31t-32.5 -13t-29 13t-8 31t17.5 31t32.5 13t29 -13t8 -31zM646 534q-3 -21 -20.5 -36.5t-38.5 -15.5t-34.5 15.5t-10.5 36.5t20.5 36.5 t38.5 15.5t34.5 -15.5t10.5 -36.5zM748 406q-3 -18 -17.5 -31t-32.5 -13t-29.5 13t-8.5 31t17.5 31t32.5 13t29.5 -13t8.5 -31zM853 291q-2 -15 -15 -26t-28 -11t-24.5 11t-7.5 26t15 26.5t28 11.5t24.5 -11.5t7.5 -26.5zM518 534q-3 -21 -20.5 -36.5t-38.5 -15.5t-34 15.5 t-10 36.5t20.5 36.5t38.5 15.5t34 -15.5t10 -36.5zM828 189q-4 -27 -31 -27t-23 27t31 27t23 -27zM725 291q-2 -15 -15 -26t-28 -11t-24.5 11t-7.5 26t15 26.5t28 11.5t24.5 -11.5t7.5 -26.5zM812 103q-3 -23 -26 -23t-20 23t26 23t20 -23zM390 534q-3 -21 -20.5 -36.5 t-38.5 -15.5t-34 15.5t-10 36.5t20.5 36.5t38.5 15.5t34 -15.5t10 -36.5zM700 189q-4 -27 -30 -27q-28 0 -24 27t31 27t23 -27zM597 291q-2 -15 -14.5 -26t-27.5 -11t-24.5 11t-7.5 26q2 16 14.5 27t27.5 11t24.5 -11.5t7.5 -26.5zM684 103q-3 -23 -26 -23t-20 23t26 23 t20 -23zM263 534q-3 -21 -20.5 -36.5t-38.5 -15.5t-34.5 15.5t-10.5 36.5t20.5 36.5t38.5 15.5t34.5 -15.5t10.5 -36.5zM470 291q-2 -15 -15 -26t-28 -11t-24.5 11t-7.5 26t15 26.5t28 11.5t24.5 -11.5t7.5 -26.5zM670 20q-3 -20 -23 -20q-21 0 -18 20q3 21 24 21 q20 0 17 -21zM342 291q-2 -15 -15 -26t-28 -11t-24.5 11t-7.5 26t15 26.5t28 11.5t24.5 -11.5t7.5 -26.5zM543 20q-3 -20 -24 -20t-18 20q3 21 24 21t18 -21zM214 291q-2 -15 -14.5 -26t-27.5 -11t-24.5 11t-7.5 26q2 16 14.5 27t27.5 11t24.5 -11.5t7.5 -26.5zM415 20 q-3 -20 -24 -20q-20 0 -17 20q3 21 23 21q21 0 18 -21zM190 189q-4 -27 -31 -27t-23 27t30 27q28 0 24 -27zM287 20q-3 -20 -23 -20q-21 0 -18 20q3 21 24 21q20 0 17 -21zM174 103q-3 -23 -27 -23q-22 0 -19 23t26 23t20 -23zM62 189q-4 -27 -31 -27t-23 27t31 27t23 -27z M160 20q-3 -20 -24 -20t-18 20q3 21 24 21t18 -21zM46 103q-3 -23 -26 -23t-20 23t26 23t20 -23zM555 789q-4 -26 -25.5 -45t-47.5 -19t-42.5 19t-12.5 45t25.5 45t47.5 19t42.5 -19t12.5 -45zM658 661q-3 -24 -22 -40.5t-43 -16.5t-38.5 16.5t-11.5 40.5t22.5 41t43.5 17 t38 -17t11 -41zM427 789q-4 -26 -25.5 -45t-47.5 -19t-42 19t-12 45t25 45t47 19t42.5 -19t12.5 -45zM531 661q-3 -24 -22.5 -40.5t-43.5 -16.5t-38 16.5t-11 40.5t22 41t43 17t38.5 -17t11.5 -41z" />
<glyph unicode="&#xc1;" d="M773 534q-3 -21 -20.5 -36.5t-38.5 -15.5t-34 15.5t-10 36.5t20.5 36.5t38.5 15.5t34 -15.5t10 -36.5zM875 406q-3 -18 -17.5 -31t-32.5 -13t-29 13t-8 31t17.5 31t32.5 13t29 -13t8 -31zM646 534q-3 -21 -20.5 -36.5t-38.5 -15.5t-34.5 15.5t-10.5 36.5t20.5 36.5 t38.5 15.5t34.5 -15.5t10.5 -36.5zM748 406q-3 -18 -17.5 -31t-32.5 -13t-29.5 13t-8.5 31t17.5 31t32.5 13t29.5 -13t8.5 -31zM853 291q-2 -15 -15 -26t-28 -11t-24.5 11t-7.5 26t15 26.5t28 11.5t24.5 -11.5t7.5 -26.5zM518 534q-3 -21 -20.5 -36.5t-38.5 -15.5t-34 15.5 t-10 36.5t20.5 36.5t38.5 15.5t34 -15.5t10 -36.5zM828 189q-4 -27 -31 -27t-23 27t31 27t23 -27zM725 291q-2 -15 -15 -26t-28 -11t-24.5 11t-7.5 26t15 26.5t28 11.5t24.5 -11.5t7.5 -26.5zM812 103q-3 -23 -26 -23t-20 23t26 23t20 -23zM390 534q-3 -21 -20.5 -36.5 t-38.5 -15.5t-34 15.5t-10 36.5t20.5 36.5t38.5 15.5t34 -15.5t10 -36.5zM700 189q-4 -27 -30 -27q-28 0 -24 27t31 27t23 -27zM597 291q-2 -15 -14.5 -26t-27.5 -11t-24.5 11t-7.5 26q2 16 14.5 27t27.5 11t24.5 -11.5t7.5 -26.5zM684 103q-3 -23 -26 -23t-20 23t26 23 t20 -23zM263 534q-3 -21 -20.5 -36.5t-38.5 -15.5t-34.5 15.5t-10.5 36.5t20.5 36.5t38.5 15.5t34.5 -15.5t10.5 -36.5zM470 291q-2 -15 -15 -26t-28 -11t-24.5 11t-7.5 26t15 26.5t28 11.5t24.5 -11.5t7.5 -26.5zM670 20q-3 -20 -23 -20q-21 0 -18 20q3 21 24 21 q20 0 17 -21zM342 291q-2 -15 -15 -26t-28 -11t-24.5 11t-7.5 26t15 26.5t28 11.5t24.5 -11.5t7.5 -26.5zM543 20q-3 -20 -24 -20t-18 20q3 21 24 21t18 -21zM214 291q-2 -15 -14.5 -26t-27.5 -11t-24.5 11t-7.5 26q2 16 14.5 27t27.5 11t24.5 -11.5t7.5 -26.5zM415 20 q-3 -20 -24 -20q-20 0 -17 20q3 21 23 21q21 0 18 -21zM190 189q-4 -27 -31 -27t-23 27t30 27q28 0 24 -27zM287 20q-3 -20 -23 -20q-21 0 -18 20q3 21 24 21q20 0 17 -21zM174 103q-3 -23 -27 -23q-22 0 -19 23t26 23t20 -23zM62 189q-4 -27 -31 -27t-23 27t31 27t23 -27z M160 20q-3 -20 -24 -20t-18 20q3 21 24 21t18 -21zM46 103q-3 -23 -26 -23t-20 23t26 23t20 -23zM822 789q-4 -26 -25.5 -45t-47.5 -19t-42.5 19t-12.5 45t25.5 45t47.5 19t42.5 -19t12.5 -45zM694 789q-4 -26 -25 -45t-47 -19t-42.5 19t-12.5 45t25.5 45t47.5 19t42 -19 t12 -45zM670 661q-3 -24 -22 -40.5t-43 -16.5t-38.5 16.5t-11.5 40.5t22.5 41t43.5 17t38 -17t11 -41zM542 661q-3 -24 -22 -40.5t-43 -16.5t-38 16.5t-11 40.5t22 41t43 17t38 -17t11 -41z" />
<glyph unicode="&#xc2;" d="M773 534q-3 -21 -20.5 -36.5t-38.5 -15.5t-34 15.5t-10 36.5t20.5 36.5t38.5 15.5t34 -15.5t10 -36.5zM875 406q-3 -18 -17.5 -31t-32.5 -13t-29 13t-8 31t17.5 31t32.5 13t29 -13t8 -31zM646 534q-3 -21 -20.5 -36.5t-38.5 -15.5t-34.5 15.5t-10.5 36.5t20.5 36.5 t38.5 15.5t34.5 -15.5t10.5 -36.5zM748 406q-3 -18 -17.5 -31t-32.5 -13t-29.5 13t-8.5 31t17.5 31t32.5 13t29.5 -13t8.5 -31zM853 291q-2 -15 -15 -26t-28 -11t-24.5 11t-7.5 26t15 26.5t28 11.5t24.5 -11.5t7.5 -26.5zM518 534q-3 -21 -20.5 -36.5t-38.5 -15.5t-34 15.5 t-10 36.5t20.5 36.5t38.5 15.5t34 -15.5t10 -36.5zM828 189q-4 -27 -31 -27t-23 27t31 27t23 -27zM725 291q-2 -15 -15 -26t-28 -11t-24.5 11t-7.5 26t15 26.5t28 11.5t24.5 -11.5t7.5 -26.5zM812 103q-3 -23 -26 -23t-20 23t26 23t20 -23zM390 534q-3 -21 -20.5 -36.5 t-38.5 -15.5t-34 15.5t-10 36.5t20.5 36.5t38.5 15.5t34 -15.5t10 -36.5zM700 189q-4 -27 -30 -27q-28 0 -24 27t31 27t23 -27zM597 291q-2 -15 -14.5 -26t-27.5 -11t-24.5 11t-7.5 26q2 16 14.5 27t27.5 11t24.5 -11.5t7.5 -26.5zM684 103q-3 -23 -26 -23t-20 23t26 23 t20 -23zM263 534q-3 -21 -20.5 -36.5t-38.5 -15.5t-34.5 15.5t-10.5 36.5t20.5 36.5t38.5 15.5t34.5 -15.5t10.5 -36.5zM470 291q-2 -15 -15 -26t-28 -11t-24.5 11t-7.5 26t15 26.5t28 11.5t24.5 -11.5t7.5 -26.5zM670 20q-3 -20 -23 -20q-21 0 -18 20q3 21 24 21 q20 0 17 -21zM342 291q-2 -15 -15 -26t-28 -11t-24.5 11t-7.5 26t15 26.5t28 11.5t24.5 -11.5t7.5 -26.5zM543 20q-3 -20 -24 -20t-18 20q3 21 24 21t18 -21zM214 291q-2 -15 -14.5 -26t-27.5 -11t-24.5 11t-7.5 26q2 16 14.5 27t27.5 11t24.5 -11.5t7.5 -26.5zM415 20 q-3 -20 -24 -20q-20 0 -17 20q3 21 23 21q21 0 18 -21zM190 189q-4 -27 -31 -27t-23 27t30 27q28 0 24 -27zM287 20q-3 -20 -23 -20q-21 0 -18 20q3 21 24 21q20 0 17 -21zM174 103q-3 -23 -27 -23q-22 0 -19 23t26 23t20 -23zM62 189q-4 -27 -31 -27t-23 27t31 27t23 -27z M160 20q-3 -20 -24 -20t-18 20q3 21 24 21t18 -21zM46 103q-3 -23 -26 -23t-20 23t26 23t20 -23zM694 789q-4 -26 -25.5 -45t-47.5 -19t-42.5 19t-12.5 45t25.5 45t47.5 19t42.5 -19t12.5 -45zM797 661q-3 -24 -22 -40.5t-43 -16.5t-38.5 16.5t-11.5 40.5t22.5 41t43.5 17 t38 -17t11 -41zM566 789q-4 -26 -25.5 -45t-47.5 -19t-42.5 19t-12.5 45t25.5 45t47.5 19t42.5 -19t12.5 -45zM669 661q-3 -24 -22 -40.5t-43 -16.5t-38 16.5t-11 40.5t22 41t43 17t38 -17t11 -41zM438 789q-4 -26 -25 -45t-47 -19t-42.5 19t-12.5 45t25.5 45t47.5 19 t42 -19t12 -45zM414 661q-3 -24 -22 -40.5t-43 -16.5t-38.5 16.5t-11.5 40.5t22.5 41t43.5 17t38 -17t11 -41zM286 661q-3 -24 -22 -40.5t-43 -16.5t-38 16.5t-11 40.5t22 41t43 17t38 -17t11 -41z" />
<glyph unicode="&#xc3;" horiz-adv-x="1047" d="M773 534q-3 -21 -20.5 -36.5t-38.5 -15.5t-34 15.5t-10 36.5t20.5 36.5t38.5 15.5t34 -15.5t10 -36.5zM875 406q-3 -18 -17.5 -31t-32.5 -13t-29 13t-8 31t17.5 31t32.5 13t29 -13t8 -31zM646 534q-3 -21 -20.5 -36.5t-38.5 -15.5t-34.5 15.5t-10.5 36.5t20.5 36.5 t38.5 15.5t34.5 -15.5t10.5 -36.5zM748 406q-3 -18 -17.5 -31t-32.5 -13t-29.5 13t-8.5 31t17.5 31t32.5 13t29.5 -13t8.5 -31zM853 291q-2 -15 -15 -26t-28 -11t-24.5 11t-7.5 26t15 26.5t28 11.5t24.5 -11.5t7.5 -26.5zM518 534q-3 -21 -20.5 -36.5t-38.5 -15.5t-34 15.5 t-10 36.5t20.5 36.5t38.5 15.5t34 -15.5t10 -36.5zM828 189q-4 -27 -31 -27t-23 27t31 27t23 -27zM725 291q-2 -15 -15 -26t-28 -11t-24.5 11t-7.5 26t15 26.5t28 11.5t24.5 -11.5t7.5 -26.5zM812 103q-3 -23 -26 -23t-20 23t26 23t20 -23zM390 534q-3 -21 -20.5 -36.5 t-38.5 -15.5t-34 15.5t-10 36.5t20.5 36.5t38.5 15.5t34 -15.5t10 -36.5zM700 189q-4 -27 -30 -27q-28 0 -24 27t31 27t23 -27zM597 291q-2 -15 -14.5 -26t-27.5 -11t-24.5 11t-7.5 26q2 16 14.5 27t27.5 11t24.5 -11.5t7.5 -26.5zM684 103q-3 -23 -26 -23t-20 23t26 23 t20 -23zM263 534q-3 -21 -20.5 -36.5t-38.5 -15.5t-34.5 15.5t-10.5 36.5t20.5 36.5t38.5 15.5t34.5 -15.5t10.5 -36.5zM470 291q-2 -15 -15 -26t-28 -11t-24.5 11t-7.5 26t15 26.5t28 11.5t24.5 -11.5t7.5 -26.5zM670 20q-3 -20 -23 -20q-21 0 -18 20q3 21 24 21 q20 0 17 -21zM342 291q-2 -15 -15 -26t-28 -11t-24.5 11t-7.5 26t15 26.5t28 11.5t24.5 -11.5t7.5 -26.5zM543 20q-3 -20 -24 -20t-18 20q3 21 24 21t18 -21zM214 291q-2 -15 -14.5 -26t-27.5 -11t-24.5 11t-7.5 26q2 16 14.5 27t27.5 11t24.5 -11.5t7.5 -26.5zM415 20 q-3 -20 -24 -20q-20 0 -17 20q3 21 23 21q21 0 18 -21zM190 189q-4 -27 -31 -27t-23 27t30 27q28 0 24 -27zM287 20q-3 -20 -23 -20q-21 0 -18 20q3 21 24 21q20 0 17 -21zM174 103q-3 -23 -27 -23q-22 0 -19 23t26 23t20 -23zM62 189q-4 -27 -31 -27t-23 27t31 27t23 -27z M160 20q-3 -20 -24 -20t-18 20q3 21 24 21t18 -21zM46 103q-3 -23 -26 -23t-20 23t26 23t20 -23zM950 789q-4 -26 -25.5 -45t-47.5 -19t-42.5 19t-12.5 45t25.5 45t47.5 19t42.5 -19t12.5 -45zM822 789q-4 -26 -25.5 -45t-47.5 -19t-42.5 19t-12.5 45t25.5 45t47.5 19 t42.5 -19t12.5 -45zM798 661q-3 -24 -22.5 -40.5t-43.5 -16.5t-38 16.5t-11 40.5t22 41t43 17t38.5 -17t11.5 -41zM567 789q-4 -26 -25.5 -45t-47.5 -19t-42.5 19t-12.5 45t25.5 45t47.5 19t42.5 -19t12.5 -45zM670 661q-3 -24 -22 -40.5t-43 -16.5t-38.5 16.5t-11.5 40.5 t22.5 41t43.5 17t38 -17t11 -41zM439 789q-4 -26 -25.5 -45t-47.5 -19t-42.5 19t-12.5 45t25.5 45t47.5 19t42.5 -19t12.5 -45zM542 661q-3 -24 -22 -40.5t-43 -16.5t-38 16.5t-11 40.5t22 41t43 17t38 -17t11 -41zM311 789q-4 -26 -25 -45t-47 -19t-42.5 19t-12.5 45 t25.5 45t47.5 19t42 -19t12 -45zM287 661q-3 -24 -22 -40.5t-43 -16.5t-38.5 16.5t-11.5 40.5t22.5 41t43.5 17t38 -17t11 -41zM159 661q-3 -24 -22 -40.5t-43 -16.5t-38 16.5t-11 40.5t22 41t43 17t38 -17t11 -41z" />
<glyph unicode="&#xc4;" d="M773 534q-3 -21 -20.5 -36.5t-38.5 -15.5t-34 15.5t-10 36.5t20.5 36.5t38.5 15.5t34 -15.5t10 -36.5zM875 406q-3 -18 -17.5 -31t-32.5 -13t-29 13t-8 31t17.5 31t32.5 13t29 -13t8 -31zM646 534q-3 -21 -20.5 -36.5t-38.5 -15.5t-34.5 15.5t-10.5 36.5t20.5 36.5 t38.5 15.5t34.5 -15.5t10.5 -36.5zM748 406q-3 -18 -17.5 -31t-32.5 -13t-29.5 13t-8.5 31t17.5 31t32.5 13t29.5 -13t8.5 -31zM853 291q-2 -15 -15 -26t-28 -11t-24.5 11t-7.5 26t15 26.5t28 11.5t24.5 -11.5t7.5 -26.5zM518 534q-3 -21 -20.5 -36.5t-38.5 -15.5t-34 15.5 t-10 36.5t20.5 36.5t38.5 15.5t34 -15.5t10 -36.5zM828 189q-4 -27 -31 -27t-23 27t31 27t23 -27zM725 291q-2 -15 -15 -26t-28 -11t-24.5 11t-7.5 26t15 26.5t28 11.5t24.5 -11.5t7.5 -26.5zM812 103q-3 -23 -26 -23t-20 23t26 23t20 -23zM390 534q-3 -21 -20.5 -36.5 t-38.5 -15.5t-34 15.5t-10 36.5t20.5 36.5t38.5 15.5t34 -15.5t10 -36.5zM700 189q-4 -27 -30 -27q-28 0 -24 27t31 27t23 -27zM597 291q-2 -15 -14.5 -26t-27.5 -11t-24.5 11t-7.5 26q2 16 14.5 27t27.5 11t24.5 -11.5t7.5 -26.5zM684 103q-3 -23 -26 -23t-20 23t26 23 t20 -23zM263 534q-3 -21 -20.5 -36.5t-38.5 -15.5t-34.5 15.5t-10.5 36.5t20.5 36.5t38.5 15.5t34.5 -15.5t10.5 -36.5zM470 291q-2 -15 -15 -26t-28 -11t-24.5 11t-7.5 26t15 26.5t28 11.5t24.5 -11.5t7.5 -26.5zM670 20q-3 -20 -23 -20q-21 0 -18 20q3 21 24 21 q20 0 17 -21zM342 291q-2 -15 -15 -26t-28 -11t-24.5 11t-7.5 26t15 26.5t28 11.5t24.5 -11.5t7.5 -26.5zM543 20q-3 -20 -24 -20t-18 20q3 21 24 21t18 -21zM214 291q-2 -15 -14.5 -26t-27.5 -11t-24.5 11t-7.5 26q2 16 14.5 27t27.5 11t24.5 -11.5t7.5 -26.5zM415 20 q-3 -20 -24 -20q-20 0 -17 20q3 21 23 21q21 0 18 -21zM190 189q-4 -27 -31 -27t-23 27t30 27q28 0 24 -27zM287 20q-3 -20 -23 -20q-21 0 -18 20q3 21 24 21q20 0 17 -21zM174 103q-3 -23 -27 -23q-22 0 -19 23t26 23t20 -23zM62 189q-4 -27 -31 -27t-23 27t31 27t23 -27z M160 20q-3 -20 -24 -20t-18 20q3 21 24 21t18 -21zM46 103q-3 -23 -26 -23t-20 23t26 23t20 -23zM832 789q-4 -26 -25.5 -45t-47.5 -19t-42.5 19t-12.5 45t25.5 45t47.5 19t42.5 -19t12.5 -45zM704 789q-4 -26 -25.5 -45t-47.5 -19t-42.5 19t-12.5 45t25.5 45t47.5 19 t42.5 -19t12.5 -45zM449 789q-4 -26 -25.5 -45t-47.5 -19t-42.5 19t-12.5 45t25.5 45t47.5 19t42.5 -19t12.5 -45zM321 789q-4 -26 -25.5 -45t-47.5 -19t-42.5 19t-12.5 45t25.5 45t47.5 19t42.5 -19t12.5 -45z" />
<glyph unicode="&#xc5;" d="M773 534q-3 -21 -20.5 -36.5t-38.5 -15.5t-34 15.5t-10 36.5t20.5 36.5t38.5 15.5t34 -15.5t10 -36.5zM875 406q-3 -18 -17.5 -31t-32.5 -13t-29 13t-8 31t17.5 31t32.5 13t29 -13t8 -31zM646 534q-3 -21 -20.5 -36.5t-38.5 -15.5t-34.5 15.5t-10.5 36.5t20.5 36.5 t38.5 15.5t34.5 -15.5t10.5 -36.5zM748 406q-3 -18 -17.5 -31t-32.5 -13t-29.5 13t-8.5 31t17.5 31t32.5 13t29.5 -13t8.5 -31zM853 291q-2 -15 -15 -26t-28 -11t-24.5 11t-7.5 26t15 26.5t28 11.5t24.5 -11.5t7.5 -26.5zM518 534q-3 -21 -20.5 -36.5t-38.5 -15.5t-34 15.5 t-10 36.5t20.5 36.5t38.5 15.5t34 -15.5t10 -36.5zM828 189q-4 -27 -31 -27t-23 27t31 27t23 -27zM725 291q-2 -15 -15 -26t-28 -11t-24.5 11t-7.5 26t15 26.5t28 11.5t24.5 -11.5t7.5 -26.5zM812 103q-3 -23 -26 -23t-20 23t26 23t20 -23zM390 534q-3 -21 -20.5 -36.5 t-38.5 -15.5t-34 15.5t-10 36.5t20.5 36.5t38.5 15.5t34 -15.5t10 -36.5zM700 189q-4 -27 -30 -27q-28 0 -24 27t31 27t23 -27zM597 291q-2 -15 -14.5 -26t-27.5 -11t-24.5 11t-7.5 26q2 16 14.5 27t27.5 11t24.5 -11.5t7.5 -26.5zM684 103q-3 -23 -26 -23t-20 23t26 23 t20 -23zM263 534q-3 -21 -20.5 -36.5t-38.5 -15.5t-34.5 15.5t-10.5 36.5t20.5 36.5t38.5 15.5t34.5 -15.5t10.5 -36.5zM470 291q-2 -15 -15 -26t-28 -11t-24.5 11t-7.5 26t15 26.5t28 11.5t24.5 -11.5t7.5 -26.5zM670 20q-3 -20 -23 -20q-21 0 -18 20q3 21 24 21 q20 0 17 -21zM342 291q-2 -15 -15 -26t-28 -11t-24.5 11t-7.5 26t15 26.5t28 11.5t24.5 -11.5t7.5 -26.5zM543 20q-3 -20 -24 -20t-18 20q3 21 24 21t18 -21zM214 291q-2 -15 -14.5 -26t-27.5 -11t-24.5 11t-7.5 26q2 16 14.5 27t27.5 11t24.5 -11.5t7.5 -26.5zM415 20 q-3 -20 -24 -20q-20 0 -17 20q3 21 23 21q21 0 18 -21zM190 189q-4 -27 -31 -27t-23 27t30 27q28 0 24 -27zM287 20q-3 -20 -23 -20q-21 0 -18 20q3 21 24 21q20 0 17 -21zM174 103q-3 -23 -27 -23q-22 0 -19 23t26 23t20 -23zM62 189q-4 -27 -31 -27t-23 27t31 27t23 -27z M160 20q-3 -20 -24 -20t-18 20q3 21 24 21t18 -21zM46 103q-3 -23 -26 -23t-20 23t26 23t20 -23zM566 789q-4 -26 -25 -45t-47 -19t-42.5 19t-12.5 45t25.5 45t47.5 19t42 -19t12 -45zM670 661q-3 -24 -22.5 -40.5t-43.5 -16.5t-38 16.5t-11 40.5t22 41t43 17t38.5 -17 t11.5 -41zM414 661q-3 -24 -22 -40.5t-43 -16.5t-38 16.5t-11 40.5t22 41t43 17t38 -17t11 -41z" />
<glyph unicode="&#xc6;" horiz-adv-x="1610" d="M1412 534q-3 -21 -20.5 -36.5t-38.5 -15.5t-34.5 15.5t-10.5 36.5t20.5 36.5t38.5 15.5t34.5 -15.5t10.5 -36.5zM1514 406q-3 -18 -17.5 -31t-32.5 -13t-29.5 13t-8.5 31t17.5 31t32.5 13t29.5 -13t8.5 -31zM1284 534q-3 -21 -20.5 -36.5t-38.5 -15.5t-34 15.5t-10 36.5 t20.5 36.5t38.5 15.5t34 -15.5t10 -36.5zM1386 406q-3 -18 -17.5 -31t-32.5 -13t-29.5 13t-8.5 31t17.5 31t32.5 13t29.5 -13t8.5 -31zM1491 291q-2 -15 -15 -26t-28 -11t-24.5 11t-7.5 26t15 26.5t28 11.5t24.5 -11.5t7.5 -26.5zM1156 534q-3 -21 -20.5 -36.5t-38.5 -15.5 t-34 15.5t-10 36.5t20.5 36.5t38.5 15.5t34 -15.5t10 -36.5zM1363 291q-2 -15 -14.5 -26t-27.5 -11t-24.5 11t-7.5 26q2 16 14.5 27t27.5 11t24.5 -11.5t7.5 -26.5zM1029 534q-3 -21 -20.5 -36.5t-38.5 -15.5t-34.5 15.5t-10.5 36.5t20.5 36.5t38.5 15.5t34.5 -15.5 t10.5 -36.5zM1236 291q-2 -15 -15 -26t-28 -11t-24.5 11t-7.5 26t15 26.5t28 11.5t24.5 -11.5t7.5 -26.5zM901 534q-3 -21 -20.5 -36.5t-38.5 -15.5t-34 15.5t-10 36.5t20.5 36.5t38.5 15.5t34 -15.5t10 -36.5zM1108 291q-2 -15 -15 -26t-28 -11t-24.5 11t-7.5 26t15 26.5 t28 11.5t24.5 -11.5t7.5 -26.5zM1309 20q-3 -20 -24 -20t-18 20q3 21 24 21t18 -21zM875 406q-3 -18 -17.5 -31t-32.5 -13t-29 13t-8 31t17.5 31t32.5 13t29 -13t8 -31zM980 291q-2 -15 -14.5 -26t-27.5 -11t-24.5 11t-7.5 26q2 16 14.5 27t27.5 11t24.5 -11.5t7.5 -26.5z M1181 20q-3 -20 -24 -20q-20 0 -17 20q3 21 23 21q21 0 18 -21zM646 534q-3 -21 -20.5 -36.5t-38.5 -15.5t-34.5 15.5t-10.5 36.5t20.5 36.5t38.5 15.5t34.5 -15.5t10.5 -36.5zM748 406q-3 -18 -17.5 -31t-32.5 -13t-29.5 13t-8.5 31t17.5 31t32.5 13t29.5 -13t8.5 -31z M853 291q-2 -15 -15 -26t-28 -11t-24.5 11t-7.5 26t15 26.5t28 11.5t24.5 -11.5t7.5 -26.5zM1053 20q-3 -20 -23 -20q-21 0 -18 20q3 21 24 21q20 0 17 -21zM518 534q-3 -21 -20.5 -36.5t-38.5 -15.5t-34 15.5t-10 36.5t20.5 36.5t38.5 15.5t34 -15.5t10 -36.5zM828 189 q-4 -27 -31 -27t-23 27t31 27t23 -27zM725 291q-2 -15 -15 -26t-28 -11t-24.5 11t-7.5 26t15 26.5t28 11.5t24.5 -11.5t7.5 -26.5zM926 20q-3 -20 -24 -20t-18 20q3 21 24 21t18 -21zM812 103q-3 -23 -26 -23t-20 23t26 23t20 -23zM390 534q-3 -21 -20 -36.5t-38 -15.5 t-34.5 15.5t-10.5 36.5t20.5 36.5t38.5 15.5t34 -15.5t10 -36.5zM700 189q-4 -27 -30 -27q-28 0 -24 27t31 27t23 -27zM597 291q-2 -15 -14.5 -26t-27.5 -11t-24.5 11t-7.5 26q2 16 14.5 27t27.5 11t24.5 -11.5t7.5 -26.5zM684 103q-3 -23 -26 -23t-20 23t27 23q22 0 19 -23 zM263 534q-3 -21 -20.5 -36.5t-38.5 -15.5t-34.5 15.5t-10.5 36.5t20.5 36.5t38.5 15.5t34.5 -15.5t10.5 -36.5zM470 291q-2 -15 -15 -26t-28 -11t-24.5 11t-7.5 26t15 26.5t28 11.5t24.5 -11.5t7.5 -26.5zM670 20q-3 -20 -23 -20q-21 0 -18 20q3 21 24 21q20 0 17 -21z M342 291q-2 -15 -15 -26t-28 -11t-24.5 11t-7.5 26t15 26.5t28 11.5t24.5 -11.5t7.5 -26.5zM543 20q-3 -20 -24 -20t-18 20q3 21 24 21t18 -21zM214 291q-2 -15 -14.5 -26t-27.5 -11t-24.5 11t-7.5 26q2 16 14.5 27t27.5 11t24.5 -11.5t7.5 -26.5zM415 20q-3 -20 -24 -20 q-20 0 -17 20q3 21 23 21q21 0 18 -21zM190 189q-4 -27 -31 -27t-23 27t30 27q28 0 24 -27zM287 20q-3 -20 -23 -20q-21 0 -18 20q3 21 24 21q20 0 17 -21zM174 103q-3 -23 -27 -23q-22 0 -19 23t26 23t20 -23zM62 189q-4 -27 -31 -27t-23 27t31 27t23 -27zM160 20 q-3 -20 -24 -20t-18 20q3 21 24 21t18 -21zM46 103q-3 -23 -26 -23t-20 23t26 23t20 -23z" />
<glyph unicode="&#xc7;" horiz-adv-x="870" d="M773 534q-3 -21 -20 -36.5t-38 -15.5t-34.5 15.5t-10.5 36.5t20.5 36.5t38.5 15.5t34 -15.5t10 -36.5zM646 534q-3 -21 -20.5 -36.5t-38.5 -15.5t-34.5 15.5t-10.5 36.5t20.5 36.5t38.5 15.5t34.5 -15.5t10.5 -36.5zM518 534q-3 -21 -20.5 -36.5t-38.5 -15.5t-34 15.5 t-10 36.5t20.5 36.5t38.5 15.5t34 -15.5t10 -36.5zM390 534q-3 -21 -20 -36.5t-38 -15.5t-34.5 15.5t-10.5 36.5t20.5 36.5t38.5 15.5t34 -15.5t10 -36.5zM263 534q-3 -21 -20.5 -36.5t-38.5 -15.5t-34.5 15.5t-10.5 36.5t20.5 36.5t38.5 15.5t34.5 -15.5t10.5 -36.5z M670 20q-3 -20 -23 -20q-21 0 -18 20q3 21 24 21q20 0 17 -21zM237 406q-3 -18 -17.5 -31t-32.5 -13t-29.5 13t-8.5 31t17.5 31t32.5 13t29.5 -13t8.5 -31zM543 20q-3 -20 -24 -20t-18 20q3 21 24 21t18 -21zM109 406q-3 -18 -17.5 -31t-32.5 -13t-29 13t-8 31t17.5 31 t32.5 13t29 -13t8 -31zM214 291q-2 -15 -14.5 -26t-27.5 -11t-24.5 11t-7.5 26q2 16 14.5 27t27.5 11t24.5 -11.5t7.5 -26.5zM530 -56q-3 -19 -21 -19q-19 0 -16 19q3 18 21 18q19 0 16 -18zM415 20q-3 -20 -24 -20q-20 0 -17 20q3 21 23 21q21 0 18 -21zM190 189 q-4 -27 -31 -27t-23 27t30 27q28 0 24 -27zM87 291q-2 -15 -15 -26t-28 -11t-24.5 11t-7.5 26t15 26.5t28 11.5t24.5 -11.5t7.5 -26.5zM402 -56q-3 -19 -21 -19q-19 0 -16 19q3 18 21 18q19 0 16 -18zM287 20q-3 -20 -23 -20q-21 0 -18 20q3 21 24 21q20 0 17 -21zM174 103 q-3 -23 -27 -23q-22 0 -19 23t26 23t20 -23zM390 -130q-2 -17 -19 -17t-15 17q2 16 20 16q16 0 14 -16zM62 189q-4 -27 -31 -27t-23 27t31 27t23 -27zM160 20q-3 -20 -24 -20t-18 20q3 21 24 21t18 -21zM46 103q-3 -23 -26 -23t-20 23t26 23t20 -23zM262 -130 q-2 -17 -19 -17q-16 0 -14 17q2 16 19 16q16 0 14 -16z" />
<glyph unicode="&#xc8;" d="M773 534q-3 -21 -20.5 -36.5t-38.5 -15.5t-34 15.5t-10 36.5t20.5 36.5t38.5 15.5t34 -15.5t10 -36.5zM875 406q-3 -18 -17.5 -31t-32.5 -13t-29 13t-8 31t17.5 31t32.5 13t29 -13t8 -31zM646 534q-3 -21 -20.5 -36.5t-38.5 -15.5t-34.5 15.5t-10.5 36.5t20.5 36.5 t38.5 15.5t34.5 -15.5t10.5 -36.5zM748 406q-3 -18 -17.5 -31t-32.5 -13t-29.5 13t-8.5 31t17.5 31t32.5 13t29.5 -13t8.5 -31zM853 291q-2 -15 -15 -26t-28 -11t-24.5 11t-7.5 26t15 26.5t28 11.5t24.5 -11.5t7.5 -26.5zM518 534q-3 -21 -20.5 -36.5t-38.5 -15.5t-34 15.5 t-10 36.5t20.5 36.5t38.5 15.5t34 -15.5t10 -36.5zM725 291q-2 -15 -15 -26t-28 -11t-24.5 11t-7.5 26t15 26.5t28 11.5t24.5 -11.5t7.5 -26.5zM390 534q-3 -21 -20.5 -36.5t-38.5 -15.5t-34 15.5t-10 36.5t20.5 36.5t38.5 15.5t34 -15.5t10 -36.5zM597 291 q-2 -15 -14.5 -26t-27.5 -11t-24.5 11t-7.5 26q2 16 14.5 27t27.5 11t24.5 -11.5t7.5 -26.5zM263 534q-3 -21 -20.5 -36.5t-38.5 -15.5t-34.5 15.5t-10.5 36.5t20.5 36.5t38.5 15.5t34.5 -15.5t10.5 -36.5zM470 291q-2 -15 -15 -26t-28 -11t-24.5 11t-7.5 26t15 26.5 t28 11.5t24.5 -11.5t7.5 -26.5zM670 20q-3 -20 -23 -20q-21 0 -18 20q3 21 24 21q20 0 17 -21zM237 406q-3 -18 -17.5 -31t-32.5 -13t-29.5 13t-8.5 31t17.5 31t32.5 13t29.5 -13t8.5 -31zM342 291q-2 -15 -15 -26t-28 -11t-24.5 11t-7.5 26t15 26.5t28 11.5t24.5 -11.5 t7.5 -26.5zM543 20q-3 -20 -24 -20t-18 20q3 21 24 21t18 -21zM109 406q-3 -18 -17.5 -31t-32.5 -13t-29 13t-8 31t17.5 31t32.5 13t29 -13t8 -31zM214 291q-2 -15 -14.5 -26t-27.5 -11t-24.5 11t-7.5 26q2 16 14.5 27t27.5 11t24.5 -11.5t7.5 -26.5zM415 20q-3 -20 -24 -20 q-20 0 -17 20q3 21 23 21q21 0 18 -21zM190 189q-4 -27 -31 -27t-23 27t30 27q28 0 24 -27zM87 291q-2 -15 -15 -26t-28 -11t-24.5 11t-7.5 26t15 26.5t28 11.5t24.5 -11.5t7.5 -26.5zM287 20q-3 -20 -23 -20q-21 0 -18 20q3 21 24 21q20 0 17 -21zM174 103q-3 -23 -27 -23 q-22 0 -19 23t26 23t20 -23zM62 189q-4 -27 -31 -27t-23 27t31 27t23 -27zM160 20q-3 -20 -24 -20t-18 20q3 21 24 21t18 -21zM46 103q-3 -23 -26 -23t-20 23t26 23t20 -23zM555 789q-4 -26 -25.5 -45t-47.5 -19t-42.5 19t-12.5 45t25.5 45t47.5 19t42.5 -19t12.5 -45z M658 661q-3 -24 -22 -40.5t-43 -16.5t-38.5 16.5t-11.5 40.5t22.5 41t43.5 17t38 -17t11 -41zM427 789q-4 -26 -25.5 -45t-47.5 -19t-42 19t-12 45t25 45t47 19t42.5 -19t12.5 -45zM531 661q-3 -24 -22.5 -40.5t-43.5 -16.5t-38 16.5t-11 40.5t22 41t43 17t38.5 -17 t11.5 -41z" />
<glyph unicode="&#xc9;" d="M773 534q-3 -21 -20.5 -36.5t-38.5 -15.5t-34 15.5t-10 36.5t20.5 36.5t38.5 15.5t34 -15.5t10 -36.5zM875 406q-3 -18 -17.5 -31t-32.5 -13t-29 13t-8 31t17.5 31t32.5 13t29 -13t8 -31zM646 534q-3 -21 -20.5 -36.5t-38.5 -15.5t-34.5 15.5t-10.5 36.5t20.5 36.5 t38.5 15.5t34.5 -15.5t10.5 -36.5zM748 406q-3 -18 -17.5 -31t-32.5 -13t-29.5 13t-8.5 31t17.5 31t32.5 13t29.5 -13t8.5 -31zM853 291q-2 -15 -15 -26t-28 -11t-24.5 11t-7.5 26t15 26.5t28 11.5t24.5 -11.5t7.5 -26.5zM518 534q-3 -21 -20.5 -36.5t-38.5 -15.5t-34 15.5 t-10 36.5t20.5 36.5t38.5 15.5t34 -15.5t10 -36.5zM725 291q-2 -15 -15 -26t-28 -11t-24.5 11t-7.5 26t15 26.5t28 11.5t24.5 -11.5t7.5 -26.5zM390 534q-3 -21 -20.5 -36.5t-38.5 -15.5t-34 15.5t-10 36.5t20.5 36.5t38.5 15.5t34 -15.5t10 -36.5zM597 291 q-2 -15 -14.5 -26t-27.5 -11t-24.5 11t-7.5 26q2 16 14.5 27t27.5 11t24.5 -11.5t7.5 -26.5zM263 534q-3 -21 -20.5 -36.5t-38.5 -15.5t-34.5 15.5t-10.5 36.5t20.5 36.5t38.5 15.5t34.5 -15.5t10.5 -36.5zM470 291q-2 -15 -15 -26t-28 -11t-24.5 11t-7.5 26t15 26.5 t28 11.5t24.5 -11.5t7.5 -26.5zM670 20q-3 -20 -23 -20q-21 0 -18 20q3 21 24 21q20 0 17 -21zM237 406q-3 -18 -17.5 -31t-32.5 -13t-29.5 13t-8.5 31t17.5 31t32.5 13t29.5 -13t8.5 -31zM342 291q-2 -15 -15 -26t-28 -11t-24.5 11t-7.5 26t15 26.5t28 11.5t24.5 -11.5 t7.5 -26.5zM543 20q-3 -20 -24 -20t-18 20q3 21 24 21t18 -21zM109 406q-3 -18 -17.5 -31t-32.5 -13t-29 13t-8 31t17.5 31t32.5 13t29 -13t8 -31zM214 291q-2 -15 -14.5 -26t-27.5 -11t-24.5 11t-7.5 26q2 16 14.5 27t27.5 11t24.5 -11.5t7.5 -26.5zM415 20q-3 -20 -24 -20 q-20 0 -17 20q3 21 23 21q21 0 18 -21zM190 189q-4 -27 -31 -27t-23 27t30 27q28 0 24 -27zM87 291q-2 -15 -15 -26t-28 -11t-24.5 11t-7.5 26t15 26.5t28 11.5t24.5 -11.5t7.5 -26.5zM287 20q-3 -20 -23 -20q-21 0 -18 20q3 21 24 21q20 0 17 -21zM174 103q-3 -23 -27 -23 q-22 0 -19 23t26 23t20 -23zM62 189q-4 -27 -31 -27t-23 27t31 27t23 -27zM160 20q-3 -20 -24 -20t-18 20q3 21 24 21t18 -21zM46 103q-3 -23 -26 -23t-20 23t26 23t20 -23zM822 789q-4 -26 -25.5 -45t-47.5 -19t-42.5 19t-12.5 45t25.5 45t47.5 19t42.5 -19t12.5 -45z M694 789q-4 -26 -25 -45t-47 -19t-42.5 19t-12.5 45t25.5 45t47.5 19t42 -19t12 -45zM670 661q-3 -24 -22 -40.5t-43 -16.5t-38.5 16.5t-11.5 40.5t22.5 41t43.5 17t38 -17t11 -41zM542 661q-3 -24 -22 -40.5t-43 -16.5t-38 16.5t-11 40.5t22 41t43 17t38 -17t11 -41z" />
<glyph unicode="&#xca;" d="M773 534q-3 -21 -20.5 -36.5t-38.5 -15.5t-34 15.5t-10 36.5t20.5 36.5t38.5 15.5t34 -15.5t10 -36.5zM875 406q-3 -18 -17.5 -31t-32.5 -13t-29 13t-8 31t17.5 31t32.5 13t29 -13t8 -31zM646 534q-3 -21 -20.5 -36.5t-38.5 -15.5t-34.5 15.5t-10.5 36.5t20.5 36.5 t38.5 15.5t34.5 -15.5t10.5 -36.5zM748 406q-3 -18 -17.5 -31t-32.5 -13t-29.5 13t-8.5 31t17.5 31t32.5 13t29.5 -13t8.5 -31zM853 291q-2 -15 -15 -26t-28 -11t-24.5 11t-7.5 26t15 26.5t28 11.5t24.5 -11.5t7.5 -26.5zM518 534q-3 -21 -20.5 -36.5t-38.5 -15.5t-34 15.5 t-10 36.5t20.5 36.5t38.5 15.5t34 -15.5t10 -36.5zM725 291q-2 -15 -15 -26t-28 -11t-24.5 11t-7.5 26t15 26.5t28 11.5t24.5 -11.5t7.5 -26.5zM390 534q-3 -21 -20.5 -36.5t-38.5 -15.5t-34 15.5t-10 36.5t20.5 36.5t38.5 15.5t34 -15.5t10 -36.5zM597 291 q-2 -15 -14.5 -26t-27.5 -11t-24.5 11t-7.5 26q2 16 14.5 27t27.5 11t24.5 -11.5t7.5 -26.5zM263 534q-3 -21 -20.5 -36.5t-38.5 -15.5t-34.5 15.5t-10.5 36.5t20.5 36.5t38.5 15.5t34.5 -15.5t10.5 -36.5zM470 291q-2 -15 -15 -26t-28 -11t-24.5 11t-7.5 26t15 26.5 t28 11.5t24.5 -11.5t7.5 -26.5zM670 20q-3 -20 -23 -20q-21 0 -18 20q3 21 24 21q20 0 17 -21zM237 406q-3 -18 -17.5 -31t-32.5 -13t-29.5 13t-8.5 31t17.5 31t32.5 13t29.5 -13t8.5 -31zM342 291q-2 -15 -15 -26t-28 -11t-24.5 11t-7.5 26t15 26.5t28 11.5t24.5 -11.5 t7.5 -26.5zM543 20q-3 -20 -24 -20t-18 20q3 21 24 21t18 -21zM109 406q-3 -18 -17.5 -31t-32.5 -13t-29 13t-8 31t17.5 31t32.5 13t29 -13t8 -31zM214 291q-2 -15 -14.5 -26t-27.5 -11t-24.5 11t-7.5 26q2 16 14.5 27t27.5 11t24.5 -11.5t7.5 -26.5zM415 20q-3 -20 -24 -20 q-20 0 -17 20q3 21 23 21q21 0 18 -21zM190 189q-4 -27 -31 -27t-23 27t30 27q28 0 24 -27zM87 291q-2 -15 -15 -26t-28 -11t-24.5 11t-7.5 26t15 26.5t28 11.5t24.5 -11.5t7.5 -26.5zM287 20q-3 -20 -23 -20q-21 0 -18 20q3 21 24 21q20 0 17 -21zM174 103q-3 -23 -27 -23 q-22 0 -19 23t26 23t20 -23zM62 189q-4 -27 -31 -27t-23 27t31 27t23 -27zM160 20q-3 -20 -24 -20t-18 20q3 21 24 21t18 -21zM46 103q-3 -23 -26 -23t-20 23t26 23t20 -23zM694 789q-4 -26 -25.5 -45t-47.5 -19t-42.5 19t-12.5 45t25.5 45t47.5 19t42.5 -19t12.5 -45z M797 661q-3 -24 -22 -40.5t-43 -16.5t-38.5 16.5t-11.5 40.5t22.5 41t43.5 17t38 -17t11 -41zM566 789q-4 -26 -25.5 -45t-47.5 -19t-42.5 19t-12.5 45t25.5 45t47.5 19t42.5 -19t12.5 -45zM669 661q-3 -24 -22 -40.5t-43 -16.5t-38 16.5t-11 40.5t22 41t43 17t38 -17 t11 -41zM438 789q-4 -26 -25 -45t-47 -19t-42.5 19t-12.5 45t25.5 45t47.5 19t42 -19t12 -45zM414 661q-3 -24 -22 -40.5t-43 -16.5t-38.5 16.5t-11.5 40.5t22.5 41t43.5 17t38 -17t11 -41zM286 661q-3 -24 -22 -40.5t-43 -16.5t-38 16.5t-11 40.5t22 41t43 17t38 -17 t11 -41z" />
<glyph unicode="&#xcb;" d="M773 534q-3 -21 -20.5 -36.5t-38.5 -15.5t-34 15.5t-10 36.5t20.5 36.5t38.5 15.5t34 -15.5t10 -36.5zM875 406q-3 -18 -17.5 -31t-32.5 -13t-29 13t-8 31t17.5 31t32.5 13t29 -13t8 -31zM646 534q-3 -21 -20.5 -36.5t-38.5 -15.5t-34.5 15.5t-10.5 36.5t20.5 36.5 t38.5 15.5t34.5 -15.5t10.5 -36.5zM748 406q-3 -18 -17.5 -31t-32.5 -13t-29.5 13t-8.5 31t17.5 31t32.5 13t29.5 -13t8.5 -31zM853 291q-2 -15 -15 -26t-28 -11t-24.5 11t-7.5 26t15 26.5t28 11.5t24.5 -11.5t7.5 -26.5zM518 534q-3 -21 -20.5 -36.5t-38.5 -15.5t-34 15.5 t-10 36.5t20.5 36.5t38.5 15.5t34 -15.5t10 -36.5zM725 291q-2 -15 -15 -26t-28 -11t-24.5 11t-7.5 26t15 26.5t28 11.5t24.5 -11.5t7.5 -26.5zM390 534q-3 -21 -20.5 -36.5t-38.5 -15.5t-34 15.5t-10 36.5t20.5 36.5t38.5 15.5t34 -15.5t10 -36.5zM597 291 q-2 -15 -14.5 -26t-27.5 -11t-24.5 11t-7.5 26q2 16 14.5 27t27.5 11t24.5 -11.5t7.5 -26.5zM263 534q-3 -21 -20.5 -36.5t-38.5 -15.5t-34.5 15.5t-10.5 36.5t20.5 36.5t38.5 15.5t34.5 -15.5t10.5 -36.5zM470 291q-2 -15 -15 -26t-28 -11t-24.5 11t-7.5 26t15 26.5 t28 11.5t24.5 -11.5t7.5 -26.5zM670 20q-3 -20 -23 -20q-21 0 -18 20q3 21 24 21q20 0 17 -21zM237 406q-3 -18 -17.5 -31t-32.5 -13t-29.5 13t-8.5 31t17.5 31t32.5 13t29.5 -13t8.5 -31zM342 291q-2 -15 -15 -26t-28 -11t-24.5 11t-7.5 26t15 26.5t28 11.5t24.5 -11.5 t7.5 -26.5zM543 20q-3 -20 -24 -20t-18 20q3 21 24 21t18 -21zM109 406q-3 -18 -17.5 -31t-32.5 -13t-29 13t-8 31t17.5 31t32.5 13t29 -13t8 -31zM214 291q-2 -15 -14.5 -26t-27.5 -11t-24.5 11t-7.5 26q2 16 14.5 27t27.5 11t24.5 -11.5t7.5 -26.5zM415 20q-3 -20 -24 -20 q-20 0 -17 20q3 21 23 21q21 0 18 -21zM190 189q-4 -27 -31 -27t-23 27t30 27q28 0 24 -27zM87 291q-2 -15 -15 -26t-28 -11t-24.5 11t-7.5 26t15 26.5t28 11.5t24.5 -11.5t7.5 -26.5zM287 20q-3 -20 -23 -20q-21 0 -18 20q3 21 24 21q20 0 17 -21zM174 103q-3 -23 -27 -23 q-22 0 -19 23t26 23t20 -23zM62 189q-4 -27 -31 -27t-23 27t31 27t23 -27zM160 20q-3 -20 -24 -20t-18 20q3 21 24 21t18 -21zM46 103q-3 -23 -26 -23t-20 23t26 23t20 -23zM832 789q-4 -26 -25.5 -45t-47.5 -19t-42.5 19t-12.5 45t25.5 45t47.5 19t42.5 -19t12.5 -45z M704 789q-4 -26 -25.5 -45t-47.5 -19t-42.5 19t-12.5 45t25.5 45t47.5 19t42.5 -19t12.5 -45zM449 789q-4 -26 -25.5 -45t-47.5 -19t-42.5 19t-12.5 45t25.5 45t47.5 19t42.5 -19t12.5 -45zM321 789q-4 -26 -25.5 -45t-47.5 -19t-42.5 19t-12.5 45t25.5 45t47.5 19t42.5 -19 t12.5 -45z" />
<glyph unicode="&#xcc;" horiz-adv-x="517" d="M374 406q-3 -18 -17.5 -31t-32.5 -13t-29 13t-8 31t17.5 31t32.5 13t29 -13t8 -31zM247 406q-3 -18 -17.5 -31t-32.5 -13t-29.5 13t-8.5 31t17.5 31t32.5 13t29.5 -13t8.5 -31zM352 291q-2 -15 -15 -26t-28 -11t-24.5 11t-7.5 26t15 26.5t28 11.5t24.5 -11.5t7.5 -26.5z M327 189q-4 -27 -31 -27t-23 27t31 27t23 -27zM224 291q-2 -15 -15 -26t-28 -11t-24.5 11t-7.5 26t15 26.5t28 11.5t24.5 -11.5t7.5 -26.5zM311 103q-3 -23 -26 -23t-20 23t26 23t20 -23zM199 189q-4 -27 -30 -27q-28 0 -24 27t31 27t23 -27zM297 20q-3 -20 -24 -20 q-20 0 -17 20q3 21 23 21q21 0 18 -21zM183 103q-3 -23 -26 -23t-20 23t27 23q22 0 19 -23zM169 20q-3 -20 -23 -20q-21 0 -18 20q3 21 24 21q20 0 17 -21zM317 789q-4 -26 -25.5 -45t-47.5 -19t-42.5 19t-12.5 45t25.5 45t47.5 19t42.5 -19t12.5 -45zM420 661 q-3 -24 -22 -40.5t-43 -16.5t-38.5 16.5t-11.5 40.5t22.5 41t43.5 17t38 -17t11 -41zM189 789q-4 -26 -25.5 -45t-47.5 -19t-42 19t-12 45t25 45t47 19t42.5 -19t12.5 -45zM293 661q-3 -24 -22.5 -40.5t-43.5 -16.5t-38 16.5t-11 40.5t22 41t43 17t38.5 -17t11.5 -41z" />
<glyph unicode="&#xcd;" horiz-adv-x="553" d="M246 406q-3 -18 -17.5 -31t-32.5 -13t-29 13t-8 31t17.5 31t32.5 13t29 -13t8 -31zM119 406q-3 -18 -17.5 -31t-32.5 -13t-29.5 13t-8.5 31t17.5 31t32.5 13t29.5 -13t8.5 -31zM224 291q-2 -15 -15 -26t-28 -11t-24.5 11t-7.5 26t15 26.5t28 11.5t24.5 -11.5t7.5 -26.5z M199 189q-4 -27 -31 -27t-23 27t31 27t23 -27zM96 291q-2 -15 -15 -26t-28 -11t-24.5 11t-7.5 26t15 26.5t28 11.5t24.5 -11.5t7.5 -26.5zM183 103q-3 -23 -26 -23t-20 23t26 23t20 -23zM71 189q-4 -27 -30 -27q-28 0 -24 27t31 27t23 -27zM169 20q-3 -20 -24 -20 q-20 0 -17 20q3 21 23 21q21 0 18 -21zM55 103q-3 -23 -26 -23t-20 23t27 23q22 0 19 -23zM41 20q-3 -20 -23 -20q-21 0 -18 20q3 21 24 21q20 0 17 -21zM456 789q-4 -26 -25.5 -45t-47.5 -19t-42.5 19t-12.5 45t25.5 45t47.5 19t42.5 -19t12.5 -45zM328 789q-4 -26 -25 -45 t-47 -19t-42.5 19t-12.5 45t25.5 45t47.5 19t42 -19t12 -45zM304 661q-3 -24 -22 -40.5t-43 -16.5t-38.5 16.5t-11.5 40.5t22.5 41t43.5 17t38 -17t11 -41zM176 661q-3 -24 -22 -40.5t-43 -16.5t-38 16.5t-11 40.5t22 41t43 17t38 -17t11 -41z" />
<glyph unicode="&#xce;" horiz-adv-x="775" d="M374 406q-3 -18 -17.5 -31t-32.5 -13t-29 13t-8 31t17.5 31t32.5 13t29 -13t8 -31zM247 406q-3 -18 -17.5 -31t-32.5 -13t-29.5 13t-8.5 31t17.5 31t32.5 13t29.5 -13t8.5 -31zM352 291q-2 -15 -15 -26t-28 -11t-24.5 11t-7.5 26t15 26.5t28 11.5t24.5 -11.5t7.5 -26.5z M327 189q-4 -27 -31 -27t-23 27t31 27t23 -27zM224 291q-2 -15 -15 -26t-28 -11t-24.5 11t-7.5 26t15 26.5t28 11.5t24.5 -11.5t7.5 -26.5zM311 103q-3 -23 -26 -23t-20 23t26 23t20 -23zM199 189q-4 -27 -30 -27q-28 0 -24 27t31 27t23 -27zM297 20q-3 -20 -24 -20 q-20 0 -17 20q3 21 23 21q21 0 18 -21zM183 103q-3 -23 -26 -23t-20 23t27 23q22 0 19 -23zM169 20q-3 -20 -23 -20q-21 0 -18 20q3 21 24 21q20 0 17 -21zM575 789q-4 -26 -25.5 -45t-47.5 -19t-42.5 19t-12.5 45t25.5 45t47.5 19t42.5 -19t12.5 -45zM678 661 q-3 -24 -22 -40.5t-43 -16.5t-38.5 16.5t-11.5 40.5t22.5 41t43.5 17t38 -17t11 -41zM447 789q-4 -26 -25.5 -45t-47.5 -19t-42.5 19t-12.5 45t25.5 45t47.5 19t42.5 -19t12.5 -45zM550 661q-3 -24 -22 -40.5t-43 -16.5t-38 16.5t-11 40.5t22 41t43 17t38 -17t11 -41z M319 789q-4 -26 -25 -45t-47 -19t-42.5 19t-12.5 45t25.5 45t47.5 19t42 -19t12 -45zM295 661q-3 -24 -22 -40.5t-43 -16.5t-38.5 16.5t-11.5 40.5t22.5 41t43.5 17t38 -17t11 -41zM167 661q-3 -24 -22 -40.5t-43 -16.5t-38 16.5t-11 40.5t22 41t43 17t38 -17t11 -41z" />
<glyph unicode="&#xcf;" horiz-adv-x="810" d="M400 534q-3 -21 -20.5 -36.5t-38.5 -15.5t-34 15.5t-10 36.5t20.5 36.5t38.5 15.5t34 -15.5t10 -36.5zM272 534q-3 -21 -20.5 -36.5t-38.5 -15.5t-34 15.5t-10 36.5t20.5 36.5t38.5 15.5t34 -15.5t10 -36.5zM374 406q-3 -18 -17.5 -31t-32.5 -13t-29 13t-8 31t17.5 31 t32.5 13t29 -13t8 -31zM247 406q-3 -18 -17.5 -31t-32.5 -13t-29.5 13t-8.5 31t17.5 31t32.5 13t29.5 -13t8.5 -31zM352 291q-2 -15 -15 -26t-28 -11t-24.5 11t-7.5 26t15 26.5t28 11.5t24.5 -11.5t7.5 -26.5zM327 189q-4 -27 -31 -27t-23 27t31 27t23 -27zM224 291 q-2 -15 -15 -26t-28 -11t-24.5 11t-7.5 26t15 26.5t28 11.5t24.5 -11.5t7.5 -26.5zM311 103q-3 -23 -26 -23t-20 23t26 23t20 -23zM199 189q-4 -27 -30 -27q-28 0 -24 27t31 27t23 -27zM297 20q-3 -20 -24 -20q-20 0 -17 20q3 21 23 21q21 0 18 -21zM183 103q-3 -23 -26 -23 t-20 23t27 23q22 0 19 -23zM169 20q-3 -20 -23 -20q-21 0 -18 20q3 21 24 21q20 0 17 -21zM713 789q-4 -26 -25.5 -45t-47.5 -19t-42.5 19t-12.5 45t25.5 45t47.5 19t42.5 -19t12.5 -45zM585 789q-4 -26 -25.5 -45t-47.5 -19t-42.5 19t-12.5 45t25.5 45t47.5 19t42.5 -19 t12.5 -45zM330 789q-4 -26 -25.5 -45t-47.5 -19t-42.5 19t-12.5 45t25.5 45t47.5 19t42.5 -19t12.5 -45zM202 789q-4 -26 -25.5 -45t-47.5 -19t-42.5 19t-12.5 45t25.5 45t47.5 19t42.5 -19t12.5 -45z" />
<glyph unicode="&#xd0;" horiz-adv-x="1068" d="M765 534q-3 -21 -20.5 -36.5t-38.5 -15.5t-34 15.5t-10 36.5t20.5 36.5t38.5 15.5t34 -15.5t10 -36.5zM867 406q-3 -18 -17.5 -31t-32.5 -13t-29 13t-8 31t17.5 31t32.5 13t29 -13t8 -31zM972 291q-2 -15 -14.5 -26t-27.5 -11t-24.5 11t-7.5 26q2 16 14.5 27t27.5 11 t24.5 -11.5t7.5 -26.5zM638 534q-3 -21 -20.5 -36.5t-38.5 -15.5t-34.5 15.5t-10.5 36.5t20.5 36.5t38.5 15.5t34.5 -15.5t10.5 -36.5zM948 189q-4 -27 -31 -27t-23 27t30 27q28 0 24 -27zM740 406q-3 -18 -17.5 -31t-32.5 -13t-29.5 13t-8.5 31t17.5 31t32.5 13t29.5 -13 t8.5 -31zM845 291q-2 -15 -15 -26t-28 -11t-24.5 11t-7.5 26t15 26.5t28 11.5t24.5 -11.5t7.5 -26.5zM932 103q-3 -23 -27 -23q-22 0 -19 23t26 23t20 -23zM510 534q-3 -21 -20.5 -36.5t-38.5 -15.5t-34 15.5t-10 36.5t20.5 36.5t38.5 15.5t34 -15.5t10 -36.5zM820 189 q-4 -27 -31 -27t-23 27t31 27t23 -27zM918 20q-3 -20 -24 -20t-18 20q3 21 24 21t18 -21zM804 103q-3 -23 -26 -23t-20 23t26 23t20 -23zM382 534q-3 -21 -20.5 -36.5t-38.5 -15.5t-34 15.5t-10 36.5t20.5 36.5t38.5 15.5t34 -15.5t10 -36.5zM790 20q-3 -20 -24 -20 q-20 0 -17 20q3 21 23 21q21 0 18 -21zM255 534q-3 -21 -20.5 -36.5t-38.5 -15.5t-34.5 15.5t-10.5 36.5t20.5 36.5t38.5 15.5t34.5 -15.5t10.5 -36.5zM357 406q-3 -18 -17.5 -31t-32.5 -13t-29.5 13t-8.5 31t17.5 31t32.5 13t29.5 -13t8.5 -31zM662 20q-3 -20 -23 -20 q-21 0 -18 20q3 21 24 21q20 0 17 -21zM437 189q-4 -27 -31 -27t-23 27t31 27t23 -27zM229 406q-3 -18 -17.5 -31t-32.5 -13t-29.5 13t-8.5 31t17.5 31t32.5 13t29.5 -13t8.5 -31zM334 291q-2 -15 -15 -26t-28 -11t-24.5 11t-7.5 26t15 26.5t28 11.5t24.5 -11.5t7.5 -26.5z M535 20q-3 -20 -24 -20t-18 20q3 21 24 21t18 -21zM309 189q-4 -27 -30 -27q-28 0 -24 27t31 27t23 -27zM206 291q-2 -15 -14.5 -26t-27.5 -11t-24.5 11t-7.5 26q2 16 14.5 27t27.5 11t24.5 -11.5t7.5 -26.5zM407 20q-3 -20 -24 -20q-20 0 -17 20q3 21 23 21q21 0 18 -21z M293 103q-3 -23 -26 -23t-20 23t26 23t20 -23zM182 189q-4 -27 -31 -27t-23 27t30 27q28 0 24 -27zM279 20q-3 -20 -23 -20q-21 0 -18 20q3 21 24 21q20 0 17 -21zM166 103q-3 -23 -27 -23q-22 0 -19 23t26 23t20 -23zM54 189q-4 -27 -31 -27t-23 27t31 27t23 -27zM152 20 q-3 -20 -24 -20t-18 20q3 21 24 21t18 -21z" />
<glyph unicode="&#xd1;" horiz-adv-x="1056" d="M783 534q-3 -21 -20.5 -36.5t-38.5 -15.5t-34.5 15.5t-10.5 36.5t20.5 36.5t38.5 15.5t34.5 -15.5t10.5 -36.5zM885 406q-3 -18 -17.5 -31t-32.5 -13t-29.5 13t-8.5 31t17.5 31t32.5 13t29.5 -13t8.5 -31zM655 534q-3 -21 -20.5 -36.5t-38.5 -15.5t-34 15.5t-10 36.5 t20.5 36.5t38.5 15.5t34 -15.5t10 -36.5zM757 406q-3 -18 -17.5 -31t-32.5 -13t-29.5 13t-8.5 31t18 31t33 13t29 -13t8 -31zM862 291q-2 -15 -14.5 -26t-27.5 -11t-24.5 11t-7.5 26q2 16 14.5 27t27.5 11t24.5 -11.5t7.5 -26.5zM527 534q-3 -21 -20.5 -36.5t-38.5 -15.5 t-34 15.5t-10 36.5t20.5 36.5t38.5 15.5t34 -15.5t10 -36.5zM838 189q-4 -27 -31 -27t-23 27t30 27q28 0 24 -27zM735 291q-2 -15 -15 -26t-28 -11t-24.5 11t-7.5 26q2 16 14.5 27t27.5 11t25 -11.5t8 -26.5zM821 103q-3 -23 -26 -23q-22 0 -19 23t26 23q22 0 19 -23z M400 534q-3 -21 -20.5 -36.5t-38.5 -15.5t-34.5 15.5t-10.5 36.5t20.5 36.5t38.5 15.5t34.5 -15.5t10.5 -36.5zM710 189q-4 -27 -31 -27t-23 27t31 27t23 -27zM807 20q-3 -20 -23 -20q-21 0 -18 20q3 21 24 21q20 0 17 -21zM694 103q-3 -23 -26 -23t-20 23t26 23t20 -23z M272 534q-3 -21 -20.5 -36.5t-38.5 -15.5t-34 15.5t-10 36.5t20.5 36.5t38.5 15.5t34 -15.5t10 -36.5zM680 20q-3 -20 -24 -20q-20 0 -17 20q3 21 23 21q21 0 18 -21zM246 406q-3 -18 -17.5 -31t-32.5 -13t-29 13t-8 31t17.5 31t32.5 13t29 -13t8 -31zM119 406 q-3 -18 -17.5 -31t-32.5 -13t-29.5 13t-8.5 31t17.5 31t32.5 13t29.5 -13t8.5 -31zM224 291q-2 -15 -15 -26t-28 -11t-24.5 11t-7.5 26t15 26.5t28 11.5t24.5 -11.5t7.5 -26.5zM199 189q-4 -27 -31 -27t-23 27t31 27t23 -27zM96 291q-2 -15 -15 -26t-28 -11t-24.5 11 t-7.5 26t15 26.5t28 11.5t24.5 -11.5t7.5 -26.5zM183 103q-3 -23 -26 -23t-20 23t26 23t20 -23zM71 189q-4 -27 -30 -27q-28 0 -24 27t31 27t23 -27zM169 20q-3 -20 -24 -20q-20 0 -17 20q3 21 23 21q21 0 18 -21zM55 103q-3 -23 -26 -23t-20 23t27 23q22 0 19 -23zM41 20 q-3 -20 -23 -20q-21 0 -18 20q3 21 24 21q20 0 17 -21zM959 789q-4 -26 -25.5 -45t-47.5 -19t-42.5 19t-12.5 45t25.5 45t47.5 19t42.5 -19t12.5 -45zM831 789q-4 -26 -25.5 -45t-47.5 -19t-42.5 19t-12.5 45t25.5 45t47.5 19t42.5 -19t12.5 -45zM807 661 q-3 -24 -22.5 -40.5t-43.5 -16.5t-38 16.5t-11 40.5t22 41t43 17t38.5 -17t11.5 -41zM576 789q-4 -26 -25.5 -45t-47.5 -19t-42.5 19t-12.5 45t25.5 45t47.5 19t42.5 -19t12.5 -45zM679 661q-3 -24 -22 -40.5t-43 -16.5t-38.5 16.5t-11.5 40.5t22.5 41t43.5 17t38 -17 t11 -41zM448 789q-4 -26 -25.5 -45t-47.5 -19t-42.5 19t-12.5 45t25.5 45t47.5 19t42.5 -19t12.5 -45zM551 661q-3 -24 -22 -40.5t-43 -16.5t-38 16.5t-11 40.5t22 41t43 17t38 -17t11 -41zM320 789q-4 -26 -25 -45t-47 -19t-42.5 19t-12.5 45t25.5 45t47.5 19t42 -19 t12 -45zM296 661q-3 -24 -22 -40.5t-43 -16.5t-38.5 16.5t-11.5 40.5t22.5 41t43.5 17t38 -17t11 -41zM168 661q-3 -24 -22 -40.5t-43 -16.5t-38 16.5t-11 40.5t22 41t43 17t38 -17t11 -41z" />
<glyph unicode="&#xd2;" d="M773 534q-3 -21 -20.5 -36.5t-38.5 -15.5t-34 15.5t-10 36.5t20.5 36.5t38.5 15.5t34 -15.5t10 -36.5zM875 406q-3 -18 -17.5 -31t-32.5 -13t-29 13t-8 31t17.5 31t32.5 13t29 -13t8 -31zM646 534q-3 -21 -20.5 -36.5t-38.5 -15.5t-34.5 15.5t-10.5 36.5t20.5 36.5 t38.5 15.5t34.5 -15.5t10.5 -36.5zM748 406q-3 -18 -17.5 -31t-32.5 -13t-29.5 13t-8.5 31t17.5 31t32.5 13t29.5 -13t8.5 -31zM853 291q-2 -15 -15 -26t-28 -11t-24.5 11t-7.5 26t15 26.5t28 11.5t24.5 -11.5t7.5 -26.5zM518 534q-3 -21 -20.5 -36.5t-38.5 -15.5t-34 15.5 t-10 36.5t20.5 36.5t38.5 15.5t34 -15.5t10 -36.5zM828 189q-4 -27 -31 -27t-23 27t31 27t23 -27zM725 291q-2 -15 -15 -26t-28 -11t-24.5 11t-7.5 26t15 26.5t28 11.5t24.5 -11.5t7.5 -26.5zM812 103q-3 -23 -26 -23t-20 23t26 23t20 -23zM390 534q-3 -21 -20.5 -36.5 t-38.5 -15.5t-34 15.5t-10 36.5t20.5 36.5t38.5 15.5t34 -15.5t10 -36.5zM700 189q-4 -27 -30 -27q-28 0 -24 27t31 27t23 -27zM684 103q-3 -23 -26 -23t-20 23t26 23t20 -23zM263 534q-3 -21 -20.5 -36.5t-38.5 -15.5t-34.5 15.5t-10.5 36.5t20.5 36.5t38.5 15.5 t34.5 -15.5t10.5 -36.5zM670 20q-3 -20 -23 -20q-21 0 -18 20q3 21 24 21q20 0 17 -21zM237 406q-3 -18 -17.5 -31t-32.5 -13t-29.5 13t-8.5 31t17.5 31t32.5 13t29.5 -13t8.5 -31zM543 20q-3 -20 -24 -20t-18 20q3 21 24 21t18 -21zM109 406q-3 -18 -17.5 -31t-32.5 -13 t-29 13t-8 31t17.5 31t32.5 13t29 -13t8 -31zM214 291q-2 -15 -14.5 -26t-27.5 -11t-24.5 11t-7.5 26q2 16 14.5 27t27.5 11t24.5 -11.5t7.5 -26.5zM415 20q-3 -20 -24 -20q-20 0 -17 20q3 21 23 21q21 0 18 -21zM190 189q-4 -27 -31 -27t-23 27t30 27q28 0 24 -27zM87 291 q-2 -15 -15 -26t-28 -11t-24.5 11t-7.5 26t15 26.5t28 11.5t24.5 -11.5t7.5 -26.5zM287 20q-3 -20 -23 -20q-21 0 -18 20q3 21 24 21q20 0 17 -21zM174 103q-3 -23 -27 -23q-22 0 -19 23t26 23t20 -23zM62 189q-4 -27 -31 -27t-23 27t31 27t23 -27zM160 20q-3 -20 -24 -20 t-18 20q3 21 24 21t18 -21zM46 103q-3 -23 -26 -23t-20 23t26 23t20 -23zM555 789q-4 -26 -25.5 -45t-47.5 -19t-42.5 19t-12.5 45t25.5 45t47.5 19t42.5 -19t12.5 -45zM658 661q-3 -24 -22 -40.5t-43 -16.5t-38.5 16.5t-11.5 40.5t22.5 41t43.5 17t38 -17t11 -41zM427 789 q-4 -26 -25.5 -45t-47.5 -19t-42 19t-12 45t25 45t47 19t42.5 -19t12.5 -45zM531 661q-3 -24 -22.5 -40.5t-43.5 -16.5t-38 16.5t-11 40.5t22 41t43 17t38.5 -17t11.5 -41z" />
<glyph unicode="&#xd3;" d="M773 534q-3 -21 -20.5 -36.5t-38.5 -15.5t-34 15.5t-10 36.5t20.5 36.5t38.5 15.5t34 -15.5t10 -36.5zM875 406q-3 -18 -17.5 -31t-32.5 -13t-29 13t-8 31t17.5 31t32.5 13t29 -13t8 -31zM646 534q-3 -21 -20.5 -36.5t-38.5 -15.5t-34.5 15.5t-10.5 36.5t20.5 36.5 t38.5 15.5t34.5 -15.5t10.5 -36.5zM748 406q-3 -18 -17.5 -31t-32.5 -13t-29.5 13t-8.5 31t17.5 31t32.5 13t29.5 -13t8.5 -31zM853 291q-2 -15 -15 -26t-28 -11t-24.5 11t-7.5 26t15 26.5t28 11.5t24.5 -11.5t7.5 -26.5zM518 534q-3 -21 -20.5 -36.5t-38.5 -15.5t-34 15.5 t-10 36.5t20.5 36.5t38.5 15.5t34 -15.5t10 -36.5zM828 189q-4 -27 -31 -27t-23 27t31 27t23 -27zM725 291q-2 -15 -15 -26t-28 -11t-24.5 11t-7.5 26t15 26.5t28 11.5t24.5 -11.5t7.5 -26.5zM812 103q-3 -23 -26 -23t-20 23t26 23t20 -23zM390 534q-3 -21 -20.5 -36.5 t-38.5 -15.5t-34 15.5t-10 36.5t20.5 36.5t38.5 15.5t34 -15.5t10 -36.5zM700 189q-4 -27 -30 -27q-28 0 -24 27t31 27t23 -27zM684 103q-3 -23 -26 -23t-20 23t26 23t20 -23zM263 534q-3 -21 -20.5 -36.5t-38.5 -15.5t-34.5 15.5t-10.5 36.5t20.5 36.5t38.5 15.5 t34.5 -15.5t10.5 -36.5zM670 20q-3 -20 -23 -20q-21 0 -18 20q3 21 24 21q20 0 17 -21zM237 406q-3 -18 -17.5 -31t-32.5 -13t-29.5 13t-8.5 31t17.5 31t32.5 13t29.5 -13t8.5 -31zM543 20q-3 -20 -24 -20t-18 20q3 21 24 21t18 -21zM109 406q-3 -18 -17.5 -31t-32.5 -13 t-29 13t-8 31t17.5 31t32.5 13t29 -13t8 -31zM214 291q-2 -15 -14.5 -26t-27.5 -11t-24.5 11t-7.5 26q2 16 14.5 27t27.5 11t24.5 -11.5t7.5 -26.5zM415 20q-3 -20 -24 -20q-20 0 -17 20q3 21 23 21q21 0 18 -21zM190 189q-4 -27 -31 -27t-23 27t30 27q28 0 24 -27zM87 291 q-2 -15 -15 -26t-28 -11t-24.5 11t-7.5 26t15 26.5t28 11.5t24.5 -11.5t7.5 -26.5zM287 20q-3 -20 -23 -20q-21 0 -18 20q3 21 24 21q20 0 17 -21zM174 103q-3 -23 -27 -23q-22 0 -19 23t26 23t20 -23zM62 189q-4 -27 -31 -27t-23 27t31 27t23 -27zM160 20q-3 -20 -24 -20 t-18 20q3 21 24 21t18 -21zM46 103q-3 -23 -26 -23t-20 23t26 23t20 -23zM822 789q-4 -26 -25.5 -45t-47.5 -19t-42.5 19t-12.5 45t25.5 45t47.5 19t42.5 -19t12.5 -45zM694 789q-4 -26 -25 -45t-47 -19t-42.5 19t-12.5 45t25.5 45t47.5 19t42 -19t12 -45zM670 661 q-3 -24 -22 -40.5t-43 -16.5t-38.5 16.5t-11.5 40.5t22.5 41t43.5 17t38 -17t11 -41zM542 661q-3 -24 -22 -40.5t-43 -16.5t-38 16.5t-11 40.5t22 41t43 17t38 -17t11 -41z" />
<glyph unicode="&#xd4;" d="M773 534q-3 -21 -20.5 -36.5t-38.5 -15.5t-34 15.5t-10 36.5t20.5 36.5t38.5 15.5t34 -15.5t10 -36.5zM875 406q-3 -18 -17.5 -31t-32.5 -13t-29 13t-8 31t17.5 31t32.5 13t29 -13t8 -31zM646 534q-3 -21 -20.5 -36.5t-38.5 -15.5t-34.5 15.5t-10.5 36.5t20.5 36.5 t38.5 15.5t34.5 -15.5t10.5 -36.5zM748 406q-3 -18 -17.5 -31t-32.5 -13t-29.5 13t-8.5 31t17.5 31t32.5 13t29.5 -13t8.5 -31zM853 291q-2 -15 -15 -26t-28 -11t-24.5 11t-7.5 26t15 26.5t28 11.5t24.5 -11.5t7.5 -26.5zM518 534q-3 -21 -20.5 -36.5t-38.5 -15.5t-34 15.5 t-10 36.5t20.5 36.5t38.5 15.5t34 -15.5t10 -36.5zM828 189q-4 -27 -31 -27t-23 27t31 27t23 -27zM725 291q-2 -15 -15 -26t-28 -11t-24.5 11t-7.5 26t15 26.5t28 11.5t24.5 -11.5t7.5 -26.5zM812 103q-3 -23 -26 -23t-20 23t26 23t20 -23zM390 534q-3 -21 -20.5 -36.5 t-38.5 -15.5t-34 15.5t-10 36.5t20.5 36.5t38.5 15.5t34 -15.5t10 -36.5zM700 189q-4 -27 -30 -27q-28 0 -24 27t31 27t23 -27zM684 103q-3 -23 -26 -23t-20 23t26 23t20 -23zM263 534q-3 -21 -20.5 -36.5t-38.5 -15.5t-34.5 15.5t-10.5 36.5t20.5 36.5t38.5 15.5 t34.5 -15.5t10.5 -36.5zM670 20q-3 -20 -23 -20q-21 0 -18 20q3 21 24 21q20 0 17 -21zM237 406q-3 -18 -17.5 -31t-32.5 -13t-29.5 13t-8.5 31t17.5 31t32.5 13t29.5 -13t8.5 -31zM543 20q-3 -20 -24 -20t-18 20q3 21 24 21t18 -21zM109 406q-3 -18 -17.5 -31t-32.5 -13 t-29 13t-8 31t17.5 31t32.5 13t29 -13t8 -31zM214 291q-2 -15 -14.5 -26t-27.5 -11t-24.5 11t-7.5 26q2 16 14.5 27t27.5 11t24.5 -11.5t7.5 -26.5zM415 20q-3 -20 -24 -20q-20 0 -17 20q3 21 23 21q21 0 18 -21zM190 189q-4 -27 -31 -27t-23 27t30 27q28 0 24 -27zM87 291 q-2 -15 -15 -26t-28 -11t-24.5 11t-7.5 26t15 26.5t28 11.5t24.5 -11.5t7.5 -26.5zM287 20q-3 -20 -23 -20q-21 0 -18 20q3 21 24 21q20 0 17 -21zM174 103q-3 -23 -27 -23q-22 0 -19 23t26 23t20 -23zM62 189q-4 -27 -31 -27t-23 27t31 27t23 -27zM160 20q-3 -20 -24 -20 t-18 20q3 21 24 21t18 -21zM46 103q-3 -23 -26 -23t-20 23t26 23t20 -23zM694 789q-4 -26 -25.5 -45t-47.5 -19t-42.5 19t-12.5 45t25.5 45t47.5 19t42.5 -19t12.5 -45zM797 661q-3 -24 -22 -40.5t-43 -16.5t-38.5 16.5t-11.5 40.5t22.5 41t43.5 17t38 -17t11 -41zM566 789 q-4 -26 -25.5 -45t-47.5 -19t-42.5 19t-12.5 45t25.5 45t47.5 19t42.5 -19t12.5 -45zM669 661q-3 -24 -22 -40.5t-43 -16.5t-38 16.5t-11 40.5t22 41t43 17t38 -17t11 -41zM438 789q-4 -26 -25 -45t-47 -19t-42.5 19t-12.5 45t25.5 45t47.5 19t42 -19t12 -45zM414 661 q-3 -24 -22 -40.5t-43 -16.5t-38.5 16.5t-11.5 40.5t22.5 41t43.5 17t38 -17t11 -41zM286 661q-3 -24 -22 -40.5t-43 -16.5t-38 16.5t-11 40.5t22 41t43 17t38 -17t11 -41z" />
<glyph unicode="&#xd5;" horiz-adv-x="1047" d="M773 534q-3 -21 -20.5 -36.5t-38.5 -15.5t-34 15.5t-10 36.5t20.5 36.5t38.5 15.5t34 -15.5t10 -36.5zM875 406q-3 -18 -17.5 -31t-32.5 -13t-29 13t-8 31t17.5 31t32.5 13t29 -13t8 -31zM646 534q-3 -21 -20.5 -36.5t-38.5 -15.5t-34.5 15.5t-10.5 36.5t20.5 36.5 t38.5 15.5t34.5 -15.5t10.5 -36.5zM748 406q-3 -18 -17.5 -31t-32.5 -13t-29.5 13t-8.5 31t17.5 31t32.5 13t29.5 -13t8.5 -31zM853 291q-2 -15 -15 -26t-28 -11t-24.5 11t-7.5 26t15 26.5t28 11.5t24.5 -11.5t7.5 -26.5zM518 534q-3 -21 -20.5 -36.5t-38.5 -15.5t-34 15.5 t-10 36.5t20.5 36.5t38.5 15.5t34 -15.5t10 -36.5zM828 189q-4 -27 -31 -27t-23 27t31 27t23 -27zM725 291q-2 -15 -15 -26t-28 -11t-24.5 11t-7.5 26t15 26.5t28 11.5t24.5 -11.5t7.5 -26.5zM812 103q-3 -23 -26 -23t-20 23t26 23t20 -23zM390 534q-3 -21 -20.5 -36.5 t-38.5 -15.5t-34 15.5t-10 36.5t20.5 36.5t38.5 15.5t34 -15.5t10 -36.5zM700 189q-4 -27 -30 -27q-28 0 -24 27t31 27t23 -27zM684 103q-3 -23 -26 -23t-20 23t26 23t20 -23zM263 534q-3 -21 -20.5 -36.5t-38.5 -15.5t-34.5 15.5t-10.5 36.5t20.5 36.5t38.5 15.5 t34.5 -15.5t10.5 -36.5zM670 20q-3 -20 -23 -20q-21 0 -18 20q3 21 24 21q20 0 17 -21zM237 406q-3 -18 -17.5 -31t-32.5 -13t-29.5 13t-8.5 31t17.5 31t32.5 13t29.5 -13t8.5 -31zM543 20q-3 -20 -24 -20t-18 20q3 21 24 21t18 -21zM109 406q-3 -18 -17.5 -31t-32.5 -13 t-29 13t-8 31t17.5 31t32.5 13t29 -13t8 -31zM214 291q-2 -15 -14.5 -26t-27.5 -11t-24.5 11t-7.5 26q2 16 14.5 27t27.5 11t24.5 -11.5t7.5 -26.5zM415 20q-3 -20 -24 -20q-20 0 -17 20q3 21 23 21q21 0 18 -21zM190 189q-4 -27 -31 -27t-23 27t30 27q28 0 24 -27zM87 291 q-2 -15 -15 -26t-28 -11t-24.5 11t-7.5 26t15 26.5t28 11.5t24.5 -11.5t7.5 -26.5zM287 20q-3 -20 -23 -20q-21 0 -18 20q3 21 24 21q20 0 17 -21zM174 103q-3 -23 -27 -23q-22 0 -19 23t26 23t20 -23zM62 189q-4 -27 -31 -27t-23 27t31 27t23 -27zM160 20q-3 -20 -24 -20 t-18 20q3 21 24 21t18 -21zM46 103q-3 -23 -26 -23t-20 23t26 23t20 -23zM950 789q-4 -26 -25.5 -45t-47.5 -19t-42.5 19t-12.5 45t25.5 45t47.5 19t42.5 -19t12.5 -45zM822 789q-4 -26 -25.5 -45t-47.5 -19t-42.5 19t-12.5 45t25.5 45t47.5 19t42.5 -19t12.5 -45zM798 661 q-3 -24 -22.5 -40.5t-43.5 -16.5t-38 16.5t-11 40.5t22 41t43 17t38.5 -17t11.5 -41zM567 789q-4 -26 -25.5 -45t-47.5 -19t-42.5 19t-12.5 45t25.5 45t47.5 19t42.5 -19t12.5 -45zM670 661q-3 -24 -22 -40.5t-43 -16.5t-38.5 16.5t-11.5 40.5t22.5 41t43.5 17t38 -17 t11 -41zM439 789q-4 -26 -25.5 -45t-47.5 -19t-42.5 19t-12.5 45t25.5 45t47.5 19t42.5 -19t12.5 -45zM542 661q-3 -24 -22 -40.5t-43 -16.5t-38 16.5t-11 40.5t22 41t43 17t38 -17t11 -41zM311 789q-4 -26 -25 -45t-47 -19t-42.5 19t-12.5 45t25.5 45t47.5 19t42 -19 t12 -45zM287 661q-3 -24 -22 -40.5t-43 -16.5t-38.5 16.5t-11.5 40.5t22.5 41t43.5 17t38 -17t11 -41zM159 661q-3 -24 -22 -40.5t-43 -16.5t-38 16.5t-11 40.5t22 41t43 17t38 -17t11 -41z" />
<glyph unicode="&#xd6;" d="M773 534q-3 -21 -20.5 -36.5t-38.5 -15.5t-34 15.5t-10 36.5t20.5 36.5t38.5 15.5t34 -15.5t10 -36.5zM875 406q-3 -18 -17.5 -31t-32.5 -13t-29 13t-8 31t17.5 31t32.5 13t29 -13t8 -31zM646 534q-3 -21 -20.5 -36.5t-38.5 -15.5t-34.5 15.5t-10.5 36.5t20.5 36.5 t38.5 15.5t34.5 -15.5t10.5 -36.5zM748 406q-3 -18 -17.5 -31t-32.5 -13t-29.5 13t-8.5 31t17.5 31t32.5 13t29.5 -13t8.5 -31zM853 291q-2 -15 -15 -26t-28 -11t-24.5 11t-7.5 26t15 26.5t28 11.5t24.5 -11.5t7.5 -26.5zM518 534q-3 -21 -20.5 -36.5t-38.5 -15.5t-34 15.5 t-10 36.5t20.5 36.5t38.5 15.5t34 -15.5t10 -36.5zM828 189q-4 -27 -31 -27t-23 27t31 27t23 -27zM725 291q-2 -15 -15 -26t-28 -11t-24.5 11t-7.5 26t15 26.5t28 11.5t24.5 -11.5t7.5 -26.5zM812 103q-3 -23 -26 -23t-20 23t26 23t20 -23zM390 534q-3 -21 -20.5 -36.5 t-38.5 -15.5t-34 15.5t-10 36.5t20.5 36.5t38.5 15.5t34 -15.5t10 -36.5zM700 189q-4 -27 -30 -27q-28 0 -24 27t31 27t23 -27zM684 103q-3 -23 -26 -23t-20 23t26 23t20 -23zM263 534q-3 -21 -20.5 -36.5t-38.5 -15.5t-34.5 15.5t-10.5 36.5t20.5 36.5t38.5 15.5 t34.5 -15.5t10.5 -36.5zM670 20q-3 -20 -23 -20q-21 0 -18 20q3 21 24 21q20 0 17 -21zM237 406q-3 -18 -17.5 -31t-32.5 -13t-29.5 13t-8.5 31t17.5 31t32.5 13t29.5 -13t8.5 -31zM543 20q-3 -20 -24 -20t-18 20q3 21 24 21t18 -21zM109 406q-3 -18 -17.5 -31t-32.5 -13 t-29 13t-8 31t17.5 31t32.5 13t29 -13t8 -31zM214 291q-2 -15 -14.5 -26t-27.5 -11t-24.5 11t-7.5 26q2 16 14.5 27t27.5 11t24.5 -11.5t7.5 -26.5zM415 20q-3 -20 -24 -20q-20 0 -17 20q3 21 23 21q21 0 18 -21zM190 189q-4 -27 -31 -27t-23 27t30 27q28 0 24 -27zM87 291 q-2 -15 -15 -26t-28 -11t-24.5 11t-7.5 26t15 26.5t28 11.5t24.5 -11.5t7.5 -26.5zM287 20q-3 -20 -23 -20q-21 0 -18 20q3 21 24 21q20 0 17 -21zM174 103q-3 -23 -27 -23q-22 0 -19 23t26 23t20 -23zM62 189q-4 -27 -31 -27t-23 27t31 27t23 -27zM160 20q-3 -20 -24 -20 t-18 20q3 21 24 21t18 -21zM46 103q-3 -23 -26 -23t-20 23t26 23t20 -23zM832 789q-4 -26 -25.5 -45t-47.5 -19t-42.5 19t-12.5 45t25.5 45t47.5 19t42.5 -19t12.5 -45zM704 789q-4 -26 -25.5 -45t-47.5 -19t-42.5 19t-12.5 45t25.5 45t47.5 19t42.5 -19t12.5 -45zM449 789 q-4 -26 -25.5 -45t-47.5 -19t-42.5 19t-12.5 45t25.5 45t47.5 19t42.5 -19t12.5 -45zM321 789q-4 -26 -25.5 -45t-47.5 -19t-42.5 19t-12.5 45t25.5 45t47.5 19t42.5 -19t12.5 -45z" />
</font>
</defs>
</svg>
